{"glyphs":{" ":{"ha":282,"x_min":0,"x_max":0,"o":""},"\"":{"ha":693,"x_min":157,"x_max":473,"o":"m 157 945 q 214 1000 157 1000 q 256 982 242 998 q 270 945 270 966 q 256 790 270 890 q 241 641 241 690 l 183 641 q 170 790 183 690 q 157 945 157 890 m 360 945 q 417 1000 360 1000 q 459 982 446 998 q 473 945 473 966 q 459 790 473 890 q 445 641 445 690 l 387 641 q 373 790 387 690 q 360 945 360 890 z "},"'":{"ha":397,"x_min":157,"x_max":270,"o":"m 157 945 q 214 1000 157 1000 q 256 982 242 998 q 270 945 270 966 q 256 790 270 890 q 241 641 241 690 l 183 641 q 170 790 183 690 q 157 945 157 890 z "},"*":{"ha":764,"x_min":138,"x_max":722,"o":"m 385 235 l 389 466 l 241 317 l 170 317 l 357 506 l 138 506 l 151 569 l 371 569 l 188 749 l 251 749 l 393 610 l 397 813 l 477 840 l 474 618 l 614 749 l 687 749 l 495 569 l 722 569 l 707 506 l 494 506 l 680 317 l 617 317 l 472 466 l 467 262 l 385 235 z "},"+":{"ha":758,"x_min":79,"x_max":677,"o":"m 677 291 l 421 291 l 421 33 l 336 33 l 336 291 l 79 291 l 79 372 l 336 372 l 336 629 l 421 629 l 421 372 l 677 372 l 677 291 z "},"-":{"ha":764,"x_min":138,"x_max":646,"o":"m 646 276 l 138 276 l 138 383 l 646 383 l 646 276 z "},".":{"ha":355,"x_min":95,"x_max":258,"o":"m 95 80 q 101 112 95 97 q 119 138 108 127 q 145 155 130 149 q 176 161 160 161 q 208 155 193 161 q 234 138 223 149 q 252 112 245 127 q 258 80 258 97 q 252 49 258 64 q 234 23 245 34 q 208 6 223 12 q 176 -1 193 -1 q 145 6 160 -1 q 119 23 130 12 q 101 49 108 34 q 95 80 95 64 z "},"/":{"ha":541,"x_min":77,"x_max":490,"o":"m 490 857 l 177 -46 l 77 -46 l 390 857 l 490 857 z "},"<":{"ha":758,"x_min":102,"x_max":648,"o":"m 648 39 l 102 301 l 102 362 l 648 623 l 648 532 l 224 332 l 648 130 l 648 39 z "},"=":{"ha":758,"x_min":98,"x_max":660,"o":"m 660 397 l 98 397 l 98 479 l 660 479 l 660 397 m 660 184 l 98 184 l 98 265 l 660 265 l 660 184 z "},">":{"ha":758,"x_min":109,"x_max":655,"o":"m 655 301 l 109 39 l 109 130 l 533 332 l 109 532 l 109 623 l 655 362 l 655 301 z "},"[":{"ha":415,"x_min":122,"x_max":361,"o":"m 361 -102 l 122 -102 l 122 1036 l 361 1036 l 361 973 l 212 973 l 212 -40 l 361 -40 l 361 -102 z "},"]":{"ha":415,"x_min":136,"x_max":374,"o":"m 136 -40 l 285 -40 l 285 973 l 136 973 l 136 1036 l 374 1036 l 374 -102 l 136 -102 l 136 -40 z "},"`":{"ha":144,"x_min":0,"x_max":0,"o":""},"{":{"ha":556,"x_min":91,"x_max":557,"o":"m 224 377 q 359 49 227 187 q 521 -91 439 -41 q 547 -155 536 -123 q 557 -220 557 -187 q 461 -104 522 -155 q 339 -45 400 -53 q 265 -47 278 -37 q 276 -18 276 -35 q 265 33 276 -5 q 254 96 254 71 q 257 123 254 111 q 238 113 248 116 q 214 109 227 109 q 144 157 163 109 q 140 183 140 170 q 188 252 140 233 q 201 255 197 254 q 140 334 173 276 q 99 377 121 370 l 98 377 l 94 378 l 91 378 l 92 378 l 91 378 l 94 378 l 98 379 l 99 379 q 140 422 121 386 q 201 501 173 480 q 188 505 197 503 q 140 573 140 523 q 144 599 140 587 q 214 648 163 648 q 238 644 227 648 q 257 633 248 640 q 254 660 254 646 q 265 724 254 686 q 276 774 276 762 q 265 804 276 791 q 339 801 278 793 q 461 860 400 809 q 557 976 522 911 q 547 911 557 943 q 521 847 536 879 q 359 707 439 798 q 224 379 227 569 l 224 377 m 480 755 q 282 378 283 616 q 480 1 283 140 q 486 -11 482 -3 q 495 -30 490 -20 q 504 -48 500 -39 q 509 -62 507 -58 q 340 85 436 -25 q 243 377 245 195 l 243 379 q 340 671 245 561 q 509 818 436 781 q 504 805 507 814 q 495 786 500 795 q 486 767 490 776 q 480 755 482 758 m 206 153 q 231 179 231 153 q 205 205 231 205 q 181 189 187 205 q 179 180 179 185 q 187 161 179 169 q 206 153 195 153 m 206 603 q 187 595 195 603 q 179 576 179 587 q 181 567 179 571 q 205 551 187 551 q 231 577 231 551 q 206 603 231 603 z "},"|":{"ha":414,"x_min":163,"x_max":251,"o":"m 251 -208 l 163 -208 l 163 823 l 251 823 l 251 -208 z "},"~":{"ha":632,"x_min":94,"x_max":653,"o":"m 94 214 q 253 380 136 380 q 370 333 290 380 l 425 302 q 526 264 492 264 q 623 358 582 264 l 653 358 q 492 199 605 199 q 376 239 446 199 l 323 270 q 221 314 247 314 q 124 214 164 314 l 94 214 z "},"à":{"ha":729,"x_min":0,"x_max":0,"o":"z "},"ç":{"ha":546,"x_min":0,"x_max":0,"o":""},"é":{"ha":731,"x_min":0,"x_max":0,"o":"z "},"è":{"ha":731,"x_min":0,"x_max":0,"o":"z "},"ê":{"ha":731,"x_min":0,"x_max":0,"o":"z "},"ë":{"ha":731,"x_min":0,"x_max":0,"o":"z "},"ù":{"ha":774,"x_min":0,"x_max":0,"o":"z "},"û":{"ha":774,"x_min":0,"x_max":0,"o":"z "},"ü":{"ha":774,"x_min":0,"x_max":0,"o":"z "},"†":{"ha":632,"x_min":168,"x_max":638,"o":"m 235 -157 l 385 422 l 168 401 l 201 475 l 391 453 l 412 723 l 512 741 l 421 453 l 638 475 l 607 401 l 415 422 l 336 -144 l 235 -157 z "},"°":{"ha":277,"x_min":184,"x_max":352,"o":"m 268 572 q 209 597 233 572 q 184 656 184 621 q 209 717 184 692 q 268 741 233 741 q 328 717 303 741 q 352 656 352 692 q 328 597 352 621 q 268 572 303 572 m 268 602 q 306 618 290 602 q 321 656 321 635 q 306 694 321 678 q 268 711 290 711 q 230 694 246 711 q 214 656 214 678 q 230 618 214 635 q 268 602 246 602 z "},"•":{"ha":631,"x_min":77,"x_max":554,"o":"m 554 449 q 484 281 554 351 q 315 211 414 211 q 147 281 217 211 q 77 449 77 351 q 147 617 77 547 q 315 687 217 687 q 484 617 414 687 q 554 449 554 547 z "},"®":{"ha":608,"x_min":177,"x_max":610,"o":"m 393 302 q 240 365 304 302 q 177 518 177 429 q 240 671 177 608 q 393 735 304 735 q 547 671 484 735 q 610 518 610 608 q 547 365 610 429 q 393 302 484 302 m 393 328 q 527 385 471 328 q 583 518 583 441 q 527 652 583 595 q 393 708 471 708 q 260 652 316 708 q 204 518 204 595 q 260 385 204 441 q 393 328 316 328 m 359 500 l 340 404 l 267 404 l 273 433 l 309 433 l 347 621 l 311 621 l 316 650 l 406 650 q 509 593 509 650 q 441 509 509 543 l 465 433 l 507 433 l 500 404 l 435 404 l 401 500 l 359 500 m 365 530 l 389 530 q 473 587 473 530 q 412 621 473 621 l 382 621 l 365 530 z "},"©":{"ha":844,"x_min":113,"x_max":872,"o":"m 492 -18 q 224 93 336 -18 q 113 361 113 204 q 224 630 113 519 q 492 741 336 741 q 761 630 650 741 q 872 361 872 519 q 761 93 872 204 q 492 -18 650 -18 m 492 12 q 739 115 637 12 q 842 361 842 217 q 739 608 842 506 q 492 711 637 711 q 245 608 348 711 q 143 361 143 506 q 245 115 143 217 q 492 12 348 12 m 604 167 q 477 144 532 144 q 345 190 393 144 q 296 313 296 235 q 367 498 296 424 q 546 572 438 572 q 680 552 608 572 l 656 458 l 621 464 l 626 519 q 537 541 579 541 q 418 475 467 541 q 369 313 369 408 q 490 184 369 184 q 612 208 558 184 l 604 167 z "},"™":{"ha":1690,"x_min":153,"x_max":1676,"o":"m 716 534 l 985 534 q 1036 527 1025 534 l 1054 519 q 1091 491 1078 509 q 1121 449 1107 481 q 1126 396 1126 440 l 1126 121 q 1097 89 1126 89 l 823 89 q 763 102 783 89 q 728 124 754 102 q 694 164 718 128 l 688 179 q 685 216 685 185 l 685 503 q 716 534 685 534 m 712 510 l 711 503 l 711 218 q 777 125 711 157 l 794 119 l 794 189 q 806 195 798 195 l 825 195 q 842 180 842 195 q 844 172 844 180 l 844 172 q 855 194 847 194 l 863 195 l 882 195 q 890 193 890 195 q 901 195 894 195 l 925 195 q 928 209 928 195 l 935 235 q 927 288 935 247 l 926 288 q 896 235 926 259 l 879 231 q 860 239 860 231 q 854 264 854 256 q 871 299 854 275 l 870 299 q 844 290 848 290 l 842 292 l 842 292 q 798 252 804 252 l 778 243 q 720 214 738 219 l 720 215 l 720 216 l 783 248 q 848 304 841 302 l 893 323 l 906 327 l 906 329 l 890 326 q 851 338 851 332 q 755 329 796 335 q 740 333 740 330 l 740 334 q 743 336 740 336 l 749 334 l 755 334 l 777 338 l 779 335 q 855 346 795 339 l 901 336 q 918 351 918 346 q 909 360 916 351 q 901 368 901 360 q 869 433 885 402 q 861 442 868 442 l 860 441 l 859 441 q 789 454 831 451 l 788 455 l 788 458 l 790 460 l 796 458 l 798 458 l 801 460 q 854 447 844 452 l 870 447 l 890 416 q 897 403 890 412 q 916 362 909 383 l 916 362 q 926 380 916 380 q 947 391 933 391 l 947 392 q 924 407 924 393 q 937 429 924 416 l 918 427 l 911 427 q 908 432 908 427 l 907 431 l 906 431 q 901 454 903 431 l 901 454 q 893 494 893 470 l 890 506 l 890 510 l 712 510 m 895 510 l 896 509 l 896 503 q 899 479 896 490 l 898 478 l 898 477 q 908 433 908 446 l 912 431 q 949 440 945 431 q 962 446 956 446 l 967 442 l 968 442 l 975 446 q 996 433 975 442 l 1000 417 l 1000 407 l 999 406 l 999 405 l 1000 404 l 1001 401 l 1002 401 l 1001 395 l 1008 371 l 1010 371 q 1034 376 1021 371 l 1036 374 q 1018 366 1021 366 l 1015 366 l 1010 368 l 1006 368 q 998 394 998 380 l 997 394 q 981 375 997 384 l 975 374 l 964 382 l 962 382 l 964 373 l 964 368 q 953 345 964 350 l 953 344 q 955 340 955 344 l 964 342 l 975 342 l 1012 346 q 1061 331 1061 346 q 1071 323 1061 326 q 1078 314 1073 314 q 1084 311 1078 311 q 1095 297 1094 302 l 1093 296 q 1050 336 1083 301 l 1008 333 l 1004 333 l 999 338 q 966 330 981 330 q 941 340 957 330 l 939 335 l 939 334 q 958 304 939 312 q 981 272 981 289 q 997 254 990 268 q 1012 235 1004 254 q 1031 212 1023 218 q 1042 197 1031 209 l 1040 195 l 1038 195 q 1018 220 1031 199 q 999 250 1010 231 q 984 267 994 250 q 972 279 981 267 q 937 312 937 294 l 929 319 l 926 316 l 932 304 l 934 303 l 934 302 l 932 301 l 932 300 q 942 261 937 300 l 942 239 q 932 195 942 229 q 957 191 948 194 q 970 195 957 195 l 1027 195 q 1042 183 1042 195 l 1042 172 q 1036 161 1042 164 l 1018 161 l 1018 113 l 1101 113 l 1101 417 q 1082 460 1097 442 q 1017 505 1054 495 l 998 510 l 895 510 m 957 434 l 962 434 l 968 438 l 966 438 q 957 434 958 437 m 967 431 l 967 425 l 968 425 l 968 423 q 964 419 964 423 l 962 419 q 960 422 962 422 l 960 420 l 958 420 l 956 422 l 958 429 l 951 429 l 951 427 q 947 417 951 421 l 947 416 l 947 417 l 949 417 l 949 416 l 949 414 l 947 412 l 947 412 l 951 414 l 951 409 l 957 410 q 964 405 960 405 l 964 404 l 964 403 l 964 401 l 964 401 l 967 404 l 969 404 l 969 403 l 968 399 l 972 403 l 972 399 l 973 399 l 975 399 q 985 395 975 397 q 992 407 985 407 l 992 408 l 986 412 l 985 408 l 983 408 l 983 412 l 982 412 l 979 409 l 977 409 q 987 423 977 416 l 987 429 q 982 432 987 432 l 979 435 l 977 435 q 967 431 968 435 m 991 420 l 991 412 l 992 412 l 992 420 l 991 420 m 892 405 l 892 401 q 910 366 903 366 l 893 405 l 892 405 m 956 405 l 955 401 l 955 401 l 956 401 l 957 404 l 957 405 l 956 405 m 1090 405 l 1092 403 l 1092 401 q 1063 381 1070 381 l 1061 381 l 1061 382 l 1090 405 m 990 401 l 989 401 l 989 399 l 990 399 l 992 401 l 991 401 l 990 401 m 939 380 l 939 377 q 941 374 941 377 l 943 372 l 949 373 l 949 372 l 951 368 q 956 372 956 370 q 945 384 954 384 q 939 380 939 383 m 1059 385 l 1060 384 l 1060 382 l 1056 378 l 1054 378 l 1053 379 l 1051 379 q 1040 375 1051 376 l 1038 375 l 1038 376 q 1059 385 1040 380 m 930 362 l 930 361 l 932 361 l 932 362 l 930 362 m 934 362 l 932 353 l 934 355 l 935 355 l 935 353 l 934 351 l 934 349 l 935 349 q 938 353 935 353 l 938 351 l 943 355 l 943 358 q 936 362 941 362 l 934 362 m 947 342 l 947 340 l 949 340 l 949 342 l 947 342 m 1008 342 l 1008 340 l 1030 340 l 1030 342 l 1008 342 m 859 340 q 890 332 861 334 l 892 332 l 892 333 q 859 340 867 340 m 906 336 l 906 335 l 908 335 l 908 336 l 906 336 m 924 333 l 923 327 q 927 333 924 327 l 924 333 m 935 329 l 932 323 l 936 322 l 936 329 l 935 329 m 898 317 l 898 316 l 903 316 l 905 317 l 905 318 l 898 317 m 925 313 l 925 311 l 927 309 l 927 311 l 925 313 m 873 281 l 877 281 l 877 281 l 868 267 l 868 266 l 869 266 q 876 275 869 270 l 877 275 q 880 269 877 271 l 877 261 l 877 260 l 878 260 q 881 266 879 266 q 884 260 884 266 l 888 262 l 890 260 l 892 261 l 893 261 l 898 259 l 897 254 l 901 257 l 903 256 l 903 256 q 916 298 916 273 l 916 300 l 918 301 q 903 310 918 306 q 880 292 894 310 q 877 285 877 292 l 873 281 m 945 307 l 945 307 q 972 287 964 287 q 945 307 963 298 m 931 294 l 931 292 l 937 264 l 938 264 l 938 269 l 932 294 l 931 294 m 918 294 q 913 269 918 284 l 913 268 l 914 268 q 920 290 918 279 l 920 294 l 918 294 m 938 262 l 938 259 l 939 259 l 939 262 l 938 262 m 802 186 l 802 117 l 820 113 l 820 167 l 822 167 l 835 113 l 853 113 l 866 167 l 868 167 l 868 113 l 886 113 l 886 186 l 857 186 q 846 144 854 186 l 844 144 q 833 186 842 144 l 802 186 m 895 186 l 895 113 l 918 113 l 918 140 l 920 142 q 941 113 928 142 l 967 113 l 967 115 q 947 144 955 139 l 947 146 q 962 167 960 146 q 932 186 962 186 l 895 186 m 964 186 l 964 168 l 985 168 l 987 166 l 987 113 l 1010 113 l 1010 166 l 1012 168 l 1034 168 l 1034 186 l 964 186 m 920 172 l 931 172 q 940 164 940 170 q 922 155 940 155 l 920 155 l 918 157 l 918 170 l 920 172 m 960 142 q 975 113 964 140 l 979 113 l 979 161 l 971 161 q 967 151 969 161 l 960 142 m 926 124 l 926 113 l 932 113 l 927 124 l 926 124 m 1418 1355 l 1420 1352 l 1420 1301 q 1413 1289 1420 1297 l 1412 1286 q 1423 1275 1415 1275 q 1433 1286 1431 1275 q 1425 1298 1433 1291 l 1426 1304 l 1426 1342 l 1425 1354 l 1426 1355 l 1427 1355 q 1481 1278 1479 1284 l 1481 1275 q 1472 1262 1481 1268 l 1472 1240 l 1469 1237 l 1375 1237 l 1372 1240 l 1372 1265 q 1364 1276 1364 1265 q 1418 1355 1364 1281 m 950 1350 l 958 1350 l 961 1348 l 961 1342 l 958 1340 l 950 1340 l 948 1342 l 948 1348 l 950 1350 m 1070 1341 l 1073 1337 l 1073 1336 l 1042 1316 l 1042 1317 l 1042 1321 l 1070 1341 m 1336 1340 l 1349 1340 l 1351 1337 l 1351 1336 l 1349 1334 l 1336 1334 l 1333 1336 l 1333 1337 l 1336 1340 m 216 1334 l 224 1334 l 227 1332 l 227 1324 l 224 1322 l 216 1322 l 214 1324 l 214 1332 l 216 1334 m 682 1334 l 690 1334 l 693 1332 l 693 1324 l 690 1322 l 682 1322 l 680 1324 l 680 1332 l 682 1334 m 851 1334 l 859 1334 l 861 1332 l 861 1324 l 859 1322 l 851 1322 l 848 1324 l 848 1332 l 851 1334 m 942 1334 l 950 1334 l 953 1332 l 953 1324 l 950 1322 l 942 1322 l 940 1324 l 940 1332 l 942 1334 m 960 1334 l 968 1334 l 970 1332 l 970 1324 l 968 1322 l 960 1322 l 957 1324 l 957 1332 l 960 1334 m 1120 1334 l 1128 1334 l 1131 1332 l 1131 1324 l 1128 1322 l 1120 1322 l 1118 1324 l 1118 1332 l 1120 1334 m 1179 1334 l 1187 1334 q 1190 1324 1190 1334 l 1190 1322 l 1179 1322 l 1177 1324 l 1177 1332 l 1179 1334 m 1291 1334 l 1299 1334 l 1301 1332 l 1301 1324 l 1299 1322 l 1291 1322 l 1289 1324 l 1289 1332 l 1291 1334 m 1075 1333 l 1078 1324 l 1058 1312 l 1058 1311 l 1093 1311 q 1105 1295 1105 1311 l 1105 1288 l 1116 1288 l 1119 1290 l 1119 1317 l 1128 1317 l 1132 1313 l 1132 1288 q 1120 1275 1132 1275 l 1029 1275 q 1019 1293 1019 1275 l 1019 1327 l 1021 1329 l 1029 1329 l 1031 1327 l 1031 1293 l 1032 1288 l 1093 1288 l 1093 1291 q 1089 1298 1093 1297 l 1044 1298 l 1042 1301 l 1042 1310 q 1075 1333 1048 1317 m 155 1329 l 163 1329 l 165 1327 l 165 1293 l 166 1288 l 182 1288 l 182 1290 l 182 1290 l 182 1301 l 182 1314 l 184 1317 l 192 1317 q 194 1313 194 1317 l 195 1288 l 213 1288 l 215 1290 l 215 1317 l 224 1317 l 228 1313 l 228 1288 q 216 1275 228 1275 l 202 1275 q 194 1281 194 1275 l 193 1281 q 185 1275 193 1275 l 163 1275 q 153 1293 153 1275 l 153 1327 l 155 1329 m 311 1329 l 319 1329 l 321 1327 l 321 1321 l 319 1319 l 311 1319 l 309 1321 l 309 1327 l 311 1329 m 496 1329 l 505 1329 l 507 1327 l 507 1293 l 508 1288 l 517 1288 l 517 1314 l 519 1317 l 568 1317 q 581 1301 581 1317 l 581 1278 l 578 1275 l 505 1275 q 494 1293 494 1275 l 494 1327 l 496 1329 m 624 1329 l 626 1327 l 627 1276 l 626 1275 l 616 1275 q 614 1278 614 1275 l 613 1329 l 614 1329 l 624 1329 m 643 1329 l 651 1329 q 654 1320 654 1329 l 654 1319 l 643 1319 l 641 1321 l 641 1327 l 643 1329 m 725 1329 l 728 1327 l 728 1276 l 728 1275 l 718 1275 q 716 1278 716 1275 l 715 1329 l 716 1329 l 725 1329 m 1346 1329 l 1349 1327 l 1350 1276 l 1349 1275 l 1339 1275 q 1337 1278 1337 1275 l 1336 1329 l 1337 1329 l 1346 1329 m 235 1317 l 256 1317 q 269 1308 269 1317 l 269 1281 q 260 1275 267 1275 l 235 1275 l 232 1278 l 232 1286 l 235 1288 l 256 1288 l 256 1301 l 254 1304 l 235 1304 l 232 1306 l 232 1314 l 235 1317 m 337 1317 l 366 1317 l 368 1314 l 368 1265 q 356 1255 368 1255 l 349 1255 l 347 1258 l 347 1266 l 349 1268 l 356 1268 l 356 1275 l 337 1275 q 326 1286 326 1275 l 326 1308 q 337 1317 326 1317 m 427 1317 l 435 1317 l 437 1314 l 437 1293 l 439 1288 l 467 1288 l 467 1289 q 448 1305 457 1289 l 448 1306 q 460 1317 448 1317 l 486 1317 l 488 1314 l 488 1306 l 486 1304 l 463 1304 l 463 1301 q 488 1286 488 1289 l 488 1278 l 486 1275 l 435 1275 q 425 1295 425 1275 l 425 1314 l 427 1317 m 677 1317 l 705 1317 l 708 1314 l 708 1311 l 709 1288 q 699 1275 708 1275 l 654 1275 l 654 1266 q 642 1255 654 1255 l 636 1255 l 634 1258 l 634 1266 q 642 1270 634 1267 l 642 1310 l 644 1312 l 652 1312 l 654 1310 l 654 1288 l 659 1286 l 665 1288 l 665 1305 q 677 1317 665 1317 m 795 1317 q 808 1306 808 1317 l 808 1284 q 797 1275 808 1275 l 779 1275 l 779 1268 q 762 1255 779 1255 l 760 1255 l 758 1258 l 758 1266 q 766 1270 758 1267 l 766 1290 l 764 1316 l 766 1317 l 795 1317 m 850 1317 l 859 1317 l 863 1313 l 863 1288 q 851 1275 863 1275 l 835 1275 l 835 1266 q 822 1255 835 1255 l 817 1255 l 814 1258 l 814 1266 q 822 1270 814 1267 l 822 1310 l 825 1312 l 833 1312 l 835 1310 l 835 1288 l 848 1288 l 850 1290 l 850 1317 m 894 1317 l 902 1317 l 904 1314 l 904 1276 l 907 1273 l 922 1273 l 924 1275 l 924 1314 l 926 1317 l 934 1317 l 937 1314 l 937 1288 l 948 1288 l 948 1314 l 950 1317 l 958 1317 l 961 1314 l 961 1293 l 962 1288 l 973 1288 l 973 1314 l 976 1317 l 984 1317 l 986 1314 l 986 1284 q 977 1275 986 1275 l 965 1275 l 960 1280 l 958 1280 q 951 1275 958 1275 l 937 1275 l 937 1270 q 918 1260 937 1260 l 894 1260 l 891 1262 l 891 1314 l 894 1317 m 1164 1317 l 1172 1317 l 1175 1314 l 1175 1276 l 1178 1273 l 1192 1273 l 1194 1275 l 1194 1314 l 1196 1317 l 1204 1317 l 1206 1314 l 1206 1288 l 1227 1288 l 1230 1290 l 1230 1314 l 1232 1317 l 1239 1317 q 1242 1310 1242 1316 l 1242 1288 q 1231 1275 1242 1275 l 1206 1275 l 1206 1270 q 1188 1260 1206 1260 l 1164 1260 l 1162 1262 l 1162 1314 l 1164 1317 m 1282 1317 l 1305 1317 q 1324 1288 1320 1317 q 1329 1286 1329 1288 l 1329 1278 l 1326 1275 l 1269 1275 l 1269 1266 q 1256 1255 1269 1255 l 1251 1255 l 1248 1258 l 1248 1266 q 1256 1270 1248 1267 l 1256 1310 l 1259 1312 l 1267 1312 l 1269 1310 l 1269 1288 l 1312 1288 q 1305 1304 1308 1304 l 1282 1304 l 1279 1306 l 1279 1314 l 1282 1317 m 311 1312 l 319 1312 l 321 1310 l 321 1267 q 309 1255 321 1255 l 302 1255 l 300 1258 l 300 1266 q 309 1270 300 1267 l 309 1310 l 311 1312 m 386 1312 l 394 1312 l 396 1310 l 396 1267 q 383 1255 396 1255 l 378 1255 l 376 1258 l 376 1266 q 383 1270 376 1267 l 383 1310 l 386 1312 m 596 1312 l 604 1312 l 606 1310 l 606 1267 q 593 1255 606 1255 l 588 1255 l 585 1258 l 585 1266 q 593 1270 585 1267 l 593 1310 l 596 1312 m 1002 1312 l 1010 1312 l 1013 1310 l 1013 1267 q 1000 1255 1013 1255 l 994 1255 l 992 1258 l 992 1266 q 1000 1270 992 1267 l 1000 1310 l 1002 1312 m 338 1304 l 338 1288 l 356 1288 l 356 1304 l 338 1304 m 530 1304 l 530 1290 l 532 1288 l 541 1288 l 543 1290 l 543 1304 l 530 1304 m 555 1304 l 555 1288 l 568 1288 l 568 1297 q 565 1304 568 1303 l 555 1304 m 678 1301 l 678 1290 l 680 1288 l 695 1288 l 695 1304 l 680 1304 l 678 1301 m 779 1304 l 779 1288 l 795 1288 l 795 1301 l 793 1304 l 779 1304 m 176 1270 l 184 1270 l 186 1267 l 186 1260 l 184 1258 l 176 1258 l 174 1260 l 174 1267 l 176 1270 m 193 1270 l 201 1270 l 203 1267 l 203 1260 l 201 1258 l 193 1258 l 191 1260 l 191 1267 l 193 1270 m 1215 1270 l 1223 1270 l 1225 1267 l 1225 1260 l 1223 1258 l 1215 1258 l 1213 1260 l 1213 1267 l 1215 1270 m 1232 1270 l 1240 1270 l 1242 1267 l 1242 1260 l 1240 1258 l 1232 1258 l 1230 1260 l 1230 1267 l 1232 1270 m 802 1236 l 810 1236 q 890 1202 857 1236 l 891 1202 l 891 1213 l 890 1224 l 894 1227 l 989 1227 l 992 1224 l 992 951 l 989 948 l 894 948 l 890 952 l 891 960 l 891 976 l 890 976 q 818 941 857 941 l 795 941 q 696 994 747 941 q 665 1088 665 1036 q 764 1230 665 1189 q 802 1236 787 1236 m 1151 1236 l 1159 1236 q 1238 1200 1204 1236 l 1238 1224 l 1240 1227 l 1336 1227 l 1339 1223 l 1339 999 q 1318 876 1339 893 q 1232 816 1295 835 l 1218 811 l 1133 811 l 1096 824 q 1023 894 1045 848 l 1019 913 l 1019 913 l 1022 918 l 1127 918 l 1141 898 q 1173 888 1156 888 l 1178 888 q 1238 948 1238 895 l 1238 977 q 1151 943 1202 943 l 1149 943 q 1027 1022 1065 943 q 1015 1069 1015 1053 l 1015 1101 q 1037 1170 1017 1131 q 1151 1236 1085 1236 m 1649 1236 l 1660 1236 q 1676 1232 1676 1236 l 1676 1142 l 1675 1141 l 1675 1140 q 1643 1150 1657 1150 l 1642 1150 q 1581 1109 1597 1150 q 1577 1088 1578 1105 q 1624 1027 1577 1044 l 1634 1026 l 1647 1026 q 1675 1035 1657 1026 l 1676 1034 l 1676 943 q 1662 939 1676 939 l 1650 939 q 1503 1043 1546 939 q 1497 1084 1497 1064 l 1497 1092 q 1581 1221 1497 1173 q 1649 1236 1617 1236 m 172 1235 l 269 1235 l 271 1232 l 271 1196 q 358 1232 312 1232 l 364 1232 q 455 1181 422 1232 l 456 1181 q 486 1214 456 1191 q 546 1232 514 1232 l 550 1232 q 629 1192 600 1232 q 643 1132 643 1171 l 643 951 l 641 948 l 545 948 l 543 951 l 543 1076 q 527 1145 543 1140 q 511 1153 527 1148 l 494 1153 q 467 1133 481 1153 q 457 1079 457 1118 l 457 951 l 455 948 l 359 948 l 357 951 l 357 1107 q 330 1152 357 1141 l 325 1153 l 306 1153 q 279 1135 295 1153 q 271 1089 271 1119 l 271 951 l 269 948 l 172 948 l 170 951 l 170 1232 l 172 1235 m 1374 1227 l 1470 1227 l 1472 1224 l 1472 951 l 1470 948 l 1374 948 l 1372 951 l 1372 1224 l 1374 1227 m 743 1089 l 743 1084 q 764 1040 743 1061 q 793 1026 779 1028 l 815 1026 q 858 1053 836 1026 q 867 1086 867 1072 l 867 1090 q 825 1148 867 1130 l 810 1150 l 802 1150 q 748 1115 768 1150 q 743 1089 743 1101 m 1090 1093 l 1091 1089 l 1090 1084 q 1126 1030 1090 1053 l 1149 1025 l 1150 1026 l 1165 1026 q 1216 1088 1216 1042 q 1177 1146 1216 1127 q 1157 1150 1167 1150 l 1149 1150 q 1093 1107 1112 1150 l 1090 1093 m 176 928 l 999 928 l 1001 925 l 1001 774 l 999 772 l 176 772 l 174 774 l 174 925 l 176 928 m 924 861 l 924 854 q 962 798 924 798 q 996 825 987 798 q 999 848 999 833 l 999 865 q 970 915 999 905 l 957 915 q 925 877 932 915 l 924 861 m 743 859 l 743 852 q 781 797 743 797 q 814 824 806 797 q 818 847 818 832 l 818 864 q 789 913 818 904 l 776 913 q 744 876 751 913 l 743 859 m 843 886 l 843 869 l 844 869 q 868 882 862 877 l 869 882 l 871 839 l 871 800 l 887 800 l 887 913 l 876 913 q 843 886 853 886 m 381 859 l 381 851 q 417 797 381 810 l 435 795 q 483 833 471 795 l 483 836 l 481 836 l 465 840 q 437 811 458 811 l 431 811 q 402 836 411 811 l 399 852 l 399 856 q 435 898 399 898 q 463 875 455 898 l 463 873 q 480 879 480 878 q 437 913 470 913 l 432 913 q 382 870 393 913 l 381 859 m 500 913 l 500 798 l 519 798 l 519 836 l 534 851 l 534 851 l 574 798 l 597 798 l 547 865 l 595 913 l 572 913 l 519 862 l 519 862 l 519 863 l 517 913 l 500 913 m 651 877 l 670 876 l 670 882 q 687 898 670 895 l 693 898 q 709 882 709 893 q 662 827 709 865 q 650 803 650 811 l 650 798 l 726 798 l 726 814 l 675 814 l 675 817 q 724 867 724 860 l 726 880 q 692 913 726 909 l 687 913 q 651 877 651 909 m 307 911 l 264 796 l 267 796 l 284 797 q 297 831 294 831 l 337 831 q 352 797 340 831 l 373 797 l 326 911 l 307 911 m 179 910 l 180 801 l 180 796 l 197 796 l 197 839 l 200 841 l 228 841 q 268 878 268 841 q 224 910 268 910 l 179 910 m 958 900 l 963 900 q 981 869 981 896 l 981 848 q 963 813 981 813 l 960 813 q 941 854 941 813 l 941 861 q 958 900 941 900 m 777 899 l 782 899 q 800 867 800 895 l 800 847 q 782 812 800 812 l 779 812 q 760 852 760 812 l 760 859 q 777 899 760 899 m 200 894 l 222 894 q 250 876 250 894 q 223 857 250 857 l 200 857 l 197 859 l 197 892 l 200 894 m 315 888 l 317 888 l 333 847 l 332 846 l 304 846 l 302 848 q 315 888 315 883 m 176 757 l 1567 757 l 1569 754 l 1569 665 l 1567 663 l 176 663 l 174 665 l 174 754 l 176 757 m 1532 747 l 1532 739 l 1540 739 l 1540 747 l 1532 747 m 292 739 q 268 722 292 736 l 268 713 l 306 713 q 310 706 310 712 l 310 704 l 307 701 l 261 701 l 259 704 l 259 724 l 251 724 l 251 704 l 248 701 l 240 701 l 238 704 l 238 724 l 230 724 l 230 704 l 228 701 l 220 701 l 217 704 l 217 724 l 210 724 l 210 692 l 207 688 l 195 688 l 192 692 l 192 696 l 191 724 l 184 724 l 184 682 l 209 682 q 218 693 218 682 q 235 698 232 693 q 243 693 239 693 q 256 698 250 693 q 264 693 260 693 l 317 693 l 317 713 q 310 720 317 720 l 282 720 l 279 722 q 297 734 290 727 l 292 739 m 363 736 l 363 730 l 371 730 l 371 736 l 363 736 m 685 736 l 685 730 l 693 730 l 693 736 l 685 736 m 884 736 l 884 730 l 891 730 l 891 736 l 884 736 m 896 736 l 896 730 l 904 730 l 904 736 l 896 736 m 943 736 l 943 730 l 950 730 l 950 736 l 943 736 m 955 736 l 955 730 l 963 730 l 963 736 l 955 736 m 1481 736 l 1482 730 l 1489 730 l 1489 736 l 1481 736 m 1527 736 l 1527 730 l 1533 730 l 1533 736 l 1527 736 m 1538 736 l 1538 730 l 1546 730 l 1546 736 l 1538 736 m 404 735 l 404 704 l 403 703 l 399 701 l 399 700 q 391 705 391 702 l 391 724 l 385 724 l 385 705 l 381 701 l 373 701 l 371 704 l 371 724 l 363 724 l 363 713 l 364 706 q 358 701 364 701 l 358 700 l 353 704 l 353 724 l 325 724 l 321 721 l 321 701 q 335 693 321 693 l 345 693 q 347 690 347 693 q 337 685 347 685 l 338 678 l 347 678 q 353 690 353 678 l 353 692 l 357 694 l 358 693 l 359 693 q 366 698 366 693 l 368 698 q 380 693 372 693 q 387 698 387 693 l 388 698 q 399 693 393 693 l 399 694 l 399 693 l 401 693 q 412 703 412 693 l 412 718 l 411 735 l 404 735 m 496 735 l 496 701 q 507 693 496 693 l 507 694 l 508 693 l 562 693 l 562 718 q 554 724 562 724 l 513 724 l 513 704 l 511 703 l 508 701 l 508 700 q 503 705 503 703 l 503 735 l 496 735 m 591 735 l 591 729 l 598 729 l 598 735 l 591 735 m 827 735 l 827 701 q 838 693 827 693 l 838 694 l 840 693 l 841 693 q 848 698 844 693 q 858 693 854 693 l 888 693 q 904 700 904 693 l 904 724 l 896 724 l 896 704 l 894 701 l 881 701 l 879 704 l 879 714 q 874 724 879 723 l 848 724 q 844 711 844 724 l 845 706 q 840 701 845 701 l 840 700 q 833 705 834 703 l 833 735 l 827 735 m 1461 735 l 1461 729 l 1469 729 l 1469 735 l 1461 735 m 1496 735 l 1496 701 q 1509 693 1496 693 l 1516 698 q 1525 693 1521 693 l 1527 693 q 1537 698 1532 693 q 1546 693 1541 693 q 1561 701 1561 693 l 1561 724 l 1553 724 l 1553 704 l 1550 701 l 1543 701 l 1540 704 l 1540 724 l 1532 724 l 1532 704 l 1530 701 l 1523 701 l 1519 705 l 1519 724 l 1512 724 l 1512 705 l 1509 701 l 1507 701 l 1503 705 l 1503 735 l 1496 735 m 437 721 l 437 701 q 452 693 437 693 l 460 693 l 462 691 l 462 688 l 460 685 l 454 685 l 454 678 l 465 678 l 470 683 l 470 724 l 441 724 l 437 721 m 604 721 l 604 701 q 618 693 604 693 l 626 693 l 628 691 l 628 688 l 626 685 l 620 685 l 620 678 l 631 678 l 636 683 l 636 724 l 608 724 l 604 721 m 644 724 l 644 718 l 665 718 q 669 711 669 716 l 669 704 l 667 701 l 641 701 l 641 693 l 682 693 q 688 698 688 693 l 690 698 q 705 693 694 693 q 721 698 721 693 l 721 724 l 713 724 l 713 705 l 710 701 l 695 701 l 693 704 l 693 724 l 685 724 l 685 713 l 686 706 l 682 701 l 678 701 l 675 704 l 675 718 q 669 724 675 724 l 644 724 m 726 721 l 726 701 q 740 693 726 693 l 748 693 l 751 691 l 751 688 l 748 685 l 743 685 l 743 678 l 754 678 l 759 683 l 759 724 l 730 724 l 726 721 m 789 724 l 789 688 q 782 685 789 685 l 782 678 l 792 678 q 798 693 795 678 l 805 693 q 821 698 821 693 l 821 718 q 814 724 821 724 l 789 724 m 930 724 l 930 701 q 945 693 930 693 l 962 693 q 978 700 978 693 l 978 724 l 970 724 l 970 724 l 971 704 l 968 701 l 940 701 l 937 705 l 937 724 l 930 724 m 983 721 l 983 701 q 996 693 983 693 l 1006 693 q 1008 690 1008 693 q 999 685 1008 685 l 1000 678 l 1008 678 q 1015 690 1015 678 q 1027 693 1015 693 q 1035 704 1034 693 l 1034 724 l 1027 724 l 1027 704 l 1024 701 l 1017 701 l 1015 704 l 1015 724 l 986 724 l 983 721 m 1060 724 l 1060 701 q 1075 693 1060 693 l 1108 693 l 1108 701 l 1086 716 l 1088 718 l 1108 718 l 1108 724 l 1082 724 q 1078 718 1078 724 q 1095 704 1078 709 l 1095 701 l 1070 701 l 1067 705 l 1067 724 l 1060 724 m 1113 724 l 1113 718 l 1132 718 l 1134 715 l 1134 704 l 1132 701 l 1113 701 l 1113 693 l 1127 693 q 1142 701 1142 693 l 1141 707 l 1141 721 q 1134 724 1139 724 l 1113 724 m 1166 724 l 1166 701 q 1181 693 1166 693 l 1215 693 l 1215 701 l 1193 716 l 1194 718 l 1215 718 l 1215 724 l 1188 724 q 1185 718 1185 724 q 1201 704 1185 709 l 1201 701 l 1177 701 l 1173 705 l 1173 724 l 1166 724 m 1221 721 l 1221 701 q 1234 693 1221 693 l 1242 693 l 1244 691 l 1244 688 l 1242 685 l 1236 685 l 1236 678 l 1248 678 l 1253 683 l 1253 724 l 1224 724 l 1221 721 m 1277 724 l 1277 701 q 1292 693 1277 693 l 1326 693 l 1326 701 l 1303 716 l 1305 718 l 1326 718 l 1326 724 l 1299 724 q 1295 718 1295 724 q 1312 704 1295 709 l 1312 701 l 1287 701 l 1284 705 l 1284 724 l 1277 724 m 1330 724 l 1330 718 l 1349 718 l 1351 715 l 1351 704 l 1349 701 l 1330 701 l 1330 693 l 1344 693 q 1359 701 1359 693 l 1358 707 l 1358 721 q 1351 724 1356 724 l 1330 724 m 1383 716 l 1383 705 q 1397 693 1383 693 l 1403 693 q 1417 698 1417 693 l 1417 718 q 1410 724 1417 724 l 1388 724 q 1383 716 1383 722 m 1423 724 l 1423 718 l 1441 718 l 1443 715 l 1443 704 l 1441 701 l 1423 701 l 1423 693 l 1436 693 q 1451 701 1451 693 l 1450 707 l 1450 721 q 1443 724 1449 724 l 1423 724 m 1482 724 l 1482 704 q 1474 701 1482 701 l 1474 700 q 1469 704 1469 702 l 1469 721 l 1461 721 l 1461 688 q 1455 685 1461 685 l 1455 678 l 1465 678 q 1471 693 1469 678 l 1473 693 l 1473 694 l 1474 693 l 1476 693 q 1489 698 1489 693 l 1489 724 l 1482 724 m 591 721 l 591 688 q 585 685 591 685 l 585 678 l 595 678 q 600 686 600 680 l 600 721 l 591 721 m 332 718 l 343 718 l 345 715 l 345 704 l 343 701 l 332 701 l 328 705 l 328 714 l 332 718 m 447 718 l 460 718 l 462 715 l 462 704 l 460 701 l 447 701 l 445 704 l 445 715 l 447 718 m 522 718 l 530 718 q 534 711 534 716 l 534 705 l 530 701 l 523 701 l 519 705 l 519 715 l 522 718 m 543 718 l 551 718 q 554 711 554 716 l 554 704 l 552 701 l 543 701 l 541 704 l 541 715 l 543 718 m 613 718 l 626 718 l 628 715 l 628 704 l 626 701 l 613 701 l 611 704 l 611 715 l 613 718 m 736 718 l 748 718 l 751 715 l 751 704 l 748 701 l 736 701 l 733 704 l 733 715 l 736 718 m 810 718 q 814 711 814 716 l 814 705 l 810 701 l 799 701 q 795 716 795 701 l 797 718 l 810 718 m 854 718 l 868 718 l 871 715 l 871 704 l 868 701 l 854 701 l 852 704 l 852 715 l 854 718 m 993 718 l 1004 718 l 1007 715 l 1007 704 l 1004 701 l 993 701 l 989 705 l 989 714 l 993 718 m 1230 718 l 1242 718 l 1244 715 l 1244 704 l 1242 701 l 1230 701 l 1227 704 l 1227 715 l 1230 718 m 1394 718 l 1407 718 l 1410 714 l 1410 704 l 1407 701 l 1394 701 l 1392 704 l 1392 715 l 1394 718 m 379 688 l 379 682 l 386 682 l 386 688 l 379 688 m 391 688 l 391 682 l 399 682 l 399 688 l 391 688 m 701 688 l 701 682 l 709 682 l 709 688 l 701 688 m 713 688 l 713 682 l 721 682 l 721 688 l 713 688 m 1022 688 l 1022 682 l 1029 682 l 1029 688 l 1022 688 m 176 648 l 1567 648 l 1569 646 l 1569 557 l 1567 555 l 176 555 l 174 557 l 174 646 l 176 648 m 1084 635 l 1082 632 l 1083 632 l 1086 633 l 1093 631 l 1093 632 l 1093 633 l 1084 635 m 623 624 l 623 623 l 624 623 q 643 630 633 630 l 643 633 q 623 624 623 628 m 347 627 q 355 591 349 591 l 365 591 l 391 591 l 391 596 l 382 596 q 373 604 376 600 l 373 607 l 376 610 l 380 610 l 388 608 l 391 612 l 380 616 l 379 616 q 368 606 368 614 l 368 603 l 372 597 l 371 596 l 365 596 l 364 597 l 363 596 l 359 596 q 352 627 354 596 l 347 627 m 419 627 l 422 606 l 420 606 l 399 625 l 397 622 l 417 600 l 417 599 q 403 593 412 593 l 403 587 q 424 594 408 587 q 433 591 425 591 l 465 591 q 478 603 472 591 q 465 614 478 612 q 444 603 460 614 l 444 604 q 440 627 444 627 l 437 627 l 439 597 l 437 596 l 434 596 q 426 611 426 596 l 425 627 l 419 627 m 481 627 l 485 596 l 484 595 l 485 591 l 488 589 l 488 591 l 490 596 l 488 627 l 481 627 m 547 627 l 551 596 l 550 595 l 551 591 l 554 589 l 554 591 l 555 596 l 553 627 l 547 627 m 667 627 q 675 591 670 591 l 684 591 l 684 591 l 685 591 l 702 591 l 702 599 q 695 609 702 605 l 693 607 l 693 606 l 697 597 l 685 595 q 674 619 674 595 l 673 627 l 667 627 m 769 627 q 777 591 772 591 q 792 583 792 591 q 805 576 800 576 q 815 585 815 578 l 813 589 l 819 591 l 820 591 l 821 591 l 830 595 l 831 595 l 840 591 l 850 596 q 861 591 852 591 l 872 591 l 872 596 q 864 610 872 606 l 861 604 q 866 597 866 604 l 865 596 l 858 596 q 853 606 854 596 q 844 597 848 606 l 840 596 q 835 606 835 596 q 827 599 827 604 l 820 595 q 808 599 808 596 q 812 608 812 600 q 807 614 810 613 l 805 614 q 787 596 798 614 l 782 596 q 775 627 777 596 l 769 627 m 1085 627 l 1089 596 l 1088 595 l 1089 591 l 1093 589 l 1093 591 l 1093 596 l 1091 627 l 1085 627 m 1147 627 q 1156 591 1150 591 l 1164 591 l 1164 591 l 1165 591 l 1166 591 l 1175 593 q 1193 588 1185 588 l 1195 591 l 1217 591 l 1217 599 q 1210 609 1217 605 l 1208 607 l 1208 606 l 1213 597 l 1211 596 l 1196 596 q 1192 607 1194 596 l 1183 612 q 1168 596 1177 612 l 1165 595 q 1155 619 1155 595 l 1154 627 l 1147 627 m 1377 627 l 1381 596 l 1380 595 l 1381 591 l 1384 589 l 1384 591 l 1385 596 l 1383 627 l 1377 627 m 619 615 l 619 611 q 631 606 619 610 l 635 597 l 634 596 l 612 596 q 605 608 610 597 l 602 611 l 598 607 q 604 596 602 607 l 604 593 q 588 581 604 587 l 588 580 l 591 576 q 610 591 600 578 l 641 591 l 641 597 q 628 615 641 604 q 644 619 636 619 l 644 625 l 643 625 q 619 615 631 625 m 657 624 l 654 619 l 659 616 l 661 622 l 657 624 m 1047 624 l 1044 619 l 1047 617 l 1050 621 l 1047 624 m 1055 624 l 1053 621 l 1057 617 l 1060 621 l 1055 624 m 1070 624 l 1067 619 l 1072 616 l 1075 621 l 1070 624 m 1204 624 l 1202 621 q 1205 616 1204 616 l 1209 621 l 1204 624 m 1210 619 l 1213 617 l 1217 621 q 1215 624 1215 621 l 1210 619 m 317 619 l 314 616 l 317 612 l 320 616 l 317 619 m 322 616 l 326 612 l 329 616 l 326 619 l 322 616 m 1251 619 l 1248 616 l 1252 612 l 1254 616 l 1251 619 m 1256 616 l 1259 612 l 1263 616 l 1259 619 l 1256 616 m 521 614 l 524 610 l 528 614 l 524 617 l 521 614 m 1459 617 q 1451 607 1459 614 l 1451 603 l 1453 597 l 1453 596 l 1444 596 q 1440 607 1442 596 l 1432 612 q 1417 596 1425 612 l 1411 596 q 1404 608 1409 597 l 1400 611 l 1397 607 q 1403 596 1400 607 l 1403 593 q 1387 581 1403 587 l 1387 580 l 1390 576 q 1409 591 1398 578 l 1423 593 q 1441 588 1434 588 q 1463 593 1441 590 l 1479 591 q 1485 597 1482 591 q 1459 617 1476 617 m 1114 594 l 1114 591 q 1122 572 1114 587 l 1128 573 q 1120 591 1120 587 l 1120 591 q 1143 600 1120 594 l 1144 604 l 1144 607 q 1132 616 1138 616 q 1121 600 1126 616 q 1114 594 1118 600 m 1504 594 l 1504 591 l 1507 588 l 1510 588 l 1525 593 l 1539 591 l 1553 591 l 1553 599 q 1546 609 1553 605 l 1544 607 l 1544 606 l 1548 597 l 1547 596 l 1537 596 q 1523 615 1523 596 q 1516 609 1516 615 q 1504 594 1504 602 m 260 600 l 260 597 q 269 591 263 591 l 277 594 l 279 593 l 279 591 q 254 583 274 583 l 253 583 l 253 576 l 256 576 q 284 593 279 576 q 271 614 284 604 l 271 614 q 260 600 260 614 m 726 600 l 726 597 q 736 591 730 591 l 744 594 l 745 593 l 745 591 q 721 583 740 583 l 720 583 l 720 576 l 722 576 q 751 593 746 576 q 738 614 751 604 l 736 614 q 726 600 726 614 m 881 600 l 881 597 q 890 591 884 591 l 899 594 l 899 593 l 899 591 q 876 583 895 583 l 874 583 l 874 576 l 876 576 q 905 593 901 576 q 892 614 905 604 l 891 614 q 881 600 881 614 m 958 600 l 958 597 q 968 591 962 591 l 976 594 l 977 593 l 977 591 q 953 583 972 583 l 951 583 l 951 576 l 954 576 q 983 593 978 576 q 970 614 983 604 l 969 614 q 958 600 958 614 m 1286 600 l 1286 597 q 1302 591 1286 593 l 1302 589 q 1279 583 1301 584 l 1279 576 l 1282 576 q 1312 591 1301 576 l 1331 591 l 1331 599 q 1324 609 1331 605 l 1322 607 l 1322 606 l 1326 597 l 1326 596 l 1312 596 q 1298 614 1302 613 l 1297 614 q 1286 600 1286 614 m 1351 597 l 1351 596 q 1359 588 1351 588 l 1362 588 q 1373 595 1369 588 l 1373 601 q 1367 614 1371 614 l 1364 614 q 1351 597 1355 614 m 566 612 l 566 607 l 570 607 q 581 597 581 607 l 580 596 l 562 596 l 562 591 l 587 591 l 587 597 q 570 612 587 610 l 566 612 m 657 611 l 654 607 q 659 596 657 607 l 659 593 q 643 581 659 587 l 643 580 l 647 576 q 665 596 665 585 q 657 611 663 608 m 918 611 l 915 607 q 920 596 918 607 l 920 593 q 904 581 920 587 l 904 580 l 907 576 q 926 591 916 578 l 948 591 l 948 599 q 941 609 948 605 l 939 607 l 939 606 l 943 597 l 942 596 l 928 596 q 922 608 926 597 l 918 611 m 1042 596 l 1022 596 l 1022 591 l 1029 591 l 1029 589 q 1014 583 1023 583 l 1009 583 q 1004 591 1004 585 l 1007 600 l 1006 600 q 1000 587 1000 594 q 1011 576 1002 576 l 1015 576 q 1037 591 1027 576 q 1052 595 1046 591 l 1053 595 q 1065 591 1058 591 l 1080 591 l 1080 599 q 1073 609 1080 605 l 1070 607 l 1070 606 l 1075 597 l 1074 596 l 1065 596 l 1063 597 l 1062 596 l 1061 596 q 1057 600 1057 598 l 1057 606 l 1058 611 q 1048 599 1050 611 l 1042 596 m 302 596 q 319 588 305 588 l 342 591 l 342 596 q 334 609 340 609 l 333 608 l 333 606 l 337 597 q 315 594 337 595 q 307 600 309 594 l 310 609 l 307 609 q 302 596 304 609 m 532 606 q 538 593 538 597 q 527 584 535 584 l 526 584 q 516 587 517 584 l 516 589 l 517 597 l 514 600 l 513 600 l 511 589 l 511 586 q 523 578 516 578 l 526 578 q 543 591 543 581 l 543 594 q 536 609 543 603 l 532 606 m 1133 610 l 1134 610 l 1139 606 l 1139 603 l 1129 602 l 1128 603 l 1128 604 q 1133 610 1131 610 m 1236 596 q 1253 588 1239 588 l 1276 591 l 1276 596 q 1267 609 1275 609 l 1267 608 l 1267 606 l 1272 597 q 1249 594 1272 595 q 1241 600 1243 594 l 1244 609 l 1241 609 q 1236 596 1238 609 m 269 608 l 271 608 q 276 600 276 604 l 267 597 l 264 600 q 269 608 267 608 m 467 608 l 468 608 l 473 603 q 467 596 471 598 l 450 596 l 448 599 q 467 608 458 608 m 736 608 l 736 608 q 743 600 743 604 l 733 597 l 731 600 q 736 608 734 608 m 802 608 l 804 608 l 806 606 l 806 604 q 797 597 802 597 l 795 599 q 802 608 800 607 m 890 608 l 891 608 q 897 600 897 604 l 888 597 l 886 600 q 890 608 888 608 m 968 608 l 969 608 q 975 600 975 604 l 965 597 l 963 600 q 968 608 966 608 m 1295 608 l 1297 608 q 1303 597 1303 603 l 1302 596 l 1301 596 q 1291 602 1291 597 q 1295 608 1293 608 m 1364 608 l 1364 608 l 1367 606 l 1367 597 l 1364 594 l 1358 594 l 1356 596 q 1364 608 1358 605 m 1458 608 l 1463 608 q 1465 604 1465 608 q 1461 600 1463 600 l 1461 600 l 1455 604 l 1458 608 m 1470 607 l 1472 607 q 1479 599 1474 607 l 1479 597 l 1477 595 q 1468 599 1468 596 l 1470 607 m 1181 606 l 1185 606 q 1190 595 1187 606 l 1188 594 q 1177 600 1177 597 q 1181 606 1179 605 m 1430 606 l 1433 606 q 1438 595 1436 606 l 1436 594 q 1425 600 1425 597 q 1430 606 1427 605 m 1518 604 l 1520 597 l 1512 594 l 1510 595 l 1509 595 q 1518 604 1509 599 m 186 587 l 186 586 l 189 583 l 193 586 q 189 591 191 591 l 186 587 m 205 587 l 205 586 l 208 583 l 212 586 l 208 591 l 205 587 m 223 587 l 223 586 l 227 583 l 230 586 l 227 591 l 223 587 m 795 591 l 797 591 q 810 585 810 589 l 810 584 l 807 581 l 806 581 q 795 591 795 581 m 692 581 l 692 580 l 695 576 l 697 580 l 694 584 l 692 581 m 933 580 l 937 576 l 940 581 l 937 584 l 933 580 m 941 580 l 945 576 l 948 580 l 945 584 l 941 580 m 1321 581 l 1321 580 l 1324 576 l 1326 580 l 1323 584 l 1321 581 m 1543 581 l 1543 580 l 1546 576 l 1548 580 l 1545 584 l 1543 581 m 941 71 l 941 71 q 954 62 947 62 q 962 71 958 62 l 964 71 q 968 66 968 69 l 968 62 q 956 41 968 46 l 956 41 l 956 29 q 949 6 954 6 l 948 6 q 941 36 945 6 l 932 55 q 941 71 938 69 m 988 67 l 995 67 q 997 64 997 67 q 993 59 997 59 l 987 58 l 987 52 l 993 52 l 994 50 l 994 45 l 993 44 l 987 44 l 987 12 l 985 11 l 979 11 l 977 12 l 977 44 l 973 44 l 972 45 l 972 50 l 973 52 l 977 52 l 977 53 q 988 67 977 67 m 874 66 l 880 66 l 882 65 l 882 58 l 880 57 l 874 57 l 873 58 l 873 65 l 874 66 m 1109 66 l 1115 66 l 1116 65 l 1116 58 l 1115 57 l 1109 57 l 1107 58 l 1107 65 l 1109 66 m 909 53 l 912 53 q 925 37 925 53 l 925 12 l 924 11 l 917 11 l 916 12 l 916 33 q 909 45 916 45 q 900 31 900 45 l 900 12 l 899 11 l 892 11 l 891 12 l 891 50 l 892 52 l 898 52 q 899 48 899 52 q 909 53 904 53 m 1014 53 l 1018 53 q 1032 41 1032 53 l 1032 23 q 1034 12 1032 17 l 1034 11 l 1027 11 l 1024 14 q 1010 10 1018 10 q 996 22 996 10 l 996 23 q 1017 37 996 35 l 1023 37 l 1023 39 q 1016 45 1023 45 l 1014 45 q 1005 37 1008 45 l 997 39 q 1014 53 1000 53 m 1057 53 l 1058 53 q 1065 50 1065 52 l 1065 49 q 1061 42 1063 42 l 1057 43 q 1051 33 1051 43 l 1051 12 l 1050 11 l 1043 11 l 1042 12 l 1042 50 l 1043 52 l 1049 52 q 1050 50 1050 52 q 1057 53 1054 53 m 1080 53 l 1084 53 q 1099 40 1099 53 l 1090 39 q 1084 45 1089 45 l 1082 45 q 1076 42 1077 45 l 1076 40 q 1095 33 1078 38 q 1100 24 1100 28 l 1100 24 q 1084 10 1100 12 l 1083 10 q 1066 24 1066 12 l 1066 24 q 1074 26 1066 26 q 1084 18 1076 18 q 1091 24 1091 18 q 1073 31 1091 26 q 1067 39 1067 35 l 1067 41 q 1080 53 1067 51 m 1167 53 q 1181 39 1181 50 l 1176 37 l 1175 37 q 1171 43 1173 37 l 1165 45 q 1156 35 1156 45 l 1156 28 q 1164 18 1156 20 q 1174 28 1172 18 l 1175 28 q 1182 26 1182 27 q 1164 10 1182 12 l 1163 10 q 1146 31 1149 10 l 1146 32 q 1163 53 1148 53 l 1167 53 m 1202 53 l 1204 53 q 1223 33 1221 53 l 1223 32 q 1213 12 1223 17 q 1204 10 1209 10 q 1185 29 1185 12 l 1185 35 q 1202 53 1188 53 m 1248 53 l 1251 53 q 1260 47 1256 53 q 1271 53 1265 53 l 1274 53 q 1285 36 1285 53 l 1285 12 l 1284 11 l 1278 11 l 1276 12 l 1276 35 q 1270 45 1276 45 q 1263 36 1263 45 l 1263 12 l 1261 11 l 1255 11 l 1253 12 l 1253 39 q 1247 45 1253 45 q 1240 33 1240 45 l 1240 12 l 1238 11 l 1232 11 l 1230 12 l 1230 50 l 1232 52 l 1238 52 q 1239 49 1239 52 q 1248 53 1244 53 m 635 52 q 644 26 638 52 q 652 51 645 26 l 652 52 l 659 52 q 667 27 661 51 l 667 27 q 676 52 672 45 l 691 52 q 699 26 694 52 q 707 51 701 26 l 708 52 l 715 52 q 722 27 716 51 l 723 27 q 731 52 728 45 l 746 52 q 754 26 749 52 q 762 51 755 26 l 762 52 l 770 52 q 777 27 771 51 l 778 27 q 786 52 783 45 l 792 52 l 793 50 q 780 11 781 12 l 774 11 q 766 36 772 12 l 765 36 q 758 11 760 11 l 751 11 q 739 50 749 12 l 739 50 q 725 11 727 11 l 719 11 q 711 36 717 12 l 711 36 q 703 11 705 11 l 696 11 q 684 50 694 12 l 683 50 q 669 11 671 11 l 663 11 q 656 36 661 12 l 655 36 q 648 11 650 11 l 641 11 q 628 51 640 13 l 629 52 l 635 52 m 820 52 q 828 26 823 52 q 836 51 829 26 l 837 52 l 844 52 q 851 27 845 51 l 852 27 q 861 52 857 45 l 867 52 l 868 50 q 854 11 856 12 l 848 11 q 840 36 846 12 l 840 36 q 832 11 834 11 l 825 11 q 812 51 824 13 l 813 52 l 820 52 m 874 52 l 880 52 l 882 50 l 882 12 l 880 11 l 874 11 l 873 12 l 873 50 l 874 52 m 1109 52 l 1115 52 l 1116 50 l 1116 12 l 1115 11 l 1109 11 l 1107 12 l 1107 50 l 1109 52 m 1194 34 l 1194 29 q 1204 18 1195 18 q 1214 31 1213 18 q 1204 45 1213 45 q 1194 34 1194 45 m 1006 24 l 1006 20 q 1010 18 1007 18 l 1014 18 q 1023 28 1022 18 l 1023 30 q 1006 24 1006 27 m 798 21 l 805 21 l 806 20 l 806 12 l 805 11 l 798 11 l 796 12 l 796 20 l 798 21 m 1129 21 l 1136 21 l 1137 20 l 1137 12 l 1136 11 l 1129 11 l 1128 12 l 1128 20 l 1129 21 z "},"´":{"ha":174,"x_min":0,"x_max":0,"o":""},"¨":{"ha":585,"x_min":0,"x_max":0,"o":""},"¬":{"ha":632,"x_min":120,"x_max":661,"o":"m 120 346 l 131 400 l 661 400 l 614 168 l 552 168 l 587 346 l 120 346 z "},"ƒ":{"ha":460,"x_min":73,"x_max":583,"o":"m 107 -157 l 142 -12 l 194 247 l 73 247 l 79 277 l 199 277 l 202 290 q 314 470 224 397 q 516 542 404 542 q 583 532 555 542 l 518 460 q 436 494 483 494 q 310 347 339 494 l 296 277 l 422 277 l 416 247 l 290 247 l 212 -144 l 107 -157 z "},"…":{"ha":1239,"x_min":143,"x_max":1068,"o":"m 514 77 q 549 166 514 98 q 594 241 584 235 q 654 209 615 250 q 696 143 693 167 q 663 54 696 113 q 616 -5 630 -5 q 577 18 610 -5 q 528 54 545 41 q 514 77 514 65 m 887 77 q 922 166 887 98 q 967 241 956 235 q 1027 209 988 250 q 1068 143 1066 167 q 1036 54 1068 113 q 989 -5 1003 -5 q 950 18 983 -5 q 901 54 918 41 q 887 77 887 65 m 143 77 q 178 166 143 98 q 223 241 212 235 q 283 209 244 250 q 324 143 322 167 q 292 54 324 113 q 245 -5 259 -5 q 206 18 239 -5 q 157 54 174 41 q 143 77 143 65 z "},"–":{"ha":294,"x_min":0,"x_max":294,"o":"m 294 104 l 0 104 l 0 159 l 294 159 l 294 104 z "},"—":{"ha":1263,"x_min":-3,"x_max":1265,"o":"m 1265 388 l -3 388 l -3 496 l 1265 496 l 1265 388 z "},"“":{"ha":541,"x_min":75,"x_max":450,"o":"m 283 749 q 328 872 286 811 q 421 957 370 932 l 450 900 q 415 869 436 892 q 383 811 395 846 q 444 732 446 783 q 438 703 444 717 q 421 677 432 688 q 396 661 410 667 q 367 654 382 654 q 332 663 347 654 q 306 685 317 671 q 289 715 295 698 q 283 749 283 732 m 75 749 q 120 872 78 811 q 212 957 161 932 l 241 900 q 207 869 228 892 q 175 811 186 846 q 236 732 237 783 q 230 703 236 717 q 213 677 223 688 q 188 661 202 667 q 158 654 174 654 q 124 663 139 654 q 98 685 109 671 q 81 715 87 698 q 75 749 75 732 z "},"”":{"ha":509,"x_min":75,"x_max":450,"o":"m 241 865 q 198 743 240 803 q 104 657 157 682 l 75 713 q 111 744 90 721 q 142 803 132 767 q 82 882 79 829 q 88 912 82 898 q 104 936 94 926 q 129 952 115 946 q 158 958 142 958 q 193 950 178 958 q 219 929 209 942 q 236 899 230 916 q 241 865 241 882 m 450 865 q 407 743 449 803 q 313 657 366 682 l 283 713 q 319 744 298 721 q 350 803 340 767 q 290 882 288 829 q 296 912 290 898 q 313 936 302 926 q 337 952 323 946 q 367 958 351 958 q 402 950 387 958 q 428 929 418 942 q 445 899 439 916 q 450 865 450 882 z "},"÷":{"ha":741,"x_min":106,"x_max":633,"o":"m 423 457 l 316 457 l 316 580 l 423 580 l 423 457 m 633 260 l 106 260 l 106 332 l 633 332 l 633 260 m 423 12 l 316 12 l 316 134 l 423 134 l 423 12 z "},"◊":{"ha":758,"x_min":79,"x_max":680,"o":"m 680 474 l 380 134 l 79 474 l 380 815 l 680 474 m 575 474 l 380 703 l 184 474 l 380 247 l 575 474 z "},"⁄":{"ha":503,"x_min":-6,"x_max":502,"o":"m 502 747 l 68 -56 l -6 -56 l 427 747 l 502 747 z "},"‹":{"ha":758,"x_min":102,"x_max":648,"o":"m 648 39 l 102 301 l 102 362 l 648 623 l 648 532 l 224 332 l 648 130 l 648 39 z "},"":{"ha":741,"x_min":0,"x_max":0,"o":""},"":{"ha":736,"x_min":0,"x_max":0,"o":""},"‡":{"ha":632,"x_min":109,"x_max":637,"o":"m 237 -157 l 326 125 l 109 104 l 143 177 l 332 155 l 385 418 l 168 397 l 201 470 l 390 448 l 412 723 l 514 741 l 420 448 l 637 470 l 603 397 l 414 418 l 363 155 l 580 177 l 545 104 l 356 125 l 338 -144 l 237 -157 z "},"∙":{"ha":420,"x_min":129,"x_max":291,"o":"m 291 350 l 129 350 l 129 535 l 291 535 l 291 350 z "},"‚":{"ha":283,"x_min":24,"x_max":239,"o":"m 70 87 l 168 157 l 239 61 q 178 -91 234 -38 q 24 -144 122 -144 l 52 -114 q 143 -12 128 -107 l 70 87 z "},"„":{"ha":464,"x_min":21,"x_max":408,"o":"m 62 62 l 138 121 l 198 43 q 21 -144 183 -144 l 41 -114 q 121 -11 113 -100 l 62 62 m 272 62 l 350 121 l 408 43 q 231 -144 394 -144 l 252 -114 q 332 -11 323 -100 l 272 62 z "},"‰":{"ha":1065,"x_min":89,"x_max":1124,"o":"m 261 361 q 173 396 206 361 q 139 490 139 431 q 194 655 139 587 q 328 723 250 723 q 419 688 385 723 q 453 595 453 653 q 397 429 453 497 q 261 361 341 361 m 211 485 q 270 392 211 392 q 351 455 314 392 q 387 597 387 519 q 328 693 387 693 q 247 629 282 693 q 211 485 211 566 m 576 0 q 488 35 522 0 q 454 128 454 70 q 509 293 454 224 q 642 361 564 361 q 733 327 699 361 q 768 233 768 292 q 712 68 768 136 q 576 0 656 0 m 526 123 q 585 30 526 30 q 666 94 630 30 q 702 236 702 157 q 643 332 702 332 q 562 268 597 332 q 526 123 526 204 m 89 -18 l 753 741 l 818 741 l 153 -18 l 89 -18 m 933 0 q 844 35 878 0 q 810 128 810 70 q 866 293 810 224 q 999 361 921 361 q 1090 327 1056 361 q 1124 233 1124 292 q 1068 68 1124 136 q 933 0 1013 0 m 882 124 q 942 30 882 30 q 1022 94 985 30 q 1059 235 1059 157 q 999 332 1059 332 q 918 268 954 332 q 882 124 882 204 z "},"ˆ":{"ha":585,"x_min":0,"x_max":0,"o":""},"¸":{"ha":585,"x_min":0,"x_max":0,"o":""},"×":{"ha":1000,"x_min":172,"x_max":802,"o":"m 802 217 l 738 152 l 487 405 l 236 152 l 172 217 l 424 467 l 172 718 l 236 783 l 487 530 l 738 783 l 802 718 l 550 467 l 802 217 z "},"¯":{"ha":758,"x_min":-11,"x_max":769,"o":"m 769 854 l -11 854 l -11 942 l 769 942 l 769 854 z "},"·":{"ha":491,"x_min":165,"x_max":327,"o":"m 327 564 l 165 564 l 165 758 l 327 758 l 327 564 z "},"□":{"ha":839,"x_min":99,"x_max":739,"o":"m 99 640 l 739 640 l 739 0 l 99 0 l 99 640 m 151 589 l 151 52 l 688 52 l 688 589 l 151 589 z "},"▪":{"ha":739,"x_min":130,"x_max":601,"o":"m 601 606 l 601 136 l 130 136 l 130 606 l 601 606 z "},"▫":{"ha":739,"x_min":131,"x_max":602,"o":"m 602 631 l 602 159 l 131 159 l 131 631 l 602 631 m 525 553 l 208 553 l 208 237 l 525 237 l 525 553 z "},"●":{"ha":908,"x_min":138,"x_max":791,"o":"m 138 526 q 234 758 138 662 q 465 853 330 853 q 696 758 600 853 q 791 526 791 662 q 696 296 791 391 q 465 200 600 200 q 234 296 330 200 q 138 526 138 391 z "},"◦":{"ha":739,"x_min":114,"x_max":625,"o":"m 369 944 q 550 869 475 944 q 625 688 625 794 q 550 508 625 583 q 369 433 475 433 q 189 508 263 433 q 114 688 114 583 q 188 869 114 794 q 369 944 262 944 m 369 867 q 243 814 295 867 q 191 688 191 762 q 243 563 191 614 q 369 511 296 511 q 495 563 442 511 q 547 688 547 614 q 495 814 547 762 q 369 867 444 867 z "},"￼":{"ha":1389,"x_min":0,"x_max":1389,"o":"m 1389 780 l 1321 780 l 1321 931 l 1170 931 l 1170 999 l 1389 999 l 1389 780 m 999 931 l 780 931 l 780 999 l 999 999 l 999 931 m 1389 390 l 1321 390 l 1321 609 l 1389 609 l 1389 390 m 1208 414 q 1065 251 1208 251 q 972 281 1007 251 l 1021 335 q 1065 317 1038 317 q 1130 411 1130 317 l 1130 739 l 1208 739 l 1208 414 m 609 931 l 390 931 l 390 999 l 609 999 l 609 931 m 1389 0 l 1170 0 l 1170 68 l 1321 68 l 1321 219 l 1389 219 l 1389 0 m 965 401 q 779 259 965 259 l 616 259 l 616 739 l 776 739 q 945 613 945 739 q 884 515 945 551 q 965 401 965 484 m 219 931 l 68 931 l 68 780 l 0 780 l 0 999 l 219 999 l 219 931 m 999 0 l 780 0 l 780 68 l 999 68 l 999 0 m 579 498 q 524 316 579 381 q 364 251 468 251 q 206 316 260 251 q 151 498 151 381 q 206 682 151 617 q 364 747 260 747 q 524 682 468 747 q 579 498 579 617 m 68 390 l 0 390 l 0 609 l 68 609 l 68 390 m 609 0 l 390 0 l 390 68 l 609 68 l 609 0 m 219 0 l 0 0 l 0 219 l 68 219 l 68 68 l 219 68 l 219 0 m 866 606 q 755 673 866 673 l 695 673 l 695 541 l 764 541 q 866 606 866 541 m 886 401 q 770 475 886 475 l 695 475 l 695 326 l 779 326 q 886 401 886 326 m 500 498 q 364 681 500 681 q 230 498 230 681 q 364 317 230 317 q 500 498 500 317 z "},"̀":{"ha":623,"x_min":0,"x_max":0,"o":"z "},"́":{"ha":0,"x_min":0,"x_max":0,"o":"z "},"װ":{"ha":761,"x_min":0,"x_max":0,"o":""},"ױ":{"ha":761,"x_min":0,"x_max":0,"o":""},"ײ":{"ha":761,"x_min":0,"x_max":0,"o":""},"׳":{"ha":293,"x_min":0,"x_max":0,"o":""},"״":{"ha":557,"x_min":0,"x_max":0,"o":""},"ﬠ":{"ha":901,"x_min":0,"x_max":0,"o":""},"אַ":{"ha":935,"x_min":0,"x_max":0,"o":""},"אָ":{"ha":935,"x_min":0,"x_max":0,"o":""},"אּ":{"ha":935,"x_min":0,"x_max":0,"o":""},"ףּ":{"ha":920,"x_min":0,"x_max":0,"o":""},"רּ":{"ha":791,"x_min":0,"x_max":0,"o":""},"בֿ":{"ha":888,"x_min":0,"x_max":0,"o":""},"כֿ":{"ha":863,"x_min":0,"x_max":0,"o":""},"פֿ":{"ha":905,"x_min":0,"x_max":0,"o":""},"ﭏ":{"ha":948,"x_min":0,"x_max":0,"o":""},"‌":{"ha":0,"x_min":-24,"x_max":24,"o":"m 24 874 l 24 -186 l -24 -186 l -24 874 l 24 874 z "},"‍":{"ha":0,"x_min":-149,"x_max":149,"o":"m 24 -186 l -24 -186 l -24 755 l -115 663 l -149 696 l -33 811 l -149 925 l -115 958 l 0 842 l 115 958 l 149 925 l 33 811 l 149 696 l 115 663 l 24 755 l 24 -186 z "},"‎":{"ha":0,"x_min":-24,"x_max":292,"o":"m 292 812 l 144 667 l 111 701 l 204 789 l 24 789 l 24 -186 l -24 -186 l -24 837 l 204 837 l 111 925 l 144 958 l 292 812 z "},"‏":{"ha":0,"x_min":-292,"x_max":24,"o":"m 24 -186 l -24 -186 l -24 789 l -205 789 l -112 701 l -145 667 l -292 812 l -145 958 l -112 925 l -205 837 l 24 837 l 24 -186 z "},"٬":{"ha":239,"x_min":95,"x_max":184,"o":"m 142 444 q 125 409 136 425 q 118 402 122 405 q 110 400 113 400 q 105 402 106 400 q 105 409 103 404 q 137 484 127 448 q 148 543 148 520 q 121 553 132 547 q 105 568 111 560 q 97 583 99 576 q 95 593 95 589 q 99 615 95 604 q 109 636 102 627 q 124 651 115 645 q 144 656 134 656 q 184 593 184 656 q 182 566 184 583 q 174 530 179 550 q 160 488 168 510 q 142 444 153 466 z "},"ء":{"ha":520,"x_min":243,"x_max":453,"o":"m 307 -22 q 323 15 323 -3 q 314 48 323 32 q 290 79 304 64 q 264 110 276 94 q 248 143 253 126 q 253 180 243 160 q 259 190 253 180 q 274 214 264 199 q 296 247 283 229 q 321 281 308 264 q 346 313 334 298 q 369 335 359 328 q 387 342 380 343 q 395 328 393 341 q 370 290 376 309 q 368 255 365 272 q 382 222 372 237 q 405 193 393 206 q 428 171 416 180 q 445 155 439 161 q 448 128 453 148 q 430 85 443 109 q 400 37 418 61 q 364 -4 382 13 q 330 -28 346 -22 q 307 -22 315 -34 z "},"ـ":{"ha":132,"x_min":-12,"x_max":149,"o":"m 132 167 q 145 124 142 146 q 148 80 149 102 q 142 37 146 58 q 132 0 138 17 l 0 0 q -8 40 -5 18 q -11 84 -11 62 q -9 127 -12 106 q 0 167 -6 149 l 132 167 z "},"ٍ":{"ha":0,"x_min":-129,"x_max":107,"o":"m 75 50 q 33 36 60 43 q -22 22 7 29 q -79 10 -52 16 q -123 0 -106 4 q -127 1 -125 -1 q -127 5 -129 2 q -121 15 -125 11 q -114 25 -117 20 q -109 36 -111 30 q -106 50 -106 42 q -105 53 -106 52 q -101 54 -104 54 q -72 60 -90 56 q -33 69 -54 64 q 8 80 -13 75 q 48 91 30 85 q 79 100 66 96 q 96 107 92 104 q 101 100 107 113 q 75 50 95 87 m 75 -24 q 33 -38 60 -31 q -22 -52 7 -45 q -79 -65 -52 -59 q -123 -75 -106 -71 q -127 -74 -125 -75 q -127 -69 -129 -73 q -121 -59 -125 -64 q -114 -50 -117 -55 q -109 -39 -111 -45 q -106 -24 -106 -33 q -105 -22 -106 -23 q -101 -20 -104 -20 q -72 -15 -90 -18 q -33 -5 -54 -11 q 8 5 -13 0 q 48 16 30 11 q 79 26 66 22 q 96 33 92 30 q 101 25 107 38 q 75 -24 95 13 z "},"٪":{"ha":715,"x_min":117,"x_max":642,"o":"m 291 7 q 280 -24 286 -11 l 193 -24 q 509 836 502 815 l 588 836 l 291 7 m 117 686 q 124 724 117 706 q 145 755 132 742 q 176 776 158 768 q 214 784 193 784 q 252 776 234 784 q 282 755 269 768 q 303 724 296 742 q 311 686 311 706 q 303 648 311 665 q 282 617 296 630 q 252 596 269 604 q 214 589 234 589 q 176 596 193 589 q 145 617 158 604 q 124 648 132 630 q 117 686 117 665 m 447 109 q 454 148 447 130 q 475 179 462 165 q 506 199 488 192 q 544 207 524 207 q 582 199 564 207 q 613 179 600 192 q 634 148 627 165 q 642 109 642 130 q 634 71 642 89 q 613 40 627 54 q 582 20 600 27 q 544 12 564 12 q 506 20 524 12 q 475 40 488 27 q 454 71 462 54 q 447 109 447 89 z "},"٫":{"ha":868,"x_min":104,"x_max":780,"o":"m 104 -459 l 680 443 l 780 443 l 205 -459 l 104 -459 z "},"٭":{"ha":758,"x_min":43,"x_max":717,"o":"m 471 494 l 717 497 l 717 414 l 476 415 l 659 239 l 599 179 l 418 366 l 422 114 l 338 114 l 340 366 l 160 179 l 100 239 l 286 416 l 43 414 l 43 497 l 285 494 l 115 661 l 175 722 l 340 554 l 338 798 l 422 798 l 418 551 l 583 722 l 643 661 l 471 494 z "},"ە":{"ha":678,"x_min":159,"x_max":625,"o":"m 592 621 q 599 508 593 569 q 610 386 604 448 q 621 264 616 324 q 625 156 625 205 q 618 71 625 106 q 594 20 611 35 q 561 6 585 12 q 506 -1 537 1 q 439 -3 475 -3 q 373 1 404 -3 q 289 23 328 5 q 221 68 250 41 q 175 131 192 96 q 159 208 159 167 q 169 271 159 239 q 198 332 179 302 q 266 406 229 375 q 339 459 302 436 q 412 499 376 481 q 478 535 448 517 q 531 573 508 553 q 564 621 553 593 q 581 634 572 636 q 592 621 591 631 m 450 161 q 451 179 452 168 q 446 195 451 191 q 437 196 444 197 q 423 190 430 195 q 411 177 416 185 q 409 157 406 168 q 420 156 414 156 q 433 156 427 155 q 444 158 439 156 q 450 161 448 159 z "},"":{"ha":0,"x_min":-106,"x_max":107,"o":"m -78 106 q -75 85 -80 96 q -61 71 -71 75 q -39 71 -52 66 q -12 94 -26 75 q -4 100 -9 100 q 5 94 2 100 q 17 77 7 84 q 38 68 26 69 q 59 76 49 67 q 74 106 70 84 q 79 111 75 111 q 86 107 83 111 q 96 53 100 77 q 78 15 93 28 q 42 2 64 1 q -3 24 20 3 q -46 2 -24 3 q -83 13 -68 1 q -101 50 -98 26 q -90 106 -105 75 q -82 112 -87 113 q -78 106 -77 111 m 75 257 q 37 244 60 250 q -11 232 14 237 q -59 221 -35 226 q -100 212 -83 216 q -104 212 -102 211 q -104 217 -106 214 q -98 227 -102 222 q -91 236 -94 231 q -86 248 -88 241 q -83 262 -83 254 q -82 264 -83 263 q -78 266 -81 266 q -34 275 -61 269 q 20 289 -7 281 q 68 303 47 296 q 96 314 90 311 q 101 307 107 319 q 75 257 95 294 m 75 182 q 37 169 60 176 q -11 157 14 163 q -59 146 -35 151 q -100 137 -83 141 q -104 138 -102 136 q -104 142 -106 139 q -98 152 -102 148 q -91 162 -94 157 q -86 173 -88 167 q -83 187 -83 179 q -82 190 -83 189 q -78 191 -81 191 q -34 200 -61 194 q 20 214 -7 207 q 68 229 47 222 q 96 239 90 236 q 101 232 107 245 q 75 182 95 220 z "},"ﭭ":{"ha":590,"x_min":-83,"x_max":604,"o":"m 0 0 q -6 42 -3 21 q -10 84 -9 63 q -9 126 -11 106 q 0 167 -7 147 q 3 166 1 167 q 8 167 4 165 q -44 216 -23 186 q -74 283 -65 247 q -79 358 -83 319 q -57 433 -75 397 q -11 502 -38 471 q 50 554 17 532 q 118 588 82 576 q 191 600 155 600 q 307 576 258 600 q 387 513 355 553 q 437 420 419 473 q 465 309 456 367 q 476 264 467 286 q 501 222 486 241 q 539 188 517 203 q 590 167 561 174 q 602 118 600 144 q 602 68 604 92 q 596 26 600 45 q 590 0 593 8 l 0 0 m 264 356 q 253 351 258 356 q 247 339 249 346 q 247 326 245 332 q 254 316 248 319 q 268 312 260 313 q 283 313 275 312 q 296 316 290 314 q 301 322 301 319 q 299 331 301 326 q 292 342 296 337 q 280 352 288 348 q 264 356 273 356 m 87 722 q 101 755 87 741 q 135 769 115 769 q 169 755 155 769 q 182 722 182 741 q 169 688 182 702 q 135 673 155 673 q 101 688 115 673 q 87 722 87 702 m 182 722 q 196 755 182 741 q 230 769 210 769 q 264 755 250 769 q 278 722 278 741 q 264 688 278 702 q 230 673 250 673 q 196 688 210 673 q 182 722 182 702 m 134 814 q 148 848 134 834 q 182 862 162 862 q 216 848 201 862 q 230 814 230 834 q 216 781 230 795 q 182 766 201 766 q 148 781 162 766 q 134 814 134 795 z "},"ﭫ":{"ha":1794,"x_min":211,"x_max":1808,"o":"m 1015 0 q 808 3 914 0 q 598 10 701 5 q 400 21 495 14 q 228 35 305 27 q 217 39 222 35 q 212 46 213 42 q 215 56 211 51 q 228 64 218 60 q 296 92 264 75 q 355 128 328 109 q 404 169 382 148 q 444 210 427 190 q 459 216 450 216 q 476 212 467 216 q 539 196 505 203 q 615 181 573 189 q 708 170 656 174 q 815 163 760 165 q 928 160 871 161 q 1036 159 985 159 l 1211 159 q 1160 210 1181 178 q 1131 279 1139 241 q 1125 357 1122 317 q 1147 433 1129 397 q 1194 502 1166 471 q 1254 554 1221 532 q 1323 588 1286 576 q 1396 600 1359 600 q 1511 576 1463 600 q 1592 513 1560 553 q 1644 420 1625 473 q 1671 309 1662 367 q 1709 220 1680 258 q 1794 167 1738 182 q 1806 118 1804 144 q 1806 68 1808 92 q 1801 26 1805 45 q 1794 0 1797 8 l 1015 0 m 1469 356 q 1458 351 1462 356 q 1452 339 1453 346 q 1451 326 1450 332 q 1459 316 1453 319 q 1472 312 1464 313 q 1487 313 1480 312 q 1500 316 1495 314 q 1506 322 1506 319 q 1503 331 1506 326 q 1496 342 1501 337 q 1485 352 1492 348 q 1469 356 1478 356 m 1261 703 q 1275 737 1261 723 q 1309 751 1289 751 q 1342 737 1329 751 q 1356 703 1356 723 q 1342 669 1356 684 q 1309 655 1329 655 q 1275 669 1289 655 q 1261 703 1261 684 m 1356 703 q 1370 737 1356 723 q 1404 751 1384 751 q 1438 737 1423 751 q 1452 703 1452 723 q 1438 669 1452 684 q 1404 655 1423 655 q 1370 669 1384 655 q 1356 703 1356 684 m 1308 796 q 1322 830 1308 816 q 1356 844 1336 844 q 1390 830 1375 844 q 1404 796 1404 816 q 1390 762 1404 777 q 1356 748 1375 748 q 1322 762 1336 748 q 1308 796 1308 777 z "},"ﭬ":{"ha":476,"x_min":-93,"x_max":464,"o":"m 0 0 q -7 43 -3 22 q -11 85 -10 64 q -10 127 -12 106 q 0 167 -7 147 q 67 157 33 159 q 135 158 101 155 q 199 168 168 161 q 256 185 231 175 q 262 199 264 189 q 252 218 260 209 q 195 196 229 205 q 122 185 161 187 q 45 188 83 182 q -24 211 7 194 q -74 258 -54 228 q -93 334 -93 288 q -84 404 -93 368 q -58 475 -75 440 q -18 541 -41 510 q 33 595 5 572 q 95 632 62 618 q 163 646 127 646 q 256 621 214 643 q 332 565 298 600 q 390 488 365 531 q 431 398 414 444 q 456 307 448 352 q 464 224 464 262 q 448 142 464 176 q 406 83 433 107 q 342 43 379 58 q 263 18 306 27 q 175 5 221 9 q 83 0 129 1 l 0 0 m 153 380 q 142 377 146 380 q 135 368 137 373 q 135 357 133 363 q 144 347 137 351 q 155 344 148 345 q 169 345 161 344 q 181 347 176 345 q 186 351 186 349 q 183 358 186 353 q 177 369 181 363 q 167 377 173 374 q 153 380 161 380 m 62 745 q 77 779 62 765 q 111 793 91 793 q 144 779 130 793 q 158 745 158 765 q 144 711 158 726 q 111 697 130 697 q 77 711 91 697 q 62 745 62 726 m 158 745 q 172 779 158 765 q 205 793 186 793 q 239 779 225 793 q 254 745 254 765 q 239 711 254 726 q 205 697 225 697 q 172 711 186 697 q 158 745 158 726 m 110 838 q 124 872 110 858 q 157 886 138 886 q 191 872 177 886 q 205 838 205 858 q 191 804 205 819 q 157 790 177 790 q 124 804 138 790 q 110 838 110 819 z "},"ٓ":{"ha":319,"x_min":64,"x_max":253,"o":"m 92 944 q 68 998 73 975 q 70 1037 64 1021 q 90 1064 76 1053 q 121 1085 104 1076 q 157 1102 139 1094 q 190 1121 176 1111 q 212 1144 204 1131 q 217 1177 220 1158 q 247 1122 240 1145 q 248 1082 253 1099 q 228 1053 243 1065 q 195 1031 214 1040 q 158 1013 177 1021 q 123 995 138 1004 q 98 973 107 985 q 92 944 90 961 z "},"":{"ha":694,"x_min":-47,"x_max":694,"o":"m 694 0 l -47 0 l -47 127 l 694 127 l 694 0 z "},"پ":{"ha":1569,"x_min":134,"x_max":1579,"o":"m 1513 527 q 1520 538 1514 536 q 1531 531 1527 541 q 1553 465 1544 505 q 1567 368 1562 425 q 1575 237 1573 311 q 1579 71 1578 163 q 1573 32 1578 46 q 1559 11 1569 18 q 1533 2 1549 4 q 1493 0 1517 1 l 937 0 q 799 0 870 0 q 656 2 728 1 q 514 5 585 3 q 378 11 444 7 q 255 19 313 14 q 150 31 197 24 q 140 34 144 31 q 135 39 136 36 q 137 46 134 43 q 150 54 140 50 q 218 81 186 64 q 277 116 250 97 q 326 157 304 136 q 366 198 349 178 q 379 204 372 204 q 394 200 387 203 q 512 172 446 181 q 654 160 579 163 q 807 158 728 157 q 958 159 885 159 l 1434 159 q 1434 197 1435 176 q 1429 242 1432 219 q 1419 290 1425 266 q 1406 334 1413 313 q 1407 345 1404 340 q 1416 356 1409 350 q 1450 391 1434 372 q 1479 433 1466 411 q 1500 479 1491 456 q 1513 527 1509 503 m 781 -136 q 795 -102 781 -117 q 829 -88 809 -88 q 862 -102 848 -88 q 876 -136 876 -117 q 862 -170 876 -156 q 829 -184 848 -184 q 795 -170 809 -184 q 781 -136 781 -156 m 876 -136 q 890 -102 876 -117 q 924 -88 904 -88 q 958 -102 943 -88 q 972 -136 972 -117 q 958 -170 972 -156 q 924 -184 943 -184 q 890 -170 904 -184 q 876 -136 876 -156 m 828 -229 q 842 -195 828 -210 q 876 -181 856 -181 q 909 -195 895 -181 q 924 -229 924 -210 q 909 -263 924 -249 q 876 -277 895 -277 q 842 -263 856 -277 q 828 -229 828 -249 z "},"ﭗ":{"ha":1615,"x_min":150,"x_max":1646,"o":"m 1482 519 q 1489 469 1489 498 q 1489 409 1489 441 q 1489 343 1489 377 q 1498 277 1490 309 q 1540 207 1509 233 q 1615 167 1571 180 q 1634 152 1628 165 q 1643 120 1640 138 q 1645 80 1646 101 q 1640 41 1644 59 q 1629 12 1636 24 q 1615 0 1623 0 l 954 0 q 744 1 853 0 q 531 5 635 2 q 332 15 426 9 q 167 31 238 21 q 156 34 160 31 q 151 39 151 36 q 154 46 150 43 q 167 54 157 50 q 235 81 203 64 q 294 116 267 97 q 343 157 321 136 q 383 198 366 178 q 396 204 389 204 q 410 200 402 203 q 529 172 461 181 q 671 160 596 163 q 823 158 745 157 q 975 159 901 159 l 1322 159 q 1334 169 1331 157 q 1337 201 1337 181 q 1335 246 1337 221 q 1330 296 1333 271 q 1323 342 1326 321 q 1319 377 1320 363 q 1318 386 1318 382 q 1323 393 1318 390 q 1346 409 1331 399 q 1379 432 1360 418 q 1418 468 1397 447 q 1459 519 1439 490 q 1473 529 1467 530 q 1482 519 1478 528 m 797 -186 q 811 -153 797 -167 q 845 -138 825 -138 q 879 -153 865 -138 q 892 -186 892 -167 q 879 -220 892 -206 q 845 -234 865 -234 q 811 -220 825 -234 q 797 -186 797 -206 m 892 -186 q 906 -153 892 -167 q 940 -138 920 -138 q 974 -153 960 -138 q 988 -186 988 -167 q 974 -220 988 -206 q 940 -234 960 -234 q 906 -220 920 -234 q 892 -186 892 -206 m 844 -279 q 858 -245 844 -260 q 892 -231 872 -231 q 926 -245 911 -231 q 940 -279 940 -260 q 926 -313 940 -299 q 892 -327 911 -327 q 858 -313 872 -327 q 844 -279 844 -299 z "},"ﭘ":{"ha":112,"x_min":-68,"x_max":155,"o":"m 43 556 q 52 568 46 565 q 62 560 57 570 q 84 490 75 534 q 97 383 92 445 q 104 242 102 321 q 106 71 106 163 q 101 32 106 46 q 86 11 96 18 q 60 2 77 4 q 21 0 44 1 l -53 0 q -59 28 -57 12 q -62 63 -61 45 q -63 99 -63 81 q -61 132 -62 117 q -58 156 -60 146 q -53 167 -56 165 q -44 178 -46 163 q -43 219 -42 193 q -47 275 -44 244 q -54 335 -50 307 q -61 384 -58 363 q -66 412 -64 406 q -66 423 -68 418 q -56 434 -64 428 q -35 453 -47 441 q -8 480 -22 465 q 19 515 5 496 q 43 556 33 534 m -37 -188 q -22 -154 -37 -168 q 12 -140 -8 -140 q 45 -154 31 -140 q 59 -188 59 -168 q 45 -221 59 -208 q 12 -235 31 -235 q -22 -221 -8 -235 q -37 -188 -37 -208 m 59 -188 q 73 -154 59 -168 q 106 -140 87 -140 q 140 -154 126 -140 q 155 -188 155 -168 q 140 -221 155 -208 q 106 -235 126 -235 q 73 -221 87 -235 q 59 -188 59 -208 m 11 -281 q 25 -247 11 -261 q 58 -233 39 -233 q 92 -247 78 -233 q 106 -281 106 -261 q 92 -314 106 -300 q 58 -328 78 -328 q 25 -314 39 -328 q 11 -281 11 -300 z "},"ﭙ":{"ha":247,"x_min":-71,"x_max":283,"o":"m 114 519 q 121 469 121 498 q 121 409 121 441 q 121 343 120 377 q 130 277 122 309 q 172 207 141 233 q 247 167 203 180 q 269 143 261 159 q 280 110 277 128 q 281 72 283 91 q 275 36 279 52 q 262 10 270 20 q 247 0 255 0 l -61 0 q -67 28 -65 12 q -70 63 -69 45 q -71 99 -71 81 q -69 132 -71 117 q -66 156 -68 146 q -61 167 -64 165 q -48 177 -53 165 q -42 207 -44 189 q -41 250 -41 226 q -43 298 -41 274 q -46 342 -44 321 q -49 377 -47 363 q -50 386 -50 382 q -45 393 -50 390 q -22 409 -37 399 q 11 432 -7 418 q 50 468 29 447 q 92 519 71 490 q 104 529 99 530 q 114 519 110 528 m -10 -184 q 4 -151 -10 -165 q 38 -136 18 -136 q 72 -151 58 -136 q 85 -184 85 -165 q 72 -218 85 -204 q 38 -232 58 -232 q 4 -218 18 -232 q -10 -184 -10 -204 m 85 -184 q 99 -151 85 -165 q 133 -136 113 -136 q 167 -151 153 -136 q 181 -184 181 -165 q 167 -218 181 -204 q 133 -232 153 -232 q 99 -218 113 -232 q 85 -184 85 -204 m 37 -277 q 51 -243 37 -258 q 85 -229 65 -229 q 119 -243 104 -229 q 133 -277 133 -258 q 119 -311 133 -297 q 85 -325 104 -325 q 51 -311 65 -325 q 37 -277 37 -297 z "},"ڤ":{"ha":1721,"x_min":195,"x_max":1674,"o":"m 1267 712 q 1281 746 1267 732 q 1315 760 1295 760 q 1349 746 1335 760 q 1362 712 1362 732 q 1349 678 1362 692 q 1315 664 1335 664 q 1281 678 1295 664 q 1267 712 1267 692 m 1362 712 q 1376 746 1362 732 q 1410 760 1390 760 q 1444 746 1430 760 q 1458 712 1458 732 q 1444 678 1458 692 q 1410 664 1430 664 q 1376 678 1390 664 q 1362 712 1362 692 m 1314 805 q 1328 839 1314 825 q 1362 852 1342 852 q 1396 839 1381 852 q 1410 805 1410 825 q 1396 771 1410 785 q 1362 757 1381 757 q 1328 771 1342 757 q 1314 805 1314 785 m 599 181 q 679 171 635 175 q 771 164 723 166 q 870 160 820 161 q 966 159 920 159 l 1457 159 q 1461 163 1460 159 q 1459 172 1461 167 q 1453 183 1457 178 q 1443 189 1449 188 q 1405 184 1429 188 q 1353 179 1381 181 q 1297 177 1325 177 q 1245 181 1268 176 q 1170 212 1198 189 q 1129 267 1142 235 q 1119 338 1117 300 q 1135 416 1121 377 q 1172 492 1148 456 q 1227 557 1196 529 q 1298 603 1259 586 q 1378 621 1336 621 q 1470 597 1429 618 q 1545 544 1512 576 q 1601 468 1577 511 q 1642 381 1626 426 q 1666 292 1657 336 q 1674 208 1674 247 q 1661 140 1674 174 q 1622 79 1648 107 q 1559 31 1596 51 q 1472 4 1521 11 q 1352 0 1416 -1 q 1217 0 1287 0 l 966 0 q 766 3 868 0 q 565 10 663 5 q 376 21 467 14 q 212 35 286 27 q 201 39 205 35 q 196 46 197 42 q 199 56 195 51 q 212 64 202 60 q 280 92 248 75 q 339 128 312 109 q 388 169 366 148 q 428 210 410 190 q 443 216 434 216 q 460 212 452 216 q 523 196 488 203 q 599 181 557 189 m 1374 379 q 1363 376 1368 379 q 1356 367 1358 372 q 1356 356 1354 362 q 1364 344 1358 350 q 1373 342 1367 342 q 1387 342 1380 342 q 1399 344 1394 342 q 1404 348 1404 346 q 1403 356 1404 351 q 1399 367 1402 361 q 1390 375 1396 372 q 1374 379 1383 379 z "},"ڡ":{"ha":1721,"x_min":195,"x_max":1674,"o":"m 599 181 q 679 171 635 175 q 771 164 723 166 q 870 160 820 161 q 966 159 920 159 l 1457 159 q 1461 163 1460 159 q 1459 172 1461 167 q 1453 183 1457 178 q 1443 189 1449 188 q 1405 184 1429 188 q 1353 179 1381 181 q 1297 177 1325 177 q 1245 181 1268 176 q 1170 212 1198 189 q 1129 267 1142 235 q 1119 338 1117 300 q 1135 416 1121 377 q 1172 492 1148 456 q 1227 557 1196 529 q 1298 603 1259 586 q 1378 621 1336 621 q 1470 597 1429 618 q 1545 544 1512 576 q 1601 468 1577 511 q 1642 381 1626 426 q 1666 292 1657 336 q 1674 208 1674 247 q 1661 140 1674 174 q 1622 79 1648 107 q 1559 31 1596 51 q 1472 4 1521 11 q 1352 0 1416 -1 q 1217 0 1287 0 l 966 0 q 766 3 868 0 q 565 10 663 5 q 376 21 467 14 q 212 35 286 27 q 201 39 205 35 q 196 46 197 42 q 199 56 195 51 q 212 64 202 60 q 280 92 248 75 q 339 128 312 109 q 388 169 366 148 q 428 210 410 190 q 443 216 434 216 q 460 212 452 216 q 523 196 488 203 q 599 181 557 189 m 1374 379 q 1363 376 1368 379 q 1356 367 1358 372 q 1356 356 1354 362 q 1364 344 1358 350 q 1373 342 1367 342 q 1387 342 1380 342 q 1399 344 1394 342 q 1404 348 1404 346 q 1403 356 1404 351 q 1399 367 1402 361 q 1390 375 1396 372 q 1374 379 1383 379 z "},"چ":{"ha":1139,"x_min":142,"x_max":1183,"o":"m 595 -181 q 607 -154 595 -165 q 634 -142 618 -142 q 661 -154 650 -142 q 672 -181 672 -165 q 661 -208 672 -197 q 634 -219 650 -219 q 607 -208 618 -219 q 595 -181 595 -197 m 672 -181 q 683 -154 672 -165 q 710 -142 695 -142 q 738 -154 726 -142 q 749 -181 749 -165 q 738 -208 749 -197 q 710 -219 726 -219 q 683 -208 695 -219 q 672 -181 672 -197 m 634 -256 q 645 -228 634 -240 q 672 -217 656 -217 q 699 -228 687 -217 q 710 -256 710 -240 q 699 -283 710 -271 q 672 -294 687 -294 q 645 -283 656 -294 q 634 -256 634 -271 m 1164 127 q 1182 118 1181 125 q 1173 102 1183 112 q 1146 81 1164 93 q 1107 57 1128 70 q 1063 31 1086 44 q 1021 5 1040 18 q 958 3 998 3 q 866 0 917 2 q 757 -8 815 -3 q 642 -22 699 -13 q 533 -47 585 -32 q 441 -86 481 -63 q 377 -142 401 -110 q 353 -218 353 -174 q 391 -324 353 -275 q 519 -406 430 -372 q 753 -455 608 -439 q 1112 -462 899 -471 q 1125 -465 1130 -460 q 1107 -482 1121 -470 q 944 -515 1028 -501 q 775 -536 859 -529 q 610 -542 691 -543 q 458 -529 530 -541 q 327 -493 387 -517 q 225 -431 267 -469 q 163 -340 184 -393 q 147 -215 142 -286 q 173 -119 150 -162 q 237 -43 197 -76 q 331 11 277 -11 q 450 43 385 33 q 381 65 423 47 q 296 107 340 82 q 213 160 252 132 q 153 217 174 189 q 146 233 147 224 q 153 246 144 241 q 180 261 164 251 q 214 283 197 271 q 249 309 232 295 q 277 337 265 323 q 306 337 288 353 q 450 239 370 280 q 633 172 530 197 q 868 135 737 146 q 1164 127 999 124 z "},"ﭻ":{"ha":962,"x_min":148,"x_max":1128,"o":"m 593 -176 q 605 -148 593 -160 q 632 -137 616 -137 q 659 -148 648 -137 q 670 -176 670 -160 q 659 -202 670 -191 q 632 -214 648 -214 q 605 -202 616 -214 q 593 -176 593 -191 m 670 -176 q 681 -148 670 -160 q 708 -137 693 -137 q 736 -148 724 -137 q 747 -176 747 -160 q 736 -202 747 -191 q 708 -214 724 -214 q 681 -202 693 -214 q 670 -176 670 -191 m 632 -250 q 643 -223 632 -234 q 670 -211 654 -211 q 697 -223 685 -211 q 708 -250 708 -234 q 697 -277 708 -266 q 670 -288 685 -288 q 643 -277 654 -288 q 632 -250 632 -266 m 148 -208 q 170 -112 150 -154 q 220 -38 189 -70 q 292 17 252 -6 q 376 55 332 39 q 466 79 420 70 q 551 94 511 88 q 491 115 530 98 q 408 156 453 131 q 317 212 363 180 q 233 280 271 244 q 226 294 227 286 q 233 307 225 302 q 259 321 242 311 q 293 345 275 332 q 328 372 311 357 q 355 398 345 386 q 380 398 365 412 q 504 309 441 346 q 625 245 566 271 q 737 204 684 220 q 834 180 790 189 q 911 170 878 172 q 962 167 944 167 q 971 149 968 162 q 975 119 974 136 q 974 83 975 102 q 971 47 973 64 q 966 17 969 30 q 962 0 964 4 q 891 0 932 -1 q 802 1 850 1 q 701 -1 753 1 q 600 -11 649 -3 q 505 -33 550 -18 q 427 -70 460 -47 q 373 -126 393 -93 q 353 -207 353 -160 q 392 -314 353 -264 q 520 -397 431 -363 q 754 -448 609 -431 q 1112 -455 899 -464 q 1124 -456 1121 -454 q 1126 -461 1128 -458 q 1120 -469 1125 -465 q 1107 -475 1115 -473 q 946 -508 1029 -494 q 781 -529 863 -522 q 621 -535 699 -536 q 473 -523 543 -534 q 344 -487 403 -511 q 242 -425 285 -463 q 174 -333 199 -387 q 148 -208 149 -279 z "},"ﭼ":{"ha":1091,"x_min":-22,"x_max":1084,"o":"m 116 167 q 71 184 92 172 q 33 210 50 195 q 3 239 16 224 q -14 265 -9 254 q -20 280 -18 273 q -14 292 -22 287 q 12 308 -5 296 q 46 333 28 319 q 81 362 64 347 q 109 389 98 377 q 120 396 113 395 q 134 389 127 397 q 232 304 174 341 q 362 239 290 267 q 518 193 434 212 q 692 162 602 174 q 878 146 783 151 q 1070 143 974 142 q 1079 132 1084 141 q 1057 109 1074 122 q 1014 81 1039 96 q 962 53 988 66 q 912 31 935 40 q 876 20 888 22 q 806 13 859 16 q 676 7 754 9 q 497 3 597 5 q 283 1 397 1 l 283 0 l 0 0 q -13 86 -10 45 q 0 167 -16 128 q 61 159 29 159 q 116 167 94 159 m 315 -175 q 330 -141 315 -155 q 363 -127 344 -127 q 397 -141 383 -127 q 411 -175 411 -155 q 397 -209 411 -195 q 363 -222 383 -222 q 330 -209 344 -222 q 315 -175 315 -195 m 411 -175 q 425 -141 411 -155 q 458 -127 439 -127 q 492 -141 478 -127 q 507 -175 507 -155 q 492 -209 507 -195 q 458 -222 478 -222 q 425 -209 439 -222 q 411 -175 411 -195 m 363 -268 q 377 -234 363 -248 q 410 -220 391 -220 q 444 -234 430 -220 q 458 -268 458 -248 q 444 -301 458 -288 q 410 -315 430 -315 q 377 -301 391 -315 q 363 -268 363 -288 z "},"ﭽ":{"ha":631,"x_min":-62,"x_max":679,"o":"m 90 401 q 241 306 165 345 q 393 240 318 267 q 537 196 467 213 q 668 167 607 178 q 677 123 675 146 q 678 78 679 100 q 674 35 677 56 q 668 0 671 15 l 0 0 q -13 86 -10 45 q 0 167 -16 128 q 61 159 29 159 q 116 167 94 159 q 49 200 78 184 q -1 231 20 216 q -36 256 -22 245 q -56 275 -50 268 q -59 290 -62 281 q -48 303 -56 298 q -24 319 -39 308 q 7 344 -9 330 q 39 373 24 358 q 65 401 55 388 q 90 401 74 413 m 240 -174 q 254 -140 240 -154 q 288 -125 269 -125 q 322 -140 308 -125 q 336 -174 336 -154 q 322 -207 336 -193 q 288 -221 308 -221 q 254 -207 269 -221 q 240 -174 240 -193 m 336 -174 q 350 -140 336 -154 q 383 -125 363 -125 q 417 -140 403 -125 q 431 -174 431 -154 q 417 -207 431 -193 q 383 -221 403 -221 q 350 -207 363 -221 q 336 -174 336 -193 m 288 -267 q 301 -233 288 -247 q 335 -218 315 -218 q 369 -233 355 -218 q 383 -267 383 -247 q 369 -300 383 -286 q 335 -314 355 -314 q 301 -300 315 -314 q 288 -267 288 -286 z "},"ژ":{"ha":743,"x_min":104,"x_max":736,"o":"m 522 432 q 576 374 547 408 q 635 302 606 340 q 687 223 663 263 q 723 147 711 183 q 734 94 733 119 q 728 46 736 68 q 702 7 720 24 q 655 -20 684 -10 q 600 -34 638 -28 q 511 -45 561 -41 q 404 -52 460 -50 q 292 -53 347 -54 q 190 -47 237 -52 q 113 -32 143 -42 q 105 -26 107 -30 q 105 -19 104 -23 q 109 -13 106 -16 q 115 -8 111 -9 q 161 23 138 5 q 202 61 184 42 q 234 96 221 79 q 252 121 248 112 q 261 129 257 127 q 271 126 265 131 q 310 110 286 117 q 361 100 333 103 q 405 96 377 96 q 462 97 433 96 q 517 101 492 98 q 555 106 543 103 q 559 114 562 106 q 550 128 556 122 q 522 125 540 127 q 484 121 505 123 q 441 119 463 120 q 401 118 419 118 q 357 120 378 117 q 318 127 336 122 q 290 138 301 132 q 275 151 278 144 q 301 188 285 165 q 337 238 317 211 q 378 295 357 266 q 417 351 399 325 q 451 398 436 378 q 474 429 467 419 q 493 446 483 441 q 522 432 503 450 m 401 552 q 415 586 401 572 q 449 600 429 600 q 483 586 469 600 q 496 552 496 572 q 483 518 496 532 q 449 504 469 504 q 415 518 429 504 q 401 552 401 532 m 496 552 q 510 586 496 572 q 544 600 524 600 q 578 586 564 600 q 592 552 592 572 q 578 518 592 532 q 544 504 564 504 q 510 518 524 504 q 496 552 496 532 m 448 645 q 462 679 448 665 q 496 692 476 692 q 530 679 515 692 q 544 645 544 665 q 530 611 544 625 q 496 597 515 597 q 462 611 476 597 q 448 645 448 625 z "},"ﮋ":{"ha":763,"x_min":145,"x_max":802,"o":"m 559 336 q 595 297 577 321 q 637 248 614 273 q 691 201 661 223 q 763 167 721 178 q 783 154 774 167 q 796 123 791 142 q 802 83 801 105 q 798 43 802 62 q 786 12 794 24 q 763 0 777 0 l 746 0 q 729 -88 752 -57 q 659 -130 707 -119 q 596 -140 636 -135 q 508 -148 557 -144 q 407 -151 460 -151 q 306 -149 355 -152 q 216 -140 257 -146 q 152 -122 176 -134 q 146 -116 147 -119 q 146 -111 145 -113 q 150 -106 147 -109 q 154 -103 152 -104 q 189 -74 170 -92 q 225 -37 208 -56 q 257 0 243 -18 q 277 29 271 18 q 287 35 281 35 q 296 31 292 34 q 333 7 312 16 q 382 -6 353 -1 q 429 -10 402 -9 q 481 -11 455 -11 q 531 -9 508 -10 q 569 -6 555 -7 q 572 -4 572 -6 q 570 2 572 -1 q 565 8 568 5 q 559 14 562 12 q 521 12 547 13 q 463 10 494 10 q 401 13 432 10 q 352 22 371 16 q 317 39 328 30 q 303 60 307 48 q 326 93 311 71 q 359 141 340 115 q 398 196 377 168 q 438 252 418 225 q 473 299 457 278 q 498 332 489 321 q 524 346 509 342 q 559 336 539 349 m 433 447 q 447 480 433 467 q 481 494 461 494 q 514 480 500 494 q 528 447 528 467 q 514 413 528 427 q 481 399 500 399 q 447 413 461 399 q 433 447 433 427 m 528 447 q 542 480 528 467 q 576 494 556 494 q 610 480 595 494 q 624 447 624 467 q 610 413 624 427 q 576 399 595 399 q 542 413 556 399 q 528 447 528 427 m 480 540 q 494 573 480 559 q 528 587 508 587 q 562 573 547 587 q 576 540 576 559 q 562 506 576 520 q 528 492 547 492 q 494 506 508 492 q 480 540 480 520 z "},"ک":{"ha":1914,"x_min":222,"x_max":1925,"o":"m 625 175 q 705 166 657 170 q 810 159 752 162 q 936 154 869 156 q 1073 151 1002 152 q 1216 151 1143 151 q 1357 153 1288 151 q 1490 157 1426 154 q 1607 163 1554 159 q 1622 165 1617 164 q 1628 169 1627 165 q 1627 177 1630 172 q 1618 194 1624 183 q 1607 210 1612 208 q 1590 212 1602 212 q 1435 199 1525 205 q 1237 191 1344 194 q 1012 189 1131 188 q 774 195 894 189 q 747 196 768 195 q 699 200 726 197 q 642 208 672 203 q 587 219 612 212 q 546 234 562 225 q 530 254 530 243 q 534 264 531 260 q 540 271 536 267 q 635 362 587 314 q 732 457 684 410 q 823 547 779 504 q 905 625 867 590 q 917 632 911 631 q 927 631 923 633 q 932 624 931 629 q 930 612 933 618 q 898 572 918 596 q 858 521 879 547 q 818 470 838 495 q 786 428 799 445 q 786 404 777 414 q 819 385 796 393 q 873 370 841 376 q 942 360 906 364 q 1013 352 977 355 q 1078 348 1048 349 q 1126 345 1107 346 q 1148 345 1145 345 q 1375 346 1273 345 q 1557 350 1476 347 q 1697 359 1637 353 q 1799 372 1756 364 q 1824 367 1816 374 q 1836 348 1831 360 q 1855 297 1847 320 q 1872 253 1864 275 q 1889 208 1881 231 q 1906 157 1897 185 q 1920 105 1915 128 q 1920 66 1925 83 q 1898 40 1915 50 q 1848 28 1881 31 q 1664 19 1765 24 q 1451 10 1563 14 q 1221 2 1339 5 q 983 -1 1102 -1 q 748 1 864 -1 q 528 9 633 3 q 238 37 334 21 q 228 41 232 37 q 223 48 224 44 q 225 58 222 53 q 238 66 229 62 q 307 93 275 77 q 365 129 338 109 q 414 169 392 148 q 454 210 437 189 q 470 215 462 216 q 486 212 479 215 q 546 191 509 201 q 625 175 583 181 z "},"ﮏ":{"ha":1948,"x_min":178,"x_max":1962,"o":"m 582 165 q 653 157 611 160 q 748 151 696 154 q 926 150 827 149 q 1134 154 1025 151 q 1354 162 1242 157 q 1572 171 1466 166 q 1591 178 1591 172 q 1583 201 1592 184 q 1577 211 1579 208 q 1572 215 1575 214 q 1565 216 1569 216 q 1554 216 1560 216 q 1399 202 1490 208 q 1202 193 1309 196 q 976 190 1095 190 q 738 196 858 191 q 711 197 731 196 q 663 201 690 199 q 606 209 635 204 q 551 219 576 213 q 509 235 526 226 q 494 255 493 243 q 498 264 495 261 q 504 271 500 268 q 600 363 551 315 q 695 458 648 411 q 787 548 743 505 q 869 625 831 591 q 881 633 875 632 q 890 632 886 634 q 896 624 895 629 q 893 613 897 619 q 862 572 881 597 q 822 522 842 548 q 782 471 801 496 q 750 429 762 446 q 750 405 741 416 q 782 386 760 395 q 838 372 805 378 q 906 361 870 366 q 977 354 941 357 q 1042 349 1013 351 q 1090 347 1071 347 q 1112 346 1109 346 q 1528 360 1369 351 q 1762 383 1687 370 q 1787 378 1780 385 q 1800 359 1795 371 q 1822 296 1811 326 q 1849 242 1833 267 q 1888 198 1865 217 q 1948 167 1912 179 q 1960 118 1958 144 q 1960 68 1962 92 q 1955 26 1959 45 q 1948 0 1951 8 l 484 0 q 195 28 290 12 q 184 32 189 28 q 179 40 180 35 q 182 49 178 44 q 195 57 185 54 q 263 84 231 68 q 322 119 295 100 q 371 159 349 138 q 411 200 393 180 q 427 206 418 206 q 443 202 435 205 q 503 182 466 193 q 582 165 540 172 z "},"ﮐ":{"ha":1391,"x_min":-11,"x_max":1381,"o":"m 0 167 q 249 151 119 154 q 514 152 378 149 q 789 163 650 155 q 1067 180 928 172 q 1081 182 1076 181 q 1086 188 1086 184 q 1085 197 1087 191 q 1078 211 1082 202 q 1073 221 1075 218 q 1067 225 1070 224 q 1060 225 1064 226 q 1050 225 1056 225 q 895 210 985 218 q 697 197 804 203 q 472 191 590 192 q 234 195 354 189 q 207 196 228 195 q 159 200 186 197 q 102 208 132 203 q 47 219 72 212 q 5 234 22 225 q -10 254 -11 243 q -6 264 -9 260 q 0 271 -3 267 q 96 362 47 314 q 192 457 144 410 q 283 547 239 504 q 365 625 327 590 q 377 632 371 631 q 387 631 382 633 q 392 624 391 629 q 389 612 393 618 q 358 572 377 596 q 318 521 338 547 q 278 470 297 495 q 246 428 258 445 q 247 397 233 410 q 292 375 261 384 q 367 360 323 366 q 455 351 410 354 q 543 347 500 347 q 614 347 585 346 q 732 350 670 347 q 858 356 795 353 q 983 365 922 360 q 1096 374 1044 369 q 1191 384 1149 379 q 1258 393 1233 389 q 1283 387 1276 394 q 1296 368 1291 380 q 1316 319 1307 340 q 1333 277 1324 298 q 1349 235 1341 257 q 1366 185 1356 214 q 1378 134 1375 157 q 1375 93 1381 111 q 1353 65 1369 76 q 1308 49 1337 54 q 1224 40 1280 45 q 1093 30 1168 35 q 927 20 1018 24 q 740 11 837 15 q 542 4 642 7 q 347 0 441 1 l 0 0 l 0 167 l 0 167 z "},"ﮑ":{"ha":1394,"x_min":-62,"x_max":1407,"o":"m 1249 0 q 1045 0 1154 0 q 822 0 937 0 q 593 0 708 0 q 371 -1 478 -1 q 169 -1 264 -1 q 0 0 74 -1 l 0 167 q 88 155 29 159 q 226 150 146 151 q 401 150 306 149 q 601 155 497 152 q 810 162 704 158 q 1017 171 917 166 q 1037 178 1036 172 q 1028 201 1037 184 q 1022 211 1025 208 q 1017 215 1020 214 q 1010 216 1014 216 q 1000 216 1006 216 q 845 202 935 208 q 647 193 754 196 q 421 190 540 190 q 183 196 303 191 q 156 197 177 196 q 108 201 135 199 q 51 209 81 204 q -4 219 21 213 q -45 235 -29 226 q -61 255 -62 243 q -57 264 -60 261 q -51 271 -54 268 q 45 363 -4 315 q 141 458 94 411 q 232 548 188 505 q 314 625 276 591 q 326 633 320 632 q 336 632 332 634 q 341 624 340 629 q 338 613 342 619 q 307 572 326 597 q 267 522 288 548 q 227 471 246 496 q 195 429 208 446 q 194 398 182 412 q 235 375 206 385 q 304 359 263 366 q 390 350 345 353 q 478 346 434 347 q 557 346 522 345 q 969 358 806 347 q 1207 383 1131 370 q 1233 378 1225 385 q 1245 359 1240 371 q 1267 296 1257 326 q 1294 242 1278 267 q 1334 198 1310 217 q 1394 167 1357 179 q 1405 118 1403 144 q 1406 68 1407 92 q 1400 26 1404 45 q 1394 0 1396 8 l 1249 0 z "},"گ":{"ha":1967,"x_min":222,"x_max":1925,"o":"m 629 425 q 613 422 619 421 q 604 428 607 423 q 603 439 602 433 q 612 452 605 446 q 640 476 621 461 q 680 510 658 492 q 726 548 702 528 q 770 584 749 567 q 807 614 791 601 q 830 633 823 627 q 842 641 837 640 q 849 640 847 642 q 852 633 852 637 q 848 625 852 629 q 823 600 841 617 q 782 562 805 583 q 732 517 758 540 q 685 474 707 494 q 647 441 663 454 q 629 425 631 427 m 625 175 q 705 166 657 170 q 810 159 752 162 q 936 154 869 156 q 1073 151 1002 152 q 1216 151 1143 151 q 1357 153 1288 151 q 1490 157 1426 154 q 1607 163 1554 159 q 1622 165 1617 164 q 1628 169 1627 165 q 1627 177 1630 172 q 1618 194 1624 183 q 1607 210 1612 208 q 1590 212 1602 212 q 1435 199 1525 205 q 1237 191 1344 194 q 1012 189 1131 188 q 774 195 894 189 q 747 196 768 195 q 699 200 726 197 q 642 208 672 203 q 587 219 612 212 q 546 234 562 225 q 530 254 530 243 q 534 264 531 260 q 540 271 536 267 q 635 362 587 314 q 732 457 684 410 q 823 547 779 504 q 905 625 867 590 q 917 632 911 631 q 927 631 923 633 q 932 624 931 629 q 930 612 933 618 q 898 572 918 596 q 858 521 879 547 q 818 470 838 495 q 786 428 799 445 q 786 404 777 414 q 819 385 796 393 q 873 370 841 376 q 942 360 906 364 q 1013 352 977 355 q 1078 348 1048 349 q 1126 345 1107 346 q 1148 345 1145 345 q 1375 346 1273 345 q 1557 350 1476 347 q 1697 359 1637 353 q 1799 372 1756 364 q 1824 367 1816 374 q 1836 348 1831 360 q 1855 297 1847 320 q 1872 253 1864 275 q 1889 208 1881 231 q 1906 157 1897 185 q 1920 105 1915 128 q 1920 66 1925 83 q 1898 40 1915 50 q 1848 28 1881 31 q 1664 19 1765 24 q 1451 10 1563 14 q 1221 2 1339 5 q 983 -1 1102 -1 q 748 1 864 -1 q 528 9 633 3 q 238 37 334 21 q 228 41 232 37 q 223 48 224 44 q 225 58 222 53 q 238 66 229 62 q 307 93 275 77 q 365 129 338 109 q 414 169 392 148 q 454 210 437 189 q 470 215 462 216 q 486 212 479 215 q 546 191 509 201 q 625 175 583 181 z "},"ﮓ":{"ha":1947,"x_min":178,"x_max":1962,"o":"m 620 438 q 604 435 610 434 q 595 441 598 437 q 594 452 593 446 q 603 465 596 458 q 631 490 612 474 q 671 524 649 505 q 717 561 693 542 q 762 597 741 580 q 799 628 783 614 q 821 647 814 641 q 833 654 828 653 q 841 653 838 655 q 843 647 843 651 q 840 639 843 643 q 814 613 833 631 q 773 574 796 596 q 724 530 749 553 q 676 487 698 507 q 638 454 654 467 q 620 438 623 440 m 582 165 q 653 157 611 160 q 748 151 696 154 q 926 150 827 149 q 1134 154 1025 151 q 1354 162 1242 157 q 1572 171 1466 166 q 1591 178 1591 172 q 1583 201 1592 184 q 1577 211 1579 208 q 1572 215 1575 214 q 1565 216 1569 216 q 1554 216 1560 216 q 1399 202 1490 208 q 1202 193 1309 196 q 976 190 1095 190 q 738 196 858 191 q 711 197 731 196 q 663 201 690 199 q 606 209 635 204 q 551 219 576 213 q 509 235 526 226 q 494 255 493 243 q 498 264 495 261 q 504 271 500 268 q 600 363 551 315 q 695 458 648 411 q 787 548 743 505 q 869 625 831 591 q 881 633 875 632 q 890 632 886 634 q 896 624 895 629 q 893 613 897 619 q 862 572 881 597 q 822 522 842 548 q 782 471 801 496 q 750 429 762 446 q 750 405 741 416 q 782 386 760 395 q 838 372 805 378 q 906 361 870 366 q 977 354 941 357 q 1042 349 1013 351 q 1090 347 1071 347 q 1112 346 1109 346 q 1528 360 1369 351 q 1762 383 1687 370 q 1787 378 1780 385 q 1800 359 1795 371 q 1822 296 1811 326 q 1849 242 1833 267 q 1888 198 1865 217 q 1948 167 1912 179 q 1960 118 1958 144 q 1960 68 1962 92 q 1955 26 1959 45 q 1948 0 1951 8 l 484 0 q 195 28 290 12 q 184 32 189 28 q 179 40 180 35 q 182 49 178 44 q 195 57 185 54 q 263 84 231 68 q 322 119 295 100 q 371 159 349 138 q 411 200 393 180 q 427 206 418 206 q 443 202 435 205 q 503 182 466 193 q 582 165 540 172 z "},"ﮔ":{"ha":1394,"x_min":-11,"x_max":1381,"o":"m 120 454 q 104 452 111 450 q 96 457 98 453 q 95 468 93 462 q 102 481 96 475 q 131 506 113 490 q 171 540 149 522 q 216 577 193 558 q 261 613 240 596 q 298 644 282 631 q 321 663 315 657 q 333 670 328 669 q 340 669 338 671 q 343 663 343 667 q 340 655 343 659 q 315 630 333 647 q 273 591 296 612 q 224 546 250 569 q 176 503 198 523 q 138 470 154 484 q 120 454 123 456 m 0 167 q 249 151 119 154 q 514 152 378 149 q 789 163 650 155 q 1067 180 928 172 q 1081 182 1076 181 q 1086 188 1086 184 q 1085 197 1087 191 q 1078 211 1082 202 q 1073 221 1075 218 q 1067 225 1070 224 q 1060 225 1064 226 q 1050 225 1056 225 q 895 210 985 218 q 697 197 804 203 q 472 191 590 192 q 234 195 354 189 q 207 196 228 195 q 159 200 186 197 q 102 208 132 203 q 47 219 72 212 q 5 234 22 225 q -10 254 -11 243 q -6 264 -9 260 q 0 271 -3 267 q 96 362 47 314 q 192 457 144 410 q 283 547 239 504 q 365 625 327 590 q 377 632 371 631 q 387 631 382 633 q 392 624 391 629 q 389 612 393 618 q 358 572 377 596 q 318 521 338 547 q 278 470 297 495 q 246 428 258 445 q 247 397 233 410 q 292 375 261 384 q 367 360 323 366 q 455 351 410 354 q 543 347 500 347 q 614 347 585 346 q 732 350 670 347 q 858 356 795 353 q 983 365 922 360 q 1096 374 1044 369 q 1191 384 1149 379 q 1258 393 1233 389 q 1283 387 1276 394 q 1296 368 1291 380 q 1316 319 1307 340 q 1333 277 1324 298 q 1349 235 1341 257 q 1366 185 1356 214 q 1378 134 1375 157 q 1375 93 1381 111 q 1353 65 1369 76 q 1308 49 1337 54 q 1224 40 1280 45 q 1093 30 1168 35 q 927 20 1018 24 q 740 11 837 15 q 542 4 642 7 q 347 0 441 1 l 0 0 l 0 167 z "},"ﮕ":{"ha":1394,"x_min":-62,"x_max":1407,"o":"m 65 454 q 50 452 56 450 q 41 457 43 453 q 40 468 38 462 q 47 481 41 475 q 76 506 58 490 q 116 540 94 522 q 161 577 138 558 q 206 613 185 596 q 243 644 227 631 q 267 663 260 657 q 278 670 273 669 q 286 669 283 671 q 288 663 288 667 q 285 655 288 659 q 260 630 278 647 q 218 591 241 612 q 169 546 195 569 q 121 503 143 523 q 83 470 99 484 q 65 454 68 456 m 1249 0 q 1045 0 1154 0 q 822 0 937 0 q 593 0 708 0 q 371 -1 478 -1 q 169 -1 264 -1 q 0 0 74 -1 l 0 167 q 88 155 29 159 q 226 150 146 151 q 401 150 306 149 q 601 155 497 152 q 810 162 704 158 q 1017 171 917 166 q 1037 178 1036 172 q 1028 201 1037 184 q 1022 211 1025 208 q 1017 215 1020 214 q 1010 216 1014 216 q 1000 216 1006 216 q 845 202 935 208 q 647 193 754 196 q 421 190 540 190 q 183 196 303 191 q 156 197 177 196 q 108 201 135 199 q 51 209 81 204 q -4 219 21 213 q -45 235 -29 226 q -61 255 -62 243 q -57 264 -60 261 q -51 271 -54 268 q 45 363 -4 315 q 141 458 94 411 q 232 548 188 505 q 314 625 276 591 q 326 633 320 632 q 336 632 332 634 q 341 624 340 629 q 338 613 342 619 q 307 572 326 597 q 267 522 288 548 q 227 471 246 496 q 195 429 208 446 q 195 405 186 416 q 228 386 205 395 q 283 372 250 378 q 351 361 315 366 q 422 354 387 357 q 487 349 458 351 q 535 347 516 347 q 557 346 554 346 q 973 360 814 351 q 1207 383 1132 370 q 1233 378 1225 385 q 1245 359 1240 371 q 1267 296 1257 326 q 1294 242 1278 267 q 1334 198 1310 217 q 1394 167 1357 179 q 1405 118 1403 144 q 1406 68 1407 92 q 1400 26 1404 45 q 1394 0 1396 8 l 1249 0 z "},"ی":{"ha":755,"x_min":125,"x_max":760,"o":"m 722 98 q 733 72 728 86 q 743 42 739 57 q 750 13 747 27 q 753 -12 753 -1 q 741 -75 760 -56 q 686 -99 723 -94 q 631 -103 668 -101 q 548 -104 594 -104 q 451 -103 502 -104 q 353 -97 399 -101 q 307 -93 336 -96 q 245 -87 277 -91 q 183 -78 214 -83 q 135 -65 153 -73 q 129 -56 125 -60 q 139 -51 133 -52 q 201 -28 175 -42 q 248 0 228 -15 q 281 28 267 14 q 304 53 294 42 q 314 60 310 59 q 326 57 319 62 q 362 42 340 50 q 410 31 384 34 q 444 27 421 29 q 490 24 466 25 q 537 22 515 22 q 570 24 559 22 q 573 27 572 24 q 572 34 573 30 q 569 40 571 37 q 564 43 566 43 q 456 43 503 39 q 376 61 410 47 q 297 116 324 82 q 263 191 271 151 q 267 274 256 231 q 301 352 277 316 q 361 416 326 389 q 439 452 397 443 q 536 436 488 464 q 632 351 584 409 q 642 341 637 346 q 653 334 647 337 q 667 332 659 332 q 684 338 674 333 q 672 287 680 309 q 655 249 665 264 q 629 223 644 233 q 595 208 614 213 q 530 212 568 204 q 451 234 492 220 q 438 237 445 237 q 428 234 432 237 q 422 227 423 232 q 426 216 421 222 q 459 192 436 202 q 514 176 483 182 q 583 168 546 170 q 658 168 620 166 q 691 150 673 169 q 722 98 708 132 z "},"ﯽ":{"ha":669,"x_min":132,"x_max":731,"o":"m 618 0 q 565 9 588 0 q 524 29 543 18 q 491 50 506 40 q 460 60 475 59 q 442 45 445 60 q 463 10 444 24 q 512 -11 483 -3 q 574 -20 541 -18 q 637 -20 608 -22 q 670 -42 656 -24 q 697 -92 684 -59 q 710 -119 704 -104 q 721 -149 716 -134 q 728 -178 726 -163 q 731 -203 731 -192 q 717 -266 731 -246 q 666 -290 703 -286 q 615 -294 648 -292 q 542 -296 583 -296 q 454 -294 500 -296 q 361 -288 407 -292 q 314 -284 344 -287 q 253 -278 285 -281 q 191 -269 221 -274 q 142 -256 161 -263 q 136 -248 132 -252 q 146 -242 140 -243 q 209 -219 182 -233 q 255 -192 235 -206 q 288 -163 275 -177 q 311 -138 302 -149 q 322 -130 317 -132 q 334 -134 326 -129 q 370 -148 348 -141 q 417 -159 391 -155 q 445 -162 428 -160 q 479 -164 461 -163 q 514 -166 496 -165 q 544 -167 531 -167 q 547 -162 547 -167 q 544 -152 547 -158 q 537 -142 542 -146 q 528 -138 533 -138 q 489 -137 507 -138 q 454 -135 471 -137 q 419 -131 437 -134 q 381 -123 401 -128 q 321 -92 344 -114 q 288 -42 298 -71 q 278 20 277 -14 q 289 87 279 54 q 315 151 298 120 q 354 207 332 182 q 401 245 376 231 q 454 261 427 260 q 501 256 482 261 q 535 243 520 251 q 564 224 551 235 q 591 203 576 214 q 624 183 606 193 q 669 167 643 174 q 681 118 679 144 q 682 68 684 92 q 676 26 680 45 q 669 0 672 8 l 618 0 z "},"ﱞ":{"ha":0,"x_min":-102,"x_max":105,"o":"m -64 252 q -44 332 -63 298 q 5 398 -26 366 q 26 380 16 389 q 47 363 37 372 q 26 339 36 351 q 9 314 17 327 q 30 325 18 321 q 60 323 43 328 q 86 309 76 318 q 101 290 96 300 q 104 267 105 279 q 99 243 104 254 q 79 211 92 227 q 46 181 66 195 q -4 156 25 168 q -71 138 -33 145 q -68 150 -70 143 q -65 163 -66 156 q -65 178 -64 170 q -71 195 -66 186 q -50 200 -61 197 q -27 208 -38 203 q -6 216 -16 212 q 12 224 4 220 q -9 260 -5 235 q -9 255 -8 257 q -9 250 -9 253 l -64 252 m 38 268 q 38 262 37 265 q 42 257 39 258 q 56 260 53 253 q 56 267 57 262 q 49 273 54 271 q 42 272 45 274 q 38 268 39 271 m -75 104 q -72 84 -77 94 q -58 70 -67 74 q -36 70 -49 65 q -8 93 -23 74 q 0 99 -6 98 q 8 93 5 99 q 20 75 11 83 q 41 67 30 68 q 63 74 52 66 q 77 104 73 83 q 83 110 79 110 q 90 106 87 110 q 100 51 103 76 q 82 13 96 26 q 45 1 67 0 q 1 22 24 1 q -43 1 -21 2 q -79 12 -64 -1 q -98 49 -94 24 q -87 105 -102 73 q -79 111 -84 111 q -75 104 -74 110 z "},"ﱟ":{"ha":0,"x_min":-106,"x_max":107,"o":"m -76 308 q -73 288 -78 298 q -59 273 -68 277 q -37 273 -50 269 q -9 296 -24 277 q -2 302 -7 302 q 7 296 4 302 q 19 279 9 286 q 40 270 28 271 q 61 278 51 269 q 76 308 72 286 q 81 313 77 313 q 88 309 85 313 q 98 255 102 279 q 80 217 95 230 q 44 204 66 203 q -1 226 22 205 q -44 204 -22 205 q -81 215 -66 203 q -99 252 -96 228 q -88 309 -103 277 q -80 314 -85 315 q -76 308 -75 313 m 75 123 q 37 110 60 116 q -11 97 14 103 q -59 86 -35 92 q -100 77 -83 81 q -104 78 -102 77 q -104 83 -106 79 q -98 93 -102 88 q -91 102 -94 97 q -86 113 -88 107 q -83 127 -83 119 q -82 130 -83 129 q -78 132 -81 132 q -34 141 -61 134 q 20 155 -7 147 q 68 169 47 162 q 96 180 90 176 q 101 173 107 185 q 75 123 95 160 m 75 48 q 37 35 60 41 q -11 23 14 28 q -59 12 -35 17 q -100 3 -83 7 q -104 3 -102 2 q -104 8 -106 5 q -98 18 -102 14 q -91 27 -94 22 q -86 39 -88 33 q -83 53 -83 45 q -82 56 -83 54 q -78 57 -81 57 q -34 66 -61 60 q 20 80 -7 73 q 68 95 47 87 q 96 105 90 102 q 101 98 107 111 q 75 48 95 85 z "},"ﱠ":{"ha":0,"x_min":-103,"x_max":114,"o":"m -76 104 q -73 84 -78 94 q -59 70 -68 74 q -37 70 -50 65 q -9 93 -24 74 q -2 99 -7 98 q 7 93 4 99 q 19 75 9 83 q 40 67 28 68 q 61 74 51 66 q 76 104 72 83 q 81 110 77 110 q 88 106 85 110 q 98 51 102 76 q 80 13 95 26 q 44 1 66 0 q -1 22 22 1 q -44 1 -22 2 q -81 12 -66 -1 q -99 49 -96 24 q -88 105 -103 73 q -80 111 -85 111 q -76 104 -75 110 m 90 180 q 52 167 75 174 q 4 155 29 161 q -44 144 -20 149 q -85 135 -68 139 q -89 136 -87 134 q -90 140 -91 137 q -83 150 -87 146 q -76 160 -79 155 q -71 171 -73 165 q -68 185 -68 177 q -67 188 -68 186 q -63 189 -66 189 q -20 198 -46 192 q 31 212 5 205 q 77 227 56 220 q 103 237 97 234 q 112 230 114 243 q 90 180 110 218 z "},"ﱡ":{"ha":0,"x_min":-103,"x_max":106,"o":"m -76 104 q -73 84 -78 94 q -59 70 -68 74 q -37 70 -50 65 q -9 93 -24 74 q -2 99 -7 98 q 7 93 4 99 q 19 75 9 83 q 40 67 28 68 q 61 74 51 66 q 76 104 72 83 q 81 110 77 110 q 88 106 85 110 q 98 51 102 76 q 80 13 95 26 q 44 1 66 0 q -1 22 22 1 q -44 1 -22 2 q -81 12 -66 -1 q -99 49 -96 24 q -88 105 -103 73 q -80 111 -85 111 q -76 104 -75 110 m -67 184 q -50 184 -60 182 q -29 191 -39 186 q -11 199 -19 195 q -1 206 -3 203 q -28 229 -20 214 q -35 259 -36 243 q -27 291 -35 275 q -6 318 -19 307 q 25 333 7 329 q 62 332 42 338 q 89 315 79 327 q 102 288 99 303 q 104 257 106 273 q 98 229 102 241 q 39 169 83 195 q -73 129 -5 143 q -70 139 -72 132 q -67 155 -68 146 q -65 172 -66 163 q -67 184 -65 180 m 47 256 q 40 255 43 257 q 36 251 37 254 q 36 245 35 248 q 41 239 37 241 q 51 238 47 237 q 57 243 56 240 q 57 251 59 247 q 47 256 54 254 z "},"ﱢ":{"ha":0,"x_min":-98,"x_max":109,"o":"m -69 220 q -66 199 -71 210 q -53 185 -62 189 q -31 185 -43 180 q -3 208 -18 189 q 5 214 -1 214 q 14 208 11 214 q 26 191 16 198 q 46 182 35 183 q 68 190 58 181 q 83 220 79 198 q 88 225 84 225 q 95 221 92 225 q 105 166 109 191 q 87 129 102 142 q 51 116 73 115 q 6 138 29 117 q -37 116 -16 117 q -74 127 -59 115 q -93 164 -89 140 q -81 220 -96 189 q -74 226 -79 227 q -69 220 -68 225 m 83 45 q 45 32 68 38 q -2 19 22 25 q -51 8 -27 14 q -92 -1 -75 3 q -96 0 -94 -1 q -96 5 -98 1 q -90 15 -94 10 q -83 24 -86 19 q -78 35 -80 29 q -75 50 -75 41 q -74 52 -75 51 q -70 54 -73 54 q -27 63 -53 56 q 24 77 -1 69 q 70 91 50 84 q 96 102 90 98 q 105 95 107 107 q 83 45 103 82 z "},"ﷲ":{"ha":949,"x_min":146,"x_max":924,"o":"m 503 920 q 499 925 504 924 q 492 920 494 926 q 481 869 478 891 q 498 835 485 846 q 532 825 512 823 q 573 844 553 826 q 614 825 594 825 q 648 836 635 824 q 665 871 661 848 q 655 920 668 893 q 649 924 652 924 q 644 920 645 924 q 631 892 640 900 q 611 885 621 884 q 591 893 600 886 q 580 909 582 900 q 572 914 577 915 q 564 909 567 913 q 539 888 551 892 q 518 888 527 884 q 505 901 509 892 q 503 920 501 910 m 712 802 q 699 812 707 812 q 685 790 691 811 q 670 747 677 764 q 654 717 663 730 q 634 693 645 704 q 606 669 623 682 q 596 659 599 664 q 594 646 593 653 q 603 597 598 627 q 612 529 608 566 q 621 449 617 491 q 627 366 625 407 q 631 287 630 325 q 630 221 632 250 q 624 176 629 193 q 612 159 620 159 q 614 233 614 185 q 610 342 614 281 q 598 472 606 403 q 579 608 591 541 q 572 625 576 621 q 564 628 568 629 q 556 623 560 627 q 549 612 552 618 q 517 563 540 583 q 465 525 495 542 q 397 492 434 508 q 323 454 361 475 q 249 404 286 433 q 182 334 212 375 q 155 272 164 303 q 146 208 146 240 q 161 132 146 168 q 203 67 176 96 q 270 21 231 39 q 358 -4 309 2 q 443 -10 397 -7 q 538 -15 490 -13 q 634 -18 587 -17 q 722 -18 682 -18 q 794 -15 763 -17 q 840 -10 825 -14 q 856 -6 847 -9 q 873 2 865 -4 q 891 21 882 9 q 907 57 900 34 q 918 115 913 80 q 924 200 923 150 q 924 307 924 244 q 922 441 924 370 q 918 590 921 513 q 910 740 916 667 q 896 877 905 812 q 875 989 888 941 q 862 998 870 1000 q 848 977 854 997 q 829 933 840 951 q 807 898 819 914 q 782 865 795 881 q 752 829 768 848 q 742 818 746 822 q 740 806 739 813 q 754 738 747 780 q 767 645 762 696 q 777 537 772 593 q 783 425 781 480 q 785 320 785 370 q 782 234 785 271 q 773 177 779 197 q 757 161 766 157 q 762 336 762 248 q 756 508 762 425 q 741 666 751 591 q 712 802 730 741 m 431 199 q 433 183 432 194 q 435 165 435 172 q 428 160 435 162 q 413 158 421 159 q 397 159 405 158 q 389 161 390 159 q 394 178 388 169 q 407 194 399 187 q 421 202 414 200 q 431 199 429 205 z "},"ﺀ":{"ha":520,"x_min":243,"x_max":453,"o":"m 307 -22 q 323 15 323 -3 q 314 48 323 32 q 290 79 304 64 q 264 110 276 94 q 248 143 253 126 q 253 180 243 160 q 259 190 253 180 q 274 214 264 199 q 296 247 283 229 q 321 281 308 264 q 346 313 334 298 q 369 335 359 328 q 387 342 380 343 q 395 328 393 341 q 370 290 376 309 q 368 255 365 272 q 382 222 372 237 q 405 193 393 206 q 428 171 416 180 q 445 155 439 161 q 448 128 453 148 q 430 85 443 109 q 400 37 418 61 q 364 -4 382 13 q 330 -28 346 -22 q 307 -22 315 -34 z "},"آ":{"ha":1069,"x_min":85,"x_max":1065,"o":"m 265 885 q 289 822 279 861 q 304 735 298 783 q 312 633 309 687 q 314 522 314 578 q 314 412 315 466 q 312 309 313 358 q 323 200 303 249 q 386 115 342 151 q 496 56 430 79 q 645 26 562 34 q 826 26 728 18 q 1034 59 924 34 q 1052 64 1045 65 q 1062 59 1059 63 q 1064 49 1065 55 q 1059 37 1063 43 q 1008 1 1044 21 q 922 -37 972 -18 q 810 -72 872 -56 q 683 -97 749 -88 q 550 -109 617 -107 q 422 -102 484 -111 q 310 -70 361 -92 q 222 -7 258 -47 q 170 91 186 33 q 163 230 153 149 q 166 350 165 291 q 164 466 167 408 q 153 582 161 524 q 130 700 144 640 q 129 704 129 702 q 129 707 129 706 q 131 714 129 711 q 137 722 134 717 q 138 723 137 723 q 138 723 138 723 l 140 725 q 169 757 153 739 q 199 795 184 775 q 225 839 214 816 q 243 885 237 861 q 252 899 245 899 q 259 894 256 899 q 265 885 263 889 m 114 848 q 90 902 94 880 q 92 941 85 925 q 112 969 98 958 q 143 989 125 980 q 179 1007 161 998 q 212 1025 197 1015 q 234 1049 226 1036 q 239 1082 242 1062 q 268 1027 262 1050 q 270 986 275 1004 q 250 957 264 969 q 217 935 235 945 q 179 917 199 926 q 144 899 160 909 q 120 877 129 889 q 114 848 111 865 z "},"ﺂ":{"ha":436,"x_min":92,"x_max":450,"o":"m 121 928 q 97 982 101 960 q 98 1021 92 1005 q 118 1049 104 1038 q 150 1069 132 1060 q 186 1087 168 1078 q 218 1105 204 1095 q 241 1129 233 1116 q 245 1162 249 1142 q 275 1107 269 1130 q 276 1066 281 1084 q 257 1037 271 1049 q 224 1015 242 1025 q 186 997 205 1006 q 151 979 167 989 q 127 957 136 969 q 121 928 118 945 m 314 355 q 321 279 313 311 q 345 225 330 248 q 384 190 361 203 q 436 167 407 176 q 448 118 446 144 q 448 68 450 92 q 443 26 446 45 q 436 0 439 8 l 270 0 q 227 5 244 1 q 197 17 209 10 q 178 31 184 23 q 168 47 171 39 q 161 90 163 59 q 160 164 159 121 q 161 262 160 208 q 163 375 162 317 q 163 493 163 433 q 159 609 162 553 q 148 713 155 665 q 129 798 141 762 q 129 813 125 808 q 137 821 132 817 q 179 857 159 836 q 216 900 199 878 q 245 944 233 922 q 264 985 258 966 q 269 994 266 991 q 276 995 273 996 q 283 989 280 994 q 288 981 286 985 q 301 931 295 962 q 310 863 307 901 q 316 782 314 825 q 318 696 318 739 q 318 623 318 666 q 317 532 317 579 q 315 438 316 485 q 314 355 315 391 z "},"أ":{"ha":1069,"x_min":87,"x_max":1065,"o":"m 265 902 q 289 837 279 877 q 304 749 298 797 q 312 645 309 700 q 314 532 314 589 q 314 420 315 475 q 312 315 313 364 q 323 204 303 253 q 386 117 342 154 q 496 57 430 80 q 645 27 562 34 q 826 27 728 19 q 1034 60 924 35 q 1052 65 1045 66 q 1062 60 1059 64 q 1064 50 1065 56 q 1059 38 1063 43 q 1008 1 1044 21 q 922 -38 972 -19 q 810 -73 872 -57 q 683 -99 749 -89 q 550 -111 617 -109 q 422 -104 484 -113 q 310 -71 361 -94 q 222 -7 258 -48 q 170 93 186 33 q 163 234 153 152 q 166 357 165 297 q 164 475 167 416 q 153 593 161 534 q 130 713 144 652 q 129 717 129 715 q 129 720 129 719 q 131 728 129 725 q 137 735 134 731 q 138 737 137 737 q 138 737 138 737 l 140 739 q 169 771 153 753 q 199 810 184 790 q 225 855 214 831 q 243 902 237 878 q 252 916 245 916 q 259 911 256 916 q 265 902 263 906 m 122 905 q 138 927 137 918 q 134 945 140 937 q 118 959 127 952 q 100 974 108 966 q 90 992 93 982 q 97 1016 87 1002 q 106 1027 97 1016 q 129 1055 115 1039 q 158 1087 142 1070 q 188 1114 174 1103 q 211 1126 201 1124 q 220 1114 220 1128 q 198 1092 203 1101 q 194 1074 193 1082 q 203 1059 196 1065 q 218 1047 210 1053 q 234 1036 227 1041 q 246 1027 242 1031 q 246 1005 252 1020 q 228 974 240 991 q 200 940 216 957 q 169 912 184 923 q 140 898 153 901 q 122 905 127 895 z "},"ﺄ":{"ha":436,"x_min":75,"x_max":450,"o":"m 109 977 q 125 1000 124 990 q 121 1017 127 1010 q 105 1032 115 1025 q 87 1047 95 1039 q 77 1064 80 1055 q 84 1088 75 1074 q 93 1100 84 1088 q 116 1127 102 1112 q 145 1159 130 1143 q 175 1186 161 1176 q 198 1199 189 1197 q 207 1186 207 1200 q 185 1164 191 1174 q 181 1146 180 1154 q 190 1132 183 1138 q 205 1119 197 1125 q 221 1109 214 1114 q 233 1099 229 1104 q 233 1078 239 1093 q 215 1046 227 1063 q 187 1013 203 1029 q 156 984 171 996 q 127 970 140 973 q 109 977 115 967 m 314 355 q 321 279 313 311 q 345 225 330 248 q 384 190 361 203 q 436 167 407 176 q 448 118 446 144 q 448 68 450 92 q 443 26 446 45 q 436 0 439 8 l 270 0 q 227 5 244 1 q 197 17 209 10 q 178 31 184 23 q 168 47 171 39 q 161 90 163 59 q 160 164 159 121 q 161 262 160 208 q 163 375 162 317 q 163 493 163 433 q 159 609 162 553 q 148 713 155 665 q 129 798 141 762 q 129 813 125 808 q 137 821 132 817 q 179 857 159 836 q 216 900 199 878 q 245 944 233 922 q 264 985 258 966 q 269 994 266 991 q 276 995 273 996 q 283 989 280 994 q 288 981 286 985 q 301 931 295 962 q 310 863 307 901 q 316 782 314 825 q 318 696 318 739 q 318 623 318 666 q 317 532 317 579 q 315 438 316 485 q 314 355 315 391 z "},"ؤ":{"ha":802,"x_min":119,"x_max":785,"o":"m 616 117 q 622 121 621 118 q 621 129 623 125 q 616 136 619 133 q 608 141 612 140 q 550 131 583 135 q 484 126 517 127 q 417 128 450 125 q 360 141 385 132 q 287 200 309 161 q 266 283 265 238 q 285 376 266 329 q 337 462 304 423 q 410 525 369 500 q 496 550 452 550 q 578 530 539 550 q 651 477 618 511 q 711 399 684 444 q 758 304 739 354 q 770 265 764 290 q 781 209 777 239 q 783 144 785 178 q 770 79 781 110 q 734 23 758 48 q 669 -16 710 -3 q 614 -27 652 -22 q 527 -34 576 -31 q 420 -37 477 -37 q 308 -34 363 -37 q 205 -24 253 -31 q 125 -6 157 -17 q 123 4 119 -1 q 136 10 126 9 q 192 39 167 20 q 237 80 218 59 q 267 120 256 102 q 283 145 279 138 q 290 154 287 151 q 302 149 293 157 q 334 132 313 142 q 380 117 354 121 q 451 107 415 109 q 518 105 486 104 q 575 109 549 105 q 616 117 601 112 m 517 318 q 508 317 512 319 q 500 311 503 315 q 498 301 498 307 q 505 290 499 296 q 513 286 507 288 q 526 284 519 284 q 536 285 532 283 q 541 290 541 286 q 540 297 541 292 q 536 306 539 302 q 529 314 534 311 q 517 318 524 317 m 428 618 q 444 641 443 631 q 439 658 446 650 q 424 672 433 665 q 406 687 414 680 q 396 705 399 695 q 403 729 393 715 q 412 741 403 729 q 435 768 421 752 q 464 800 448 783 q 494 827 480 817 q 516 839 507 838 q 526 827 526 841 q 504 805 509 814 q 500 787 498 795 q 509 772 502 779 q 524 760 515 766 q 540 749 532 754 q 552 740 548 745 q 552 719 557 733 q 534 687 546 704 q 506 653 522 670 q 474 625 490 636 q 446 611 459 614 q 428 618 433 608 z "},"ﺆ":{"ha":820,"x_min":117,"x_max":834,"o":"m 781 0 q 771 -48 779 -24 q 749 -94 764 -73 q 715 -132 735 -115 q 667 -157 694 -149 q 609 -168 648 -163 q 520 -175 570 -172 q 414 -177 470 -178 q 303 -174 357 -177 q 202 -163 250 -170 q 123 -146 155 -157 q 121 -136 117 -141 q 134 -130 124 -131 q 189 -101 165 -120 q 230 -61 213 -81 q 258 -22 248 -40 q 272 3 268 -4 q 278 10 275 7 q 291 7 281 13 q 355 -23 319 -13 q 432 -37 391 -34 q 519 -36 473 -39 q 614 -24 566 -32 q 620 -18 619 -22 q 619 -10 621 -14 q 614 -3 617 -6 q 606 2 610 1 q 548 -8 581 -4 q 481 -14 515 -13 q 415 -11 448 -15 q 358 2 382 -7 q 285 60 307 22 q 263 144 263 98 q 283 236 264 189 q 335 322 302 283 q 408 385 367 361 q 494 410 450 410 q 559 398 529 410 q 617 364 590 386 q 668 312 644 342 q 712 244 691 281 q 763 191 733 210 q 820 167 793 172 q 832 118 829 144 q 832 68 834 92 q 827 26 831 45 q 820 0 823 8 l 781 0 m 513 179 q 499 171 505 180 q 502 149 494 161 q 511 146 505 147 q 523 145 517 145 q 533 147 528 146 q 539 149 538 148 q 537 157 538 153 q 533 167 536 162 q 525 175 530 172 q 513 179 520 178 m 406 457 q 422 480 420 470 q 417 497 423 490 q 401 512 411 505 q 384 527 391 519 q 374 544 376 534 q 380 568 371 554 q 390 580 380 568 q 412 607 399 591 q 442 639 426 623 q 471 666 458 656 q 494 679 485 677 q 503 666 503 680 q 481 644 487 654 q 478 626 476 634 q 486 611 479 618 q 502 599 493 605 q 518 589 510 593 q 530 579 526 584 q 529 558 535 572 q 511 526 524 543 q 483 492 499 509 q 452 464 467 475 q 424 450 437 453 q 406 457 411 447 z "},"إ":{"ha":1069,"x_min":129,"x_max":1065,"o":"m 265 1014 q 289 941 279 986 q 304 842 298 897 q 312 725 309 787 q 314 598 314 663 q 314 472 315 534 q 312 354 313 410 q 323 229 303 285 q 386 132 342 173 q 496 64 430 90 q 645 30 562 39 q 826 30 728 21 q 1034 68 924 39 q 1052 73 1045 74 q 1062 67 1059 72 q 1064 56 1065 63 q 1059 43 1063 49 q 1008 1 1044 24 q 922 -42 972 -21 q 810 -82 872 -64 q 683 -112 749 -100 q 550 -125 617 -123 q 422 -117 484 -127 q 310 -80 361 -106 q 222 -8 258 -54 q 170 104 186 37 q 163 263 153 171 q 166 401 165 334 q 164 534 167 468 q 153 667 161 600 q 130 802 144 733 q 129 806 129 804 q 129 810 129 808 q 131 818 129 814 q 137 827 134 822 q 138 828 137 828 q 138 829 138 828 l 140 831 q 169 867 153 846 q 199 911 184 888 q 225 961 214 935 q 243 1014 237 987 q 252 1029 245 1029 q 259 1024 256 1029 q 265 1014 263 1019 m 192 -378 q 208 -355 207 -365 q 203 -338 210 -345 q 188 -323 197 -330 q 170 -308 178 -316 q 160 -291 163 -300 q 167 -267 157 -281 q 176 -255 167 -267 q 199 -228 185 -243 q 228 -196 212 -212 q 258 -169 244 -179 q 280 -156 271 -158 q 290 -169 290 -155 q 268 -191 273 -181 q 264 -209 262 -201 q 273 -223 266 -217 q 288 -236 279 -230 q 304 -246 296 -241 q 316 -256 312 -251 q 316 -277 321 -262 q 298 -309 310 -292 q 270 -342 286 -326 q 238 -371 254 -359 q 210 -385 223 -382 q 192 -378 197 -388 z "},"ﺈ":{"ha":436,"x_min":125,"x_max":450,"o":"m 314 355 q 321 279 313 311 q 345 225 330 248 q 384 190 361 203 q 436 167 407 176 q 448 118 446 144 q 448 68 450 92 q 443 26 446 45 q 436 0 439 8 l 270 0 q 227 5 244 1 q 197 17 209 10 q 178 31 184 23 q 168 47 171 39 q 161 90 163 59 q 160 164 159 121 q 161 262 160 208 q 163 375 162 317 q 163 493 163 433 q 159 609 162 553 q 148 713 155 665 q 129 798 141 762 q 129 813 125 808 q 137 821 132 817 q 179 857 159 836 q 216 900 199 878 q 245 944 233 922 q 264 985 258 966 q 269 994 266 991 q 276 995 273 996 q 283 989 280 994 q 288 981 286 985 q 301 931 295 962 q 310 863 307 901 q 316 782 314 825 q 318 696 318 739 q 318 623 318 666 q 317 532 317 579 q 315 438 316 485 q 314 355 315 391 m 184 -280 q 201 -257 199 -267 q 196 -240 202 -248 q 180 -225 190 -233 q 163 -211 170 -218 q 153 -193 155 -203 q 159 -169 150 -183 q 169 -157 159 -169 q 191 -130 178 -146 q 221 -98 205 -115 q 250 -71 237 -81 q 273 -59 264 -60 q 282 -71 282 -57 q 260 -93 266 -83 q 257 -111 255 -103 q 265 -126 258 -119 q 280 -138 272 -132 q 297 -149 289 -144 q 309 -158 304 -153 q 308 -179 314 -165 q 290 -211 302 -194 q 262 -245 278 -228 q 231 -273 246 -262 q 203 -287 216 -284 q 184 -280 190 -290 z "},"ئ":{"ha":755,"x_min":125,"x_max":760,"o":"m 722 98 q 733 72 728 86 q 743 42 739 57 q 750 13 747 27 q 753 -12 753 -1 q 741 -75 760 -56 q 686 -99 723 -94 q 631 -103 668 -101 q 548 -104 594 -104 q 451 -103 502 -104 q 353 -97 399 -101 q 307 -93 336 -96 q 245 -87 277 -91 q 183 -78 214 -83 q 135 -65 153 -73 q 129 -56 125 -60 q 139 -51 133 -52 q 201 -28 175 -42 q 248 0 228 -15 q 281 28 267 14 q 304 53 294 42 q 314 60 310 59 q 326 57 319 62 q 362 42 340 50 q 410 31 384 34 q 444 27 421 29 q 490 24 466 25 q 537 22 515 22 q 570 24 559 22 q 573 27 572 24 q 572 34 573 30 q 569 40 571 37 q 564 43 566 43 q 456 43 503 39 q 376 61 410 47 q 297 116 324 82 q 263 191 271 151 q 267 274 256 231 q 301 352 277 316 q 361 416 326 389 q 439 452 397 443 q 536 436 488 464 q 632 351 584 409 q 642 341 637 346 q 653 334 647 337 q 667 332 659 332 q 684 338 674 333 q 672 287 680 309 q 655 249 665 264 q 629 223 644 233 q 595 208 614 213 q 530 212 568 204 q 451 234 492 220 q 438 237 445 237 q 428 234 432 237 q 422 227 423 232 q 426 216 421 222 q 459 192 436 202 q 514 176 483 182 q 583 168 546 170 q 658 168 620 166 q 691 150 673 169 q 722 98 708 132 m 400 518 q 416 541 415 531 q 412 558 418 551 q 396 573 406 566 q 378 588 386 580 q 368 605 371 595 q 375 629 366 615 q 384 641 375 629 q 407 668 393 652 q 436 700 420 684 q 466 727 452 717 q 489 740 479 738 q 498 727 498 741 q 476 705 481 715 q 472 687 471 695 q 481 672 474 679 q 496 660 488 666 q 512 650 505 654 q 524 640 520 645 q 524 619 530 633 q 506 587 518 604 q 478 553 494 570 q 447 525 462 536 q 418 511 431 514 q 400 518 406 508 z "},"ﺊ":{"ha":669,"x_min":132,"x_max":731,"o":"m 618 0 q 565 9 588 0 q 524 29 543 18 q 491 50 506 40 q 460 60 475 59 q 442 45 445 60 q 463 10 444 24 q 512 -11 483 -3 q 574 -20 541 -18 q 637 -20 608 -22 q 670 -42 656 -24 q 697 -92 684 -59 q 710 -119 704 -104 q 721 -149 716 -134 q 728 -178 726 -163 q 731 -203 731 -192 q 717 -266 731 -246 q 666 -290 703 -286 q 615 -294 648 -292 q 542 -296 583 -296 q 454 -294 500 -296 q 361 -288 407 -292 q 314 -284 344 -287 q 253 -278 285 -281 q 191 -269 221 -274 q 142 -256 161 -263 q 136 -248 132 -252 q 146 -242 140 -243 q 209 -219 182 -233 q 255 -192 235 -206 q 288 -163 275 -177 q 311 -138 302 -149 q 322 -130 317 -132 q 334 -134 326 -129 q 370 -148 348 -141 q 417 -159 391 -155 q 445 -162 428 -160 q 479 -164 461 -163 q 514 -166 496 -165 q 544 -167 531 -167 q 547 -162 547 -167 q 544 -152 547 -158 q 537 -142 542 -146 q 528 -138 533 -138 q 489 -137 507 -138 q 454 -135 471 -137 q 419 -131 437 -134 q 381 -123 401 -128 q 321 -92 344 -114 q 288 -42 298 -71 q 278 20 277 -14 q 289 87 279 54 q 315 151 298 120 q 354 207 332 182 q 401 245 376 231 q 454 261 427 260 q 501 256 482 261 q 535 243 520 251 q 564 224 551 235 q 591 203 576 214 q 624 183 606 193 q 669 167 643 174 q 681 118 679 144 q 682 68 684 92 q 676 26 680 45 q 669 0 672 8 l 618 0 m 385 313 q 401 336 399 326 q 396 353 402 346 q 380 368 390 361 q 363 383 370 375 q 353 400 355 391 q 359 425 350 410 q 369 436 359 425 q 391 463 378 448 q 421 495 405 479 q 450 523 437 512 q 473 535 464 533 q 482 522 482 536 q 460 500 466 510 q 457 482 455 490 q 465 468 458 474 q 480 455 472 461 q 497 445 489 450 q 509 435 505 440 q 508 414 514 429 q 490 382 503 399 q 462 349 478 366 q 431 320 446 332 q 403 306 416 309 q 385 313 390 303 z "},"ﺋ":{"ha":112,"x_min":-104,"x_max":106,"o":"m 43 556 q 52 568 46 565 q 62 560 57 570 q 84 490 75 534 q 97 383 92 445 q 104 242 102 321 q 106 71 106 163 q 101 32 106 46 q 86 11 96 18 q 60 2 77 4 q 21 0 44 1 l -53 0 q -59 28 -57 12 q -62 63 -61 45 q -63 99 -63 81 q -61 132 -62 117 q -58 156 -60 146 q -53 167 -56 165 q -44 178 -46 163 q -43 219 -42 193 q -47 275 -44 244 q -54 335 -50 307 q -61 384 -58 363 q -66 412 -64 406 q -66 423 -68 418 q -56 434 -64 428 q -35 453 -47 441 q -8 480 -22 465 q 19 515 5 496 q 43 556 33 534 m -69 595 q -53 618 -54 608 q -58 635 -52 628 q -74 650 -64 643 q -91 665 -83 657 q -101 683 -98 673 q -94 707 -104 692 q -85 718 -94 707 q -62 745 -76 730 q -33 778 -49 761 q -3 805 -17 794 q 19 817 10 815 q 28 804 28 819 q 7 782 12 792 q 3 764 1 772 q 12 750 5 756 q 27 738 18 743 q 43 727 35 732 q 55 718 51 722 q 55 696 60 711 q 37 665 49 682 q 8 631 24 648 q -23 603 -7 614 q -51 588 -38 591 q -69 595 -64 585 z "},"ﺌ":{"ha":247,"x_min":-71,"x_max":283,"o":"m -15 563 q 1 586 0 576 q -3 603 3 595 q -19 617 -9 610 q -37 632 -29 625 q -47 650 -44 640 q -40 674 -50 660 q -31 686 -40 674 q -8 713 -22 697 q 21 745 5 728 q 51 772 37 762 q 74 784 64 783 q 83 772 83 786 q 61 750 66 760 q 57 732 56 740 q 66 717 59 724 q 81 705 73 711 q 97 694 90 699 q 109 685 105 690 q 109 664 115 678 q 91 632 103 649 q 63 598 79 615 q 32 570 47 581 q 3 556 16 559 q -15 563 -9 553 m 114 519 q 121 469 121 498 q 121 409 121 441 q 121 343 120 377 q 130 277 122 309 q 172 207 141 233 q 247 167 203 180 q 269 143 261 159 q 280 110 277 128 q 281 72 283 91 q 275 36 279 52 q 262 10 270 20 q 247 0 255 0 l -61 0 q -67 28 -65 12 q -70 63 -69 45 q -71 99 -71 81 q -69 132 -71 117 q -66 156 -68 146 q -61 167 -64 165 q -48 177 -53 165 q -42 207 -44 189 q -41 250 -41 226 q -43 298 -41 274 q -46 342 -44 321 q -49 377 -47 363 q -50 386 -50 382 q -45 393 -50 390 q -22 409 -37 399 q 11 432 -7 418 q 50 468 29 447 q 92 519 71 490 q 104 529 99 530 q 114 519 110 528 z "},"ا":{"ha":1069,"x_min":129,"x_max":1065,"o":"m 265 1014 q 289 941 279 986 q 304 842 298 897 q 312 725 309 787 q 314 598 314 663 q 314 472 315 534 q 312 354 313 410 q 323 229 303 285 q 386 132 342 173 q 496 64 430 90 q 645 30 562 39 q 826 30 728 21 q 1034 68 924 39 q 1052 73 1045 74 q 1062 67 1059 72 q 1064 56 1065 63 q 1059 43 1063 49 q 1008 1 1044 24 q 922 -42 972 -21 q 810 -82 872 -64 q 683 -112 749 -100 q 550 -125 617 -123 q 422 -117 484 -127 q 310 -80 361 -106 q 222 -8 258 -54 q 170 104 186 37 q 163 263 153 171 q 166 401 165 334 q 164 534 167 468 q 153 667 161 600 q 130 802 144 733 q 129 806 129 804 q 129 810 129 808 q 131 818 129 814 q 137 827 134 822 q 138 828 137 828 q 138 829 138 828 l 140 831 q 169 867 153 846 q 199 911 184 888 q 225 961 214 935 q 243 1014 237 987 q 252 1029 245 1029 q 259 1024 256 1029 q 265 1014 263 1019 z "},"ب":{"ha":1569,"x_min":134,"x_max":1579,"o":"m 1513 527 q 1520 538 1514 536 q 1531 531 1527 541 q 1553 465 1544 505 q 1567 368 1562 425 q 1575 237 1573 311 q 1579 71 1578 163 q 1573 32 1578 46 q 1559 11 1569 18 q 1533 2 1549 4 q 1493 0 1517 1 l 937 0 q 799 0 870 0 q 656 2 728 1 q 514 5 585 3 q 378 11 444 7 q 255 19 313 14 q 150 31 197 24 q 140 34 144 31 q 135 39 136 36 q 137 46 134 43 q 150 54 140 50 q 218 81 186 64 q 277 116 250 97 q 326 157 304 136 q 366 198 349 178 q 379 204 372 204 q 394 200 387 203 q 512 172 446 181 q 654 160 579 163 q 807 158 728 157 q 958 159 885 159 l 1434 159 q 1434 197 1435 176 q 1429 242 1432 219 q 1419 290 1425 266 q 1406 334 1413 313 q 1407 345 1404 340 q 1416 356 1409 350 q 1450 391 1434 372 q 1479 433 1466 411 q 1500 479 1491 456 q 1513 527 1509 503 m 817 -149 q 831 -116 817 -130 q 865 -102 846 -102 q 899 -116 885 -102 q 913 -149 913 -130 q 899 -183 913 -169 q 865 -197 885 -197 q 831 -183 846 -197 q 817 -149 817 -169 z "},"ﺐ":{"ha":1615,"x_min":150,"x_max":1646,"o":"m 1482 519 q 1489 469 1489 498 q 1489 409 1489 441 q 1489 343 1489 377 q 1498 277 1490 309 q 1540 207 1509 233 q 1615 167 1571 180 q 1634 152 1628 165 q 1643 120 1640 138 q 1645 80 1646 101 q 1640 41 1644 59 q 1629 12 1636 24 q 1615 0 1623 0 l 954 0 q 744 1 853 0 q 531 5 635 2 q 332 15 426 9 q 167 31 238 21 q 156 34 160 31 q 151 39 151 36 q 154 46 150 43 q 167 54 157 50 q 235 81 203 64 q 294 116 267 97 q 343 157 321 136 q 383 198 366 178 q 396 204 389 204 q 410 200 402 203 q 529 172 461 181 q 671 160 596 163 q 823 158 745 157 q 975 159 901 159 l 1322 159 q 1334 169 1331 157 q 1337 201 1337 181 q 1335 246 1337 221 q 1330 296 1333 271 q 1323 342 1326 321 q 1319 377 1320 363 q 1318 386 1318 382 q 1323 393 1318 390 q 1346 409 1331 399 q 1379 432 1360 418 q 1418 468 1397 447 q 1459 519 1439 490 q 1473 529 1467 530 q 1482 519 1478 528 m 848 -136 q 862 -102 848 -116 q 896 -88 876 -88 q 929 -102 916 -88 q 943 -136 943 -116 q 929 -170 943 -155 q 896 -184 916 -184 q 862 -170 876 -184 q 848 -136 848 -155 z "},"ﺑ":{"ha":112,"x_min":-68,"x_max":106,"o":"m 6 -138 q 20 -105 6 -119 q 54 -91 35 -91 q 88 -105 74 -91 q 102 -138 102 -119 q 88 -172 102 -158 q 54 -186 74 -186 q 20 -172 35 -186 q 6 -138 6 -158 m 43 556 q 52 568 46 565 q 62 560 57 570 q 84 490 75 534 q 97 383 92 445 q 104 242 102 321 q 106 71 106 163 q 101 32 106 46 q 86 11 96 18 q 60 2 77 4 q 21 0 44 1 l -53 0 q -59 28 -57 12 q -62 63 -61 45 q -63 99 -63 81 q -61 132 -62 117 q -58 156 -60 146 q -53 167 -56 165 q -44 178 -46 163 q -43 219 -42 193 q -47 275 -44 244 q -54 335 -50 307 q -61 384 -58 363 q -66 412 -64 406 q -66 423 -68 418 q -56 434 -64 428 q -35 453 -47 441 q -8 480 -22 465 q 19 515 5 496 q 43 556 33 534 z "},"ﺒ":{"ha":247,"x_min":-71,"x_max":283,"o":"m 43 -149 q 58 -115 43 -129 q 92 -101 72 -101 q 125 -115 111 -101 q 139 -149 139 -129 q 125 -182 139 -168 q 92 -197 111 -197 q 58 -182 72 -197 q 43 -149 43 -168 m 114 519 q 121 469 121 498 q 121 409 121 441 q 121 343 120 377 q 130 277 122 309 q 172 207 141 233 q 247 167 203 180 q 269 143 261 159 q 280 110 277 128 q 281 72 283 91 q 275 36 279 52 q 262 10 270 20 q 247 0 255 0 l -61 0 q -67 28 -65 12 q -70 63 -69 45 q -71 99 -71 81 q -69 132 -71 117 q -66 156 -68 146 q -61 167 -64 165 q -48 177 -53 165 q -42 207 -44 189 q -41 250 -41 226 q -43 298 -41 274 q -46 342 -44 321 q -49 377 -47 363 q -50 386 -50 382 q -45 393 -50 390 q -22 409 -37 399 q 11 432 -7 418 q 50 468 29 447 q 92 519 71 490 q 104 529 99 530 q 114 519 110 528 z "},"ة":{"ha":678,"x_min":159,"x_max":625,"o":"m 592 621 q 599 508 593 569 q 610 386 604 448 q 621 264 616 324 q 625 156 625 205 q 618 71 625 106 q 594 20 611 35 q 561 6 585 12 q 506 -1 537 1 q 439 -3 475 -3 q 373 1 404 -3 q 289 23 328 5 q 221 68 250 41 q 175 131 192 96 q 159 208 159 167 q 169 271 159 239 q 198 332 179 302 q 266 406 229 375 q 339 459 302 436 q 412 499 376 481 q 478 535 448 517 q 531 573 508 553 q 564 621 553 593 q 581 634 572 636 q 592 621 591 631 m 450 161 q 451 179 452 168 q 446 195 451 191 q 437 196 444 197 q 423 190 430 195 q 411 177 416 185 q 409 157 406 168 q 420 156 414 156 q 433 156 427 155 q 444 158 439 156 q 450 161 448 159 m 304 678 q 319 712 304 698 q 353 726 333 726 q 386 712 372 726 q 400 678 400 698 q 386 644 400 659 q 353 630 372 630 q 319 644 333 630 q 304 678 304 659 m 400 678 q 414 712 400 698 q 448 726 428 726 q 481 712 467 726 q 496 678 496 698 q 481 644 496 659 q 448 630 467 630 q 414 644 428 630 q 400 678 400 659 z "},"ﺔ":{"ha":719,"x_min":154,"x_max":732,"o":"m 658 0 q 589 0 627 0 q 513 0 551 0 q 437 1 474 1 q 369 2 399 1 q 280 19 319 2 q 212 64 240 36 q 169 130 184 93 q 154 208 154 168 q 164 272 154 240 q 194 334 174 303 q 262 407 225 376 q 336 460 298 437 q 409 501 373 483 q 476 536 446 519 q 530 574 507 554 q 564 621 553 593 q 579 634 571 636 q 589 621 587 632 q 594 487 595 557 q 595 345 594 416 q 603 281 596 311 q 625 228 610 252 q 663 189 640 205 q 719 167 686 173 q 730 118 728 144 q 731 68 732 92 q 725 26 729 45 q 719 0 722 8 l 658 0 m 447 172 q 444 186 446 179 q 443 204 443 193 q 434 205 441 207 q 420 197 427 203 q 407 184 412 192 q 404 170 401 177 q 415 168 408 168 q 428 167 421 167 q 440 168 435 167 q 447 172 445 170 m 294 661 q 308 695 294 681 q 342 709 322 709 q 375 695 361 709 q 389 661 389 681 q 375 627 389 642 q 342 613 361 613 q 308 627 322 613 q 294 661 294 642 m 389 661 q 403 695 389 681 q 437 709 417 709 q 471 695 456 709 q 485 661 485 681 q 471 627 485 642 q 437 613 456 613 q 403 627 417 613 q 389 661 389 642 z "},"ت":{"ha":1569,"x_min":134,"x_max":1579,"o":"m 1513 527 q 1520 538 1514 536 q 1531 531 1527 541 q 1553 465 1544 505 q 1567 368 1562 425 q 1575 237 1573 311 q 1579 71 1578 163 q 1573 32 1578 46 q 1559 11 1569 18 q 1533 2 1549 4 q 1493 0 1517 1 l 937 0 q 799 0 870 0 q 656 2 728 1 q 514 5 585 3 q 378 11 444 7 q 255 19 313 14 q 150 31 197 24 q 140 34 144 31 q 135 39 136 36 q 137 46 134 43 q 150 54 140 50 q 218 81 186 64 q 277 116 250 97 q 326 157 304 136 q 366 198 349 178 q 379 204 372 204 q 394 200 387 203 q 512 172 446 181 q 654 160 579 163 q 807 158 728 157 q 958 159 885 159 l 1434 159 q 1434 197 1435 176 q 1429 242 1432 219 q 1419 290 1425 266 q 1406 334 1413 313 q 1407 345 1404 340 q 1416 356 1409 350 q 1450 391 1434 372 q 1479 433 1466 411 q 1500 479 1491 456 q 1513 527 1509 503 m 866 295 q 880 329 866 315 q 914 342 895 342 q 948 329 934 342 q 962 295 962 315 q 948 261 962 275 q 914 247 934 247 q 880 261 895 247 q 866 295 866 275 m 962 295 q 976 329 962 315 q 1009 342 989 342 q 1043 329 1029 342 q 1057 295 1057 315 q 1043 261 1057 275 q 1009 247 1029 247 q 976 261 989 247 q 962 295 962 275 z "},"ﺖ":{"ha":1615,"x_min":150,"x_max":1646,"o":"m 1482 519 q 1489 469 1489 498 q 1489 409 1489 441 q 1489 343 1489 377 q 1498 277 1490 309 q 1540 207 1509 233 q 1615 167 1571 180 q 1634 152 1628 165 q 1643 120 1640 138 q 1645 80 1646 101 q 1640 41 1644 59 q 1629 12 1636 24 q 1615 0 1623 0 l 954 0 q 744 1 853 0 q 531 5 635 2 q 332 15 426 9 q 167 31 238 21 q 156 34 160 31 q 151 39 151 36 q 154 46 150 43 q 167 54 157 50 q 235 81 203 64 q 294 116 267 97 q 343 157 321 136 q 383 198 366 178 q 396 204 389 204 q 410 200 402 203 q 529 172 461 181 q 671 160 596 163 q 823 158 745 157 q 975 159 901 159 l 1322 159 q 1334 169 1331 157 q 1337 201 1337 181 q 1335 246 1337 221 q 1330 296 1333 271 q 1323 342 1326 321 q 1319 377 1320 363 q 1318 386 1318 382 q 1323 393 1318 390 q 1346 409 1331 399 q 1379 432 1360 418 q 1418 468 1397 447 q 1459 519 1439 490 q 1473 529 1467 530 q 1482 519 1478 528 m 819 290 q 833 323 819 309 q 867 337 848 337 q 901 323 887 337 q 915 290 915 309 q 901 256 915 270 q 867 241 887 241 q 833 256 848 241 q 819 290 819 270 m 915 290 q 929 323 915 309 q 962 337 943 337 q 996 323 982 337 q 1010 290 1010 309 q 996 256 1010 270 q 962 241 982 241 q 929 256 943 241 q 915 290 915 270 z "},"ﺗ":{"ha":112,"x_min":-81,"x_max":110,"o":"m 43 556 q 52 568 46 565 q 62 560 57 570 q 84 490 75 534 q 97 383 92 445 q 104 242 102 321 q 106 71 106 163 q 101 32 106 46 q 86 11 96 18 q 60 2 77 4 q 21 0 44 1 l -53 0 q -59 28 -57 12 q -62 63 -61 45 q -63 99 -63 81 q -61 132 -62 117 q -58 156 -60 146 q -53 167 -56 165 q -44 178 -46 163 q -43 219 -42 193 q -47 275 -44 244 q -54 335 -50 307 q -61 384 -58 363 q -66 412 -64 406 q -66 423 -68 418 q -56 434 -64 428 q -35 453 -47 441 q -8 480 -22 465 q 19 515 5 496 q 43 556 33 534 m -81 653 q -67 687 -81 673 q -33 701 -53 701 q 0 687 -14 701 q 14 653 14 673 q 0 619 14 633 q -33 605 -14 605 q -67 619 -53 605 q -81 653 -81 633 m 14 653 q 28 687 14 673 q 62 701 42 701 q 96 687 81 701 q 110 653 110 673 q 96 619 110 633 q 62 605 81 605 q 28 619 42 605 q 14 653 14 633 z "},"ﺘ":{"ha":247,"x_min":-71,"x_max":283,"o":"m 114 519 q 121 469 121 498 q 121 409 121 441 q 121 343 120 377 q 130 277 122 309 q 172 207 141 233 q 247 167 203 180 q 269 143 261 159 q 280 110 277 128 q 281 72 283 91 q 275 36 279 52 q 262 10 270 20 q 247 0 255 0 l -61 0 q -67 28 -65 12 q -70 63 -69 45 q -71 99 -71 81 q -69 132 -71 117 q -66 156 -68 146 q -61 167 -64 165 q -48 177 -53 165 q -42 207 -44 189 q -41 250 -41 226 q -43 298 -41 274 q -46 342 -44 321 q -49 377 -47 363 q -50 386 -50 382 q -45 393 -50 390 q -22 409 -37 399 q 11 432 -7 418 q 50 468 29 447 q 92 519 71 490 q 104 529 99 530 q 114 519 110 528 m -28 637 q -14 671 -28 657 q 20 685 1 685 q 54 671 40 685 q 68 637 68 657 q 54 604 68 618 q 20 589 40 589 q -14 604 1 589 q -28 637 -28 618 m 68 637 q 82 671 68 657 q 115 685 96 685 q 149 671 135 685 q 163 637 163 657 q 149 604 163 618 q 115 589 135 589 q 82 604 96 589 q 68 637 68 618 z "},"ث":{"ha":1569,"x_min":134,"x_max":1579,"o":"m 1513 527 q 1520 538 1514 536 q 1531 531 1527 541 q 1553 465 1544 505 q 1567 368 1562 425 q 1575 237 1573 311 q 1579 71 1578 163 q 1573 32 1578 46 q 1559 11 1569 18 q 1533 2 1549 4 q 1493 0 1517 1 l 937 0 q 799 0 870 0 q 656 2 728 1 q 514 5 585 3 q 378 11 444 7 q 255 19 313 14 q 150 31 197 24 q 140 34 144 31 q 135 39 136 36 q 137 46 134 43 q 150 54 140 50 q 218 81 186 64 q 277 116 250 97 q 326 157 304 136 q 366 198 349 178 q 379 204 372 204 q 394 200 387 203 q 512 172 446 181 q 654 160 579 163 q 807 158 728 157 q 958 159 885 159 l 1434 159 q 1434 197 1435 176 q 1429 242 1432 219 q 1419 290 1425 266 q 1406 334 1413 313 q 1407 345 1404 340 q 1416 356 1409 350 q 1450 391 1434 372 q 1479 433 1466 411 q 1500 479 1491 456 q 1513 527 1509 503 m 818 347 q 832 380 818 366 q 866 394 846 394 q 900 380 886 394 q 913 347 913 366 q 900 313 913 327 q 866 298 886 298 q 832 313 846 298 q 818 347 818 327 m 913 347 q 927 380 913 366 q 961 394 941 394 q 995 380 981 394 q 1009 347 1009 366 q 995 313 1009 327 q 961 298 981 298 q 927 313 941 298 q 913 347 913 327 m 865 439 q 879 473 865 459 q 913 487 893 487 q 947 473 932 487 q 961 439 961 459 q 947 406 961 420 q 913 391 932 391 q 879 406 893 391 q 865 439 865 420 z "},"ﺚ":{"ha":1615,"x_min":150,"x_max":1646,"o":"m 1482 519 q 1489 469 1489 498 q 1489 409 1489 441 q 1489 343 1489 377 q 1498 277 1490 309 q 1540 207 1509 233 q 1615 167 1571 180 q 1634 152 1628 165 q 1643 120 1640 138 q 1645 80 1646 101 q 1640 41 1644 59 q 1629 12 1636 24 q 1615 0 1623 0 l 954 0 q 744 1 853 0 q 531 5 635 2 q 332 15 426 9 q 167 31 238 21 q 156 34 160 31 q 151 39 151 36 q 154 46 150 43 q 167 54 157 50 q 235 81 203 64 q 294 116 267 97 q 343 157 321 136 q 383 198 366 178 q 396 204 389 204 q 410 200 402 203 q 529 172 461 181 q 671 160 596 163 q 823 158 745 157 q 975 159 901 159 l 1322 159 q 1334 169 1331 157 q 1337 201 1337 181 q 1335 246 1337 221 q 1330 296 1333 271 q 1323 342 1326 321 q 1319 377 1320 363 q 1318 386 1318 382 q 1323 393 1318 390 q 1346 409 1331 399 q 1379 432 1360 418 q 1418 468 1397 447 q 1459 519 1439 490 q 1473 529 1467 530 q 1482 519 1478 528 m 814 297 q 828 331 814 317 q 862 345 842 345 q 896 331 882 345 q 909 297 909 317 q 896 263 909 277 q 862 249 882 249 q 828 263 842 249 q 814 297 814 277 m 909 297 q 923 331 909 317 q 957 345 937 345 q 991 331 977 345 q 1005 297 1005 317 q 991 263 1005 277 q 957 249 977 249 q 923 263 937 249 q 909 297 909 277 m 861 390 q 875 424 861 410 q 909 437 889 437 q 943 424 928 437 q 957 390 957 410 q 943 356 957 370 q 909 342 928 342 q 875 356 889 342 q 861 390 861 370 z "},"ﺛ":{"ha":112,"x_min":-144,"x_max":106,"o":"m 43 557 q 52 568 46 566 q 62 561 57 571 q 84 490 75 535 q 97 384 92 446 q 104 243 102 321 q 106 72 106 164 q 101 33 106 47 q 86 12 96 19 q 60 3 77 5 q 21 1 44 1 l -53 1 q -59 29 -57 12 q -62 64 -61 45 q -63 100 -63 82 q -61 133 -62 118 q -58 157 -60 147 q -53 168 -56 166 q -44 179 -46 164 q -43 219 -42 194 q -47 276 -44 245 q -54 335 -50 307 q -61 385 -58 363 q -66 412 -64 406 q -66 424 -68 418 q -56 435 -64 429 q -35 454 -47 442 q -8 481 -22 466 q 19 515 5 496 q 43 557 33 534 m -144 650 q -130 684 -144 670 q -96 698 -115 698 q -62 684 -76 698 q -48 650 -48 670 q -62 616 -48 631 q -96 602 -76 602 q -130 616 -115 602 q -144 650 -144 631 m -48 650 q -34 684 -48 670 q -1 698 -20 698 q 33 684 19 698 q 47 650 47 670 q 33 616 47 631 q -1 602 19 602 q -34 616 -20 602 q -48 650 -48 631 m -96 743 q -82 777 -96 763 q -49 791 -68 791 q -15 777 -29 791 q -1 743 -1 763 q -15 709 -1 724 q -49 695 -29 695 q -82 709 -68 695 q -96 743 -96 724 z "},"ﺜ":{"ha":247,"x_min":-71,"x_max":283,"o":"m 114 519 q 121 469 121 498 q 121 409 121 441 q 121 343 120 377 q 130 277 122 309 q 172 207 141 233 q 247 167 203 180 q 269 143 261 159 q 280 110 277 128 q 281 72 283 91 q 275 36 279 52 q 262 10 270 20 q 247 0 255 0 l -61 0 q -67 28 -65 12 q -70 63 -69 45 q -71 99 -71 81 q -69 132 -71 117 q -66 156 -68 146 q -61 167 -64 165 q -48 177 -53 165 q -42 207 -44 189 q -41 250 -41 226 q -43 298 -41 274 q -46 342 -44 321 q -49 377 -47 363 q -50 386 -50 382 q -45 393 -50 390 q -22 409 -37 399 q 11 432 -7 418 q 50 468 29 447 q 92 519 71 490 q 104 529 99 530 q 114 519 110 528 m -56 626 q -41 660 -56 646 q -7 673 -27 673 q 26 660 12 673 q 40 626 40 646 q 26 592 40 606 q -7 578 12 578 q -41 592 -27 578 q -56 626 -56 606 m 40 626 q 54 660 40 646 q 87 673 68 673 q 121 660 107 673 q 136 626 136 646 q 121 592 136 606 q 87 578 107 578 q 54 592 68 578 q 40 626 40 606 m -8 719 q 6 752 -8 739 q 39 766 20 766 q 73 752 59 766 q 87 719 87 739 q 73 685 87 699 q 39 671 59 671 q 6 685 20 671 q -8 719 -8 699 z "},"ج":{"ha":1139,"x_min":142,"x_max":1183,"o":"m 576 -236 q 590 -202 576 -216 q 624 -189 604 -189 q 657 -202 644 -189 q 671 -236 671 -216 q 657 -270 671 -256 q 624 -284 644 -284 q 590 -270 604 -284 q 576 -236 576 -256 m 1164 127 q 1182 118 1181 125 q 1173 102 1183 112 q 1146 81 1164 93 q 1107 57 1128 70 q 1063 31 1086 44 q 1021 5 1040 18 q 958 3 998 3 q 866 0 917 2 q 757 -8 815 -3 q 642 -22 699 -13 q 533 -47 585 -32 q 441 -86 481 -63 q 377 -142 401 -110 q 353 -218 353 -174 q 391 -324 353 -275 q 519 -406 430 -372 q 753 -455 608 -439 q 1112 -462 899 -471 q 1125 -465 1130 -460 q 1107 -482 1121 -470 q 944 -515 1028 -501 q 775 -536 859 -529 q 610 -542 691 -543 q 458 -529 530 -541 q 327 -493 387 -517 q 225 -431 267 -469 q 163 -340 184 -393 q 147 -215 142 -286 q 173 -119 150 -162 q 237 -43 197 -76 q 331 11 277 -11 q 450 43 385 33 q 381 65 423 47 q 296 107 340 82 q 213 160 252 132 q 153 217 174 189 q 146 233 147 224 q 153 246 144 241 q 180 261 164 251 q 214 283 197 271 q 249 309 232 295 q 277 337 265 323 q 306 337 288 353 q 450 239 370 280 q 633 172 530 197 q 868 135 737 146 q 1164 127 999 124 z "},"ﺞ":{"ha":962,"x_min":148,"x_max":1128,"o":"m 579 -235 q 593 -201 579 -215 q 627 -187 608 -187 q 661 -201 647 -187 q 675 -235 675 -215 q 661 -269 675 -254 q 627 -283 647 -283 q 593 -269 608 -283 q 579 -235 579 -254 m 148 -208 q 170 -112 150 -154 q 220 -38 189 -70 q 292 17 252 -6 q 376 55 332 39 q 466 79 420 70 q 551 94 511 88 q 491 115 530 98 q 408 156 453 131 q 317 212 363 180 q 233 280 271 244 q 226 294 227 286 q 233 307 225 302 q 259 321 242 311 q 293 345 275 332 q 328 372 311 357 q 355 398 345 386 q 380 398 365 412 q 504 309 441 346 q 625 245 566 271 q 737 204 684 220 q 834 180 790 189 q 911 170 878 172 q 962 167 944 167 q 971 149 968 162 q 975 119 974 136 q 974 83 975 102 q 971 47 973 64 q 966 17 969 30 q 962 0 964 4 q 891 0 932 -1 q 802 1 850 1 q 701 -1 753 1 q 600 -11 649 -3 q 505 -33 550 -18 q 427 -70 460 -47 q 373 -126 393 -93 q 353 -207 353 -160 q 392 -314 353 -264 q 520 -397 431 -363 q 754 -448 609 -431 q 1112 -455 899 -464 q 1124 -456 1121 -454 q 1126 -461 1128 -458 q 1120 -469 1125 -465 q 1107 -475 1115 -473 q 946 -508 1029 -494 q 781 -529 863 -522 q 621 -535 699 -536 q 473 -523 543 -534 q 344 -487 403 -511 q 242 -425 285 -463 q 174 -333 199 -387 q 148 -208 149 -279 z "},"ﺟ":{"ha":1091,"x_min":-22,"x_max":1084,"o":"m 116 167 q 71 184 92 172 q 33 210 50 195 q 3 239 16 224 q -14 265 -9 254 q -20 280 -18 273 q -14 292 -22 287 q 12 308 -5 296 q 46 333 28 319 q 81 362 64 347 q 109 389 98 377 q 120 396 113 395 q 134 389 127 397 q 232 304 174 341 q 362 239 290 267 q 518 193 434 212 q 692 162 602 174 q 878 146 783 151 q 1070 143 974 142 q 1079 132 1084 141 q 1057 109 1074 122 q 1014 81 1039 96 q 962 53 988 66 q 912 31 935 40 q 876 20 888 22 q 806 13 859 16 q 676 7 754 9 q 497 3 597 5 q 283 1 397 1 l 283 0 l 0 0 q -13 86 -10 45 q 0 167 -16 128 q 61 159 29 159 q 116 167 94 159 m 346 -153 q 360 -119 346 -133 q 394 -105 374 -105 q 428 -119 414 -105 q 441 -153 441 -133 q 428 -186 441 -172 q 394 -201 414 -201 q 360 -186 374 -201 q 346 -153 346 -172 z "},"ﺠ":{"ha":668,"x_min":-62,"x_max":679,"o":"m 90 401 q 241 306 165 345 q 393 240 318 267 q 537 196 467 213 q 668 167 607 178 q 677 123 675 146 q 678 78 679 100 q 674 35 677 56 q 668 0 671 15 l 0 0 q -13 86 -10 45 q 0 167 -16 128 q 61 159 29 159 q 116 167 94 159 q 49 200 78 184 q -1 231 20 216 q -36 256 -22 245 q -56 275 -50 268 q -59 290 -62 281 q -48 303 -56 298 q -24 319 -39 308 q 7 344 -9 330 q 39 373 24 358 q 65 401 55 388 q 90 401 74 413 m 273 -155 q 287 -121 273 -135 q 321 -107 301 -107 q 354 -121 340 -107 q 368 -155 368 -135 q 354 -189 368 -174 q 321 -203 340 -203 q 287 -189 301 -203 q 273 -155 273 -174 z "},"ح":{"ha":1139,"x_min":142,"x_max":1183,"o":"m 1164 127 q 1182 118 1181 125 q 1173 102 1183 112 q 1146 81 1164 93 q 1107 57 1128 70 q 1063 31 1086 44 q 1021 5 1040 18 q 958 3 998 3 q 866 0 917 2 q 757 -8 815 -3 q 642 -22 699 -13 q 533 -47 585 -32 q 441 -86 481 -63 q 377 -142 401 -110 q 353 -218 353 -174 q 391 -324 353 -275 q 519 -406 430 -372 q 753 -455 608 -439 q 1112 -462 899 -471 q 1125 -465 1130 -460 q 1107 -482 1121 -470 q 944 -515 1028 -501 q 775 -536 859 -529 q 610 -542 691 -543 q 458 -529 530 -541 q 327 -493 387 -517 q 225 -431 267 -469 q 163 -340 184 -393 q 147 -215 142 -286 q 173 -119 150 -162 q 237 -43 197 -76 q 331 11 277 -11 q 450 43 385 33 q 381 65 423 47 q 296 107 340 82 q 213 160 252 132 q 153 217 174 189 q 146 233 147 224 q 153 246 144 241 q 180 261 164 251 q 214 283 197 271 q 249 309 232 295 q 277 337 265 323 q 306 337 288 353 q 450 239 370 280 q 633 172 530 197 q 868 135 737 146 q 1164 127 999 124 z "},"ﺢ":{"ha":962,"x_min":148,"x_max":1128,"o":"m 148 -208 q 170 -112 150 -154 q 220 -38 189 -70 q 292 17 252 -6 q 376 55 332 39 q 466 79 420 70 q 551 94 511 88 q 491 115 530 98 q 408 156 453 131 q 317 212 363 180 q 233 280 271 244 q 226 294 227 286 q 233 307 225 302 q 259 321 242 311 q 293 345 275 332 q 328 372 311 357 q 355 398 345 386 q 380 398 365 412 q 504 309 441 346 q 625 245 566 271 q 737 204 684 220 q 834 180 790 189 q 911 170 878 172 q 962 167 944 167 q 971 149 968 162 q 975 119 974 136 q 974 83 975 102 q 971 47 973 64 q 966 17 969 30 q 962 0 964 4 q 891 0 932 -1 q 802 1 850 1 q 701 -1 753 1 q 600 -11 649 -3 q 505 -33 550 -18 q 427 -70 460 -47 q 373 -126 393 -93 q 353 -207 353 -160 q 392 -314 353 -264 q 520 -397 431 -363 q 754 -448 609 -431 q 1112 -455 899 -464 q 1124 -456 1121 -454 q 1126 -461 1128 -458 q 1120 -469 1125 -465 q 1107 -475 1115 -473 q 946 -508 1029 -494 q 781 -529 863 -522 q 621 -535 699 -536 q 473 -523 543 -534 q 344 -487 403 -511 q 242 -425 285 -463 q 174 -333 199 -387 q 148 -208 149 -279 z "},"ﺣ":{"ha":1091,"x_min":-22,"x_max":1084,"o":"m 116 167 q 71 184 92 172 q 33 210 50 195 q 3 239 16 224 q -14 265 -9 254 q -20 280 -18 273 q -14 292 -22 287 q 12 308 -5 296 q 46 333 28 319 q 81 362 64 347 q 109 389 98 377 q 120 396 113 395 q 134 389 127 397 q 232 304 174 341 q 362 239 290 267 q 518 193 434 212 q 692 162 602 174 q 878 146 783 151 q 1070 143 974 142 q 1079 132 1084 141 q 1057 109 1074 122 q 1014 81 1039 96 q 962 53 988 66 q 912 31 935 40 q 876 20 888 22 q 806 13 859 16 q 676 7 754 9 q 497 3 597 5 q 283 1 397 1 l 283 0 l 0 0 q -13 86 -10 45 q 0 167 -16 128 q 61 159 29 159 q 116 167 94 159 z "},"ﺤ":{"ha":668,"x_min":-62,"x_max":679,"o":"m 90 401 q 241 306 165 345 q 393 240 318 267 q 537 196 467 213 q 668 167 607 178 q 677 123 675 146 q 678 78 679 100 q 674 35 677 56 q 668 0 671 15 l 0 0 q -13 86 -10 45 q 0 167 -16 128 q 61 159 29 159 q 116 167 94 159 q 49 200 78 184 q -1 231 20 216 q -36 256 -22 245 q -56 275 -50 268 q -59 290 -62 281 q -48 303 -56 298 q -24 319 -39 308 q 7 344 -9 330 q 39 373 24 358 q 65 401 55 388 q 90 401 74 413 z "},"خ":{"ha":1139,"x_min":142,"x_max":1183,"o":"m 1164 127 q 1182 118 1181 125 q 1173 102 1183 112 q 1146 81 1164 93 q 1107 57 1128 70 q 1063 31 1086 44 q 1021 5 1040 18 q 958 3 998 3 q 866 0 917 2 q 757 -8 815 -3 q 642 -22 699 -13 q 533 -47 585 -32 q 441 -86 481 -63 q 377 -142 401 -110 q 353 -218 353 -174 q 391 -324 353 -275 q 519 -406 430 -372 q 753 -455 608 -439 q 1112 -462 899 -471 q 1125 -465 1130 -460 q 1107 -482 1121 -470 q 944 -515 1028 -501 q 775 -536 859 -529 q 610 -542 691 -543 q 458 -529 530 -541 q 327 -493 387 -517 q 225 -431 267 -469 q 163 -340 184 -393 q 147 -215 142 -286 q 173 -119 150 -162 q 237 -43 197 -76 q 331 11 277 -11 q 450 43 385 33 q 381 65 423 47 q 296 107 340 82 q 213 160 252 132 q 153 217 174 189 q 146 233 147 224 q 153 246 144 241 q 180 261 164 251 q 214 283 197 271 q 249 309 232 295 q 277 337 265 323 q 306 337 288 353 q 450 239 370 280 q 633 172 530 197 q 868 135 737 146 q 1164 127 999 124 m 551 347 q 566 380 551 366 q 600 394 580 394 q 633 380 619 394 q 647 347 647 366 q 633 313 647 327 q 600 298 619 298 q 566 313 580 298 q 551 347 551 327 z "},"ﺦ":{"ha":962,"x_min":148,"x_max":1128,"o":"m 148 -208 q 170 -112 150 -154 q 220 -38 189 -70 q 292 17 252 -6 q 376 55 332 39 q 466 79 420 70 q 551 94 511 88 q 491 115 530 98 q 408 156 453 131 q 317 212 363 180 q 233 280 271 244 q 226 294 227 286 q 233 307 225 302 q 259 321 242 311 q 293 345 275 332 q 328 372 311 357 q 355 398 345 386 q 380 398 365 412 q 504 309 441 346 q 625 245 566 271 q 737 204 684 220 q 834 180 790 189 q 911 170 878 172 q 962 167 944 167 q 971 149 968 162 q 975 119 974 136 q 974 83 975 102 q 971 47 973 64 q 966 17 969 30 q 962 0 964 4 q 891 0 932 -1 q 802 1 850 1 q 701 -1 753 1 q 600 -11 649 -3 q 505 -33 550 -18 q 427 -70 460 -47 q 373 -126 393 -93 q 353 -207 353 -160 q 392 -314 353 -264 q 520 -397 431 -363 q 754 -448 609 -431 q 1112 -455 899 -464 q 1124 -456 1121 -454 q 1126 -461 1128 -458 q 1120 -469 1125 -465 q 1107 -475 1115 -473 q 946 -508 1029 -494 q 781 -529 863 -522 q 621 -535 699 -536 q 473 -523 543 -534 q 344 -487 403 -511 q 242 -425 285 -463 q 174 -333 199 -387 q 148 -208 149 -279 m 593 398 q 608 432 593 418 q 642 446 622 446 q 675 432 661 446 q 689 398 689 418 q 675 364 689 378 q 642 350 661 350 q 608 364 622 350 q 593 398 593 378 z "},"ﺧ":{"ha":1091,"x_min":-22,"x_max":1084,"o":"m 116 167 q 71 184 92 172 q 33 210 50 195 q 3 239 16 224 q -14 265 -9 254 q -20 280 -18 273 q -14 292 -22 287 q 12 308 -5 296 q 46 333 28 319 q 81 362 64 347 q 109 389 98 377 q 120 396 113 395 q 134 389 127 397 q 232 304 174 341 q 362 239 290 267 q 518 193 434 212 q 692 162 602 174 q 878 146 783 151 q 1070 143 974 142 q 1079 132 1084 141 q 1057 109 1074 122 q 1014 81 1039 96 q 962 53 988 66 q 912 31 935 40 q 876 20 888 22 q 806 13 859 16 q 676 7 754 9 q 497 3 597 5 q 283 1 397 1 l 283 0 l 0 0 q -13 86 -10 45 q 0 167 -16 128 q 61 159 29 159 q 116 167 94 159 m 427 370 q 441 403 427 389 q 475 417 455 417 q 508 403 494 417 q 522 370 522 389 q 508 336 522 350 q 475 321 494 321 q 441 336 455 321 q 427 370 427 350 z "},"ﺨ":{"ha":668,"x_min":-62,"x_max":679,"o":"m 90 401 q 241 306 165 345 q 393 240 318 267 q 537 196 467 213 q 668 167 607 178 q 677 123 675 146 q 678 78 679 100 q 674 35 677 56 q 668 0 671 15 l 0 0 q -13 86 -10 45 q 0 167 -16 128 q 61 159 29 159 q 116 167 94 159 q 49 200 78 184 q -1 231 20 216 q -36 256 -22 245 q -56 275 -50 268 q -59 290 -62 281 q -48 303 -56 298 q -24 319 -39 308 q 7 344 -9 330 q 39 373 24 358 q 65 401 55 388 q 90 401 74 413 m 262 409 q 276 443 262 429 q 310 456 290 456 q 343 443 330 456 q 357 409 357 429 q 343 375 357 389 q 310 361 330 361 q 276 375 290 361 q 262 409 262 389 z "},"د":{"ha":878,"x_min":98,"x_max":876,"o":"m 669 0 q 554 0 612 0 q 440 0 496 0 q 335 1 385 0 q 242 3 284 1 q 167 6 199 4 q 117 12 135 9 q 106 14 111 12 q 100 21 101 17 q 102 30 98 25 q 115 39 105 35 q 175 73 146 54 q 227 111 203 92 q 267 146 250 130 q 290 172 283 162 q 320 178 303 186 q 349 168 330 173 q 404 160 369 163 q 492 156 439 157 q 620 157 545 155 q 620 161 623 157 q 613 169 618 164 q 603 177 608 173 q 593 182 597 181 q 569 181 587 182 q 530 181 551 181 q 492 180 510 180 q 469 180 474 180 q 389 186 418 181 q 346 197 360 191 q 330 209 332 203 q 329 220 328 216 q 391 285 359 253 q 454 349 422 317 q 515 409 485 380 q 573 465 545 438 q 582 468 577 467 q 589 467 586 469 q 593 462 592 466 q 589 450 593 458 q 569 421 579 436 q 549 392 559 406 q 530 365 539 378 q 515 342 522 352 q 603 342 558 340 q 685 342 648 343 l 687 342 q 738 331 716 340 q 779 292 760 321 q 828 191 803 239 q 870 92 852 142 q 876 56 876 73 q 868 27 876 39 q 844 7 860 14 q 803 0 828 0 l 669 0 z "},"ﺪ":{"ha":923,"x_min":130,"x_max":937,"o":"m 909 0 q 770 0 844 0 q 619 -1 696 -1 q 469 -1 543 -1 q 331 1 395 -1 q 220 5 268 2 q 148 12 172 7 q 137 14 142 12 q 131 21 132 17 q 133 30 130 25 q 146 39 136 35 q 206 73 177 54 q 258 111 235 92 q 298 146 281 130 q 322 172 315 162 q 351 178 335 186 q 381 168 361 173 q 436 160 401 163 q 524 156 471 157 q 652 157 576 155 q 652 161 654 157 q 644 169 649 164 q 634 177 640 173 q 625 182 629 181 q 600 181 618 182 q 562 181 582 181 q 524 180 541 180 q 500 180 506 180 q 420 186 449 181 q 378 197 392 191 q 362 209 364 203 q 361 220 359 216 q 422 285 391 253 q 485 349 454 317 q 547 409 517 380 q 605 465 577 438 q 613 468 609 467 q 621 467 618 469 q 625 462 624 466 q 621 450 625 458 q 601 421 611 436 q 581 392 591 406 q 562 365 571 378 q 547 342 553 352 q 633 342 589 340 q 713 342 677 343 q 739 338 727 340 q 760 331 750 336 q 777 318 769 326 q 792 295 785 309 q 813 253 803 273 q 838 217 824 233 q 873 188 852 200 q 923 167 893 175 q 935 118 932 144 q 936 68 937 92 q 930 26 934 45 q 923 0 926 8 l 909 0 z "},"ذ":{"ha":878,"x_min":98,"x_max":876,"o":"m 669 0 q 554 0 612 0 q 440 0 496 0 q 335 1 385 0 q 242 3 284 1 q 167 6 199 4 q 117 12 135 9 q 106 14 111 12 q 100 21 101 17 q 102 30 98 25 q 115 39 105 35 q 175 73 146 54 q 227 111 203 92 q 267 146 250 130 q 290 172 283 162 q 320 178 303 186 q 349 168 330 173 q 404 160 369 163 q 492 156 439 157 q 620 157 545 155 q 620 161 623 157 q 613 169 618 164 q 603 177 608 173 q 593 182 597 181 q 569 181 587 182 q 530 181 551 181 q 492 180 510 180 q 469 180 474 180 q 389 186 418 181 q 346 197 360 191 q 330 209 332 203 q 329 220 328 216 q 391 285 359 253 q 454 349 422 317 q 515 409 485 380 q 573 465 545 438 q 582 468 577 467 q 589 467 586 469 q 593 462 592 466 q 589 450 593 458 q 569 421 579 436 q 549 392 559 406 q 530 365 539 378 q 515 342 522 352 q 603 342 558 340 q 685 342 648 343 l 687 342 q 738 331 716 340 q 779 292 760 321 q 828 191 803 239 q 870 92 852 142 q 876 56 876 73 q 868 27 876 39 q 844 7 860 14 q 803 0 828 0 l 669 0 m 505 564 q 519 597 505 583 q 553 611 534 611 q 587 597 573 611 q 601 564 601 583 q 587 530 601 544 q 553 515 573 515 q 519 530 534 515 q 505 564 505 544 z "},"ﺬ":{"ha":923,"x_min":130,"x_max":937,"o":"m 909 0 q 770 0 844 0 q 619 -1 696 -1 q 469 -1 543 -1 q 331 1 395 -1 q 220 5 268 2 q 148 12 172 7 q 137 14 142 12 q 131 21 132 17 q 133 30 130 25 q 146 39 136 35 q 206 73 177 54 q 258 111 235 92 q 298 146 281 130 q 322 172 315 162 q 351 178 335 186 q 381 168 361 173 q 436 160 401 163 q 524 156 471 157 q 652 157 576 155 q 652 161 654 157 q 644 169 649 164 q 634 177 640 173 q 625 182 629 181 q 600 181 618 182 q 562 181 582 181 q 524 180 541 180 q 500 180 506 180 q 420 186 449 181 q 378 197 392 191 q 362 209 364 203 q 361 220 359 216 q 422 285 391 253 q 485 349 454 317 q 547 409 517 380 q 605 465 577 438 q 613 468 609 467 q 621 467 618 469 q 625 462 624 466 q 621 450 625 458 q 601 421 611 436 q 581 392 591 406 q 562 365 571 378 q 547 342 553 352 q 633 342 589 340 q 713 342 677 343 q 739 338 727 340 q 760 331 750 336 q 777 318 769 326 q 792 295 785 309 q 813 253 803 273 q 838 217 824 233 q 873 188 852 200 q 923 167 893 175 q 935 118 932 144 q 936 68 937 92 q 930 26 934 45 q 923 0 926 8 l 909 0 m 527 562 q 541 595 527 581 q 575 609 555 609 q 609 595 595 609 q 623 562 623 581 q 609 528 623 542 q 575 513 595 513 q 541 528 555 513 q 527 562 527 542 z "},"ر":{"ha":743,"x_min":104,"x_max":736,"o":"m 522 432 q 576 374 547 408 q 635 302 606 340 q 687 223 663 263 q 723 147 711 183 q 734 94 733 119 q 728 46 736 68 q 702 7 720 24 q 655 -20 684 -10 q 600 -34 638 -28 q 511 -45 561 -41 q 404 -52 460 -50 q 292 -53 347 -54 q 190 -47 237 -52 q 113 -32 143 -42 q 105 -26 107 -30 q 105 -19 104 -23 q 109 -13 106 -16 q 115 -8 111 -9 q 161 23 138 5 q 202 61 184 42 q 234 96 221 79 q 252 121 248 112 q 261 129 257 127 q 271 126 265 131 q 310 110 286 117 q 361 100 333 103 q 405 96 377 96 q 462 97 433 96 q 517 101 492 98 q 555 106 543 103 q 559 114 562 106 q 550 128 556 122 q 522 125 540 127 q 484 121 505 123 q 441 119 463 120 q 401 118 419 118 q 357 120 378 117 q 318 127 336 122 q 290 138 301 132 q 275 151 278 144 q 301 188 285 165 q 337 238 317 211 q 378 295 357 266 q 417 351 399 325 q 451 398 436 378 q 474 429 467 419 q 493 446 483 441 q 522 432 503 450 z "},"ﺮ":{"ha":763,"x_min":145,"x_max":802,"o":"m 559 336 q 595 297 577 321 q 637 248 614 273 q 691 201 661 223 q 763 167 721 178 q 783 154 774 167 q 796 123 791 142 q 802 83 801 105 q 798 43 802 62 q 786 12 794 24 q 763 0 777 0 l 746 0 q 729 -88 752 -57 q 659 -130 707 -119 q 596 -140 636 -135 q 508 -148 557 -144 q 407 -151 460 -151 q 306 -149 355 -152 q 216 -140 257 -146 q 152 -122 176 -134 q 146 -116 147 -119 q 146 -111 145 -113 q 150 -106 147 -109 q 154 -103 152 -104 q 189 -74 170 -92 q 225 -37 208 -56 q 257 0 243 -18 q 277 29 271 18 q 287 35 281 35 q 296 31 292 34 q 333 7 312 16 q 382 -6 353 -1 q 429 -10 402 -9 q 481 -11 455 -11 q 531 -9 508 -10 q 569 -6 555 -7 q 572 -4 572 -6 q 570 2 572 -1 q 565 8 568 5 q 559 14 562 12 q 521 12 547 13 q 463 10 494 10 q 401 13 432 10 q 352 22 371 16 q 317 39 328 30 q 303 60 307 48 q 326 93 311 71 q 359 141 340 115 q 398 196 377 168 q 438 252 418 225 q 473 299 457 278 q 498 332 489 321 q 524 346 509 342 q 559 336 539 349 z "},"ز":{"ha":743,"x_min":104,"x_max":736,"o":"m 522 432 q 576 374 547 408 q 635 302 606 340 q 687 223 663 263 q 723 147 711 183 q 734 94 733 119 q 728 46 736 68 q 702 7 720 24 q 655 -20 684 -10 q 600 -34 638 -28 q 511 -45 561 -41 q 404 -52 460 -50 q 292 -53 347 -54 q 190 -47 237 -52 q 113 -32 143 -42 q 105 -26 107 -30 q 105 -19 104 -23 q 109 -13 106 -16 q 115 -8 111 -9 q 161 23 138 5 q 202 61 184 42 q 234 96 221 79 q 252 121 248 112 q 261 129 257 127 q 271 126 265 131 q 310 110 286 117 q 361 100 333 103 q 405 96 377 96 q 462 97 433 96 q 517 101 492 98 q 555 106 543 103 q 559 114 562 106 q 550 128 556 122 q 522 125 540 127 q 484 121 505 123 q 441 119 463 120 q 401 118 419 118 q 357 120 378 117 q 318 127 336 122 q 290 138 301 132 q 275 151 278 144 q 301 188 285 165 q 337 238 317 211 q 378 295 357 266 q 417 351 399 325 q 451 398 436 378 q 474 429 467 419 q 493 446 483 441 q 522 432 503 450 m 429 543 q 443 576 429 562 q 477 590 457 590 q 510 576 496 590 q 524 543 524 562 q 510 509 524 523 q 477 494 496 494 q 443 509 457 494 q 429 543 429 523 z "},"ﺰ":{"ha":763,"x_min":145,"x_max":802,"o":"m 559 336 q 595 297 577 321 q 637 248 614 273 q 691 201 661 223 q 763 167 721 178 q 783 154 774 167 q 796 123 791 142 q 802 83 801 105 q 798 43 802 62 q 786 12 794 24 q 763 0 777 0 l 746 0 q 729 -88 752 -57 q 659 -130 707 -119 q 596 -140 636 -135 q 508 -148 557 -144 q 407 -151 460 -151 q 306 -149 355 -152 q 216 -140 257 -146 q 152 -122 176 -134 q 146 -116 147 -119 q 146 -111 145 -113 q 150 -106 147 -109 q 154 -103 152 -104 q 189 -74 170 -92 q 225 -37 208 -56 q 257 0 243 -18 q 277 29 271 18 q 287 35 281 35 q 296 31 292 34 q 333 7 312 16 q 382 -6 353 -1 q 429 -10 402 -9 q 481 -11 455 -11 q 531 -9 508 -10 q 569 -6 555 -7 q 572 -4 572 -6 q 570 2 572 -1 q 565 8 568 5 q 559 14 562 12 q 521 12 547 13 q 463 10 494 10 q 401 13 432 10 q 352 22 371 16 q 317 39 328 30 q 303 60 307 48 q 326 93 311 71 q 359 141 340 115 q 398 196 377 168 q 438 252 418 225 q 473 299 457 278 q 498 332 489 321 q 524 346 509 342 q 559 336 539 349 m 446 444 q 460 478 446 464 q 494 492 475 492 q 528 478 514 492 q 542 444 542 464 q 528 410 542 425 q 494 396 514 396 q 460 410 475 396 q 446 444 446 425 z "},"س":{"ha":924,"x_min":136,"x_max":914,"o":"m 731 186 q 734 172 731 178 q 741 161 736 165 q 749 156 745 157 q 756 159 753 155 q 749 302 756 237 q 725 429 742 367 q 726 439 724 434 q 735 450 728 445 q 767 476 749 460 q 800 511 784 492 q 828 551 816 530 q 846 592 841 572 q 851 602 848 600 q 859 605 855 605 q 865 602 862 604 q 868 596 867 599 q 883 541 876 573 q 895 470 890 508 q 903 391 899 432 q 909 308 907 349 q 912 229 911 267 q 914 159 913 191 l 914 77 q 910 35 914 50 q 897 12 906 20 q 870 3 887 5 q 829 0 854 1 l 617 0 q 623 -106 622 -50 q 623 -215 624 -163 q 621 -309 623 -267 q 617 -374 618 -351 q 607 -413 613 -397 q 593 -437 601 -428 q 574 -452 585 -447 q 548 -459 563 -456 q 506 -462 531 -461 q 454 -463 481 -463 q 399 -461 427 -463 q 351 -459 372 -460 q 297 -454 327 -457 q 239 -447 268 -451 q 184 -438 210 -444 q 142 -427 159 -433 q 137 -421 136 -426 q 144 -413 138 -416 q 175 -389 159 -404 q 208 -356 192 -374 q 236 -319 223 -338 q 255 -286 248 -300 q 268 -279 260 -273 q 303 -296 283 -289 q 339 -307 323 -303 q 363 -310 347 -308 q 399 -312 380 -311 q 436 -314 418 -313 q 465 -315 454 -315 q 481 -300 481 -315 q 481 -265 481 -287 q 478 -216 480 -243 q 472 -159 476 -189 q 464 -100 469 -129 q 452 -44 458 -71 q 437 2 445 -18 q 399 49 425 28 q 340 86 372 70 q 277 114 309 102 q 222 133 245 125 q 217 141 216 136 q 224 153 218 145 q 273 200 254 177 q 306 243 293 223 q 328 279 319 262 q 341 306 336 295 q 350 313 345 312 q 363 310 355 313 q 407 292 380 303 q 465 262 435 280 q 525 221 496 245 q 574 165 554 197 l 574 175 q 572 205 574 188 q 568 241 570 222 q 562 277 565 259 q 556 310 559 295 q 558 322 555 316 q 564 330 561 328 q 593 350 577 337 q 626 378 610 362 q 654 413 642 394 q 675 454 667 433 q 683 469 678 468 q 693 456 688 470 q 709 396 702 431 q 720 324 715 361 q 728 251 725 287 q 731 186 730 215 z "},"ﺲ":{"ha":1058,"x_min":162,"x_max":1072,"o":"m 642 0 q 648 -107 646 -50 q 648 -216 649 -163 q 645 -311 647 -269 q 642 -376 643 -353 q 632 -415 637 -399 q 618 -439 627 -430 q 600 -454 610 -449 q 574 -461 589 -458 q 529 -463 555 -463 q 477 -464 504 -464 q 424 -463 450 -463 q 377 -461 397 -462 q 323 -457 353 -460 q 264 -450 293 -454 q 210 -440 235 -446 q 167 -429 184 -435 q 163 -423 162 -428 q 169 -415 164 -418 q 200 -391 184 -406 q 233 -358 217 -376 q 262 -321 249 -340 q 281 -288 275 -303 q 294 -281 285 -275 q 329 -298 309 -291 q 365 -309 349 -305 q 388 -312 372 -310 q 424 -314 405 -313 q 462 -316 444 -315 q 490 -317 480 -317 q 507 -302 507 -317 q 507 -267 507 -289 q 504 -218 506 -245 q 498 -161 502 -191 q 489 -102 494 -131 q 477 -46 484 -73 q 463 0 471 -20 q 424 47 451 26 q 366 84 397 68 q 302 112 334 100 q 248 131 271 123 q 250 149 237 136 q 299 198 279 174 q 332 241 319 221 q 353 277 345 260 q 367 304 361 293 q 376 311 370 310 q 387 308 381 311 q 434 290 406 301 q 494 260 463 278 q 554 217 525 242 q 604 159 584 192 q 603 192 604 173 q 599 232 602 211 q 593 273 596 253 q 586 310 590 294 q 588 322 585 316 q 594 330 591 328 q 623 350 607 337 q 655 378 640 362 q 684 413 671 394 q 705 454 697 433 q 713 469 708 468 q 723 456 718 470 q 738 400 731 433 q 748 331 744 367 q 755 259 753 295 q 760 193 758 223 q 763 171 760 180 q 771 159 766 163 q 780 155 776 155 q 786 159 785 155 q 779 302 786 237 q 755 429 772 367 q 755 439 753 434 q 765 450 758 445 q 796 476 779 460 q 829 511 813 492 q 858 551 846 530 q 876 592 871 572 q 881 602 878 600 q 888 605 885 605 q 895 602 892 604 q 898 596 897 599 q 912 544 906 574 q 923 479 918 514 q 931 406 928 444 q 937 330 935 368 q 945 276 938 301 q 966 229 952 250 q 1003 192 981 208 q 1058 167 1026 176 q 1069 118 1067 144 q 1070 68 1072 92 q 1064 26 1068 45 q 1058 0 1061 8 l 642 0 z "},"ﺳ":{"ha":485,"x_min":-65,"x_max":477,"o":"m -55 167 q -46 174 -48 164 q -45 199 -44 184 q -47 226 -45 213 q -50 241 -50 239 q -49 249 -50 245 q -41 255 -48 252 q -13 274 -28 264 q 18 296 3 284 q 47 322 33 309 q 71 352 61 336 q 83 362 77 361 q 92 354 89 363 q 99 316 95 341 q 106 262 103 291 q 112 205 110 233 q 115 159 115 177 q 127 155 119 155 q 134 159 134 156 q 133 189 134 170 q 130 230 132 208 q 125 272 128 251 q 119 310 123 294 q 120 322 117 316 q 127 330 123 328 q 157 350 140 337 q 189 378 173 362 q 218 413 205 394 q 238 454 231 433 q 247 469 241 468 q 256 456 252 470 q 273 389 266 429 q 286 308 281 350 q 295 226 292 266 q 298 159 298 186 q 310 155 303 156 q 319 159 316 155 q 312 302 319 237 q 288 429 305 367 q 288 439 286 434 q 298 450 290 445 q 329 476 312 460 q 363 511 347 492 q 392 551 379 530 q 409 592 404 572 q 415 602 411 600 q 422 605 418 605 q 428 602 425 604 q 431 596 431 599 q 446 541 439 573 q 457 470 452 508 q 466 391 463 432 q 472 308 469 349 q 475 229 474 267 q 477 159 476 191 l 477 77 q 473 35 477 50 q 459 12 469 20 q 433 3 450 5 q 393 0 417 1 l -55 0 q -61 28 -59 12 q -64 63 -63 45 q -65 99 -65 81 q -63 132 -64 117 q -60 156 -62 146 q -55 167 -58 165 z "},"ﺴ":{"ha":570,"x_min":-74,"x_max":583,"o":"m -60 165 q -53 187 -53 163 q -71 266 -53 210 q -70 274 -71 271 q -62 280 -69 277 q -34 308 -50 289 q -2 350 -18 328 q 25 393 13 372 q 43 427 37 414 q 55 436 47 436 q 66 427 62 437 q 76 402 70 419 q 89 364 82 385 q 101 321 95 343 q 111 278 108 298 l 112 278 q 141 303 125 287 q 174 341 158 320 q 204 385 191 362 q 223 427 217 407 q 235 438 227 437 q 248 429 243 438 q 258 403 252 420 q 270 365 264 386 q 282 321 277 344 q 291 278 288 298 q 318 305 304 287 q 345 346 332 323 q 369 392 358 368 q 386 437 380 416 q 398 446 389 446 q 410 437 406 446 q 428 387 421 414 q 440 333 434 360 q 454 281 446 307 q 477 233 463 255 q 513 194 491 211 q 570 167 535 176 q 581 118 579 144 q 582 68 583 92 q 576 26 580 45 q 570 0 572 8 l -66 0 q -73 43 -72 18 q -72 93 -74 68 q -67 138 -71 117 q -60 165 -64 158 z "},"ش":{"ha":924,"x_min":136,"x_max":914,"o":"m 731 186 q 734 172 731 178 q 741 161 736 165 q 749 156 745 157 q 756 159 753 155 q 749 302 756 237 q 725 429 742 367 q 726 439 724 434 q 735 450 728 445 q 767 476 749 460 q 800 511 784 492 q 828 551 816 530 q 846 592 841 572 q 851 602 848 600 q 859 605 855 605 q 865 602 862 604 q 868 596 867 599 q 883 541 876 573 q 895 470 890 508 q 903 391 899 432 q 909 308 907 349 q 912 229 911 267 q 914 159 913 191 l 914 77 q 910 35 914 50 q 897 12 906 20 q 870 3 887 5 q 829 0 854 1 l 617 0 q 623 -106 622 -50 q 623 -215 624 -163 q 621 -309 623 -267 q 617 -374 618 -351 q 607 -413 613 -397 q 593 -437 601 -428 q 574 -452 585 -447 q 548 -459 563 -456 q 506 -462 531 -461 q 454 -463 481 -463 q 399 -461 427 -463 q 351 -459 372 -460 q 297 -454 327 -457 q 239 -447 268 -451 q 184 -438 210 -444 q 142 -427 159 -433 q 137 -421 136 -426 q 144 -413 138 -416 q 175 -389 159 -404 q 208 -356 192 -374 q 236 -319 223 -338 q 255 -286 248 -300 q 268 -279 260 -273 q 303 -296 283 -289 q 339 -307 323 -303 q 363 -310 347 -308 q 399 -312 380 -311 q 436 -314 418 -313 q 465 -315 454 -315 q 481 -300 481 -315 q 481 -265 481 -287 q 478 -216 480 -243 q 472 -159 476 -189 q 464 -100 469 -129 q 452 -44 458 -71 q 437 2 445 -18 q 399 49 425 28 q 340 86 372 70 q 277 114 309 102 q 222 133 245 125 q 217 141 216 136 q 224 153 218 145 q 273 200 254 177 q 306 243 293 223 q 328 279 319 262 q 341 306 336 295 q 350 313 345 312 q 363 310 355 313 q 407 292 380 303 q 465 262 435 280 q 525 221 496 245 q 574 165 554 197 l 574 175 q 572 205 574 188 q 568 241 570 222 q 562 277 565 259 q 556 310 559 295 q 558 322 555 316 q 564 330 561 328 q 593 350 577 337 q 626 378 610 362 q 654 413 642 394 q 675 454 667 433 q 683 469 678 468 q 693 456 688 470 q 709 396 702 431 q 720 324 715 361 q 728 251 725 287 q 731 186 730 215 m 500 594 q 514 628 500 614 q 548 642 528 642 q 582 628 568 642 q 595 594 595 614 q 582 560 595 574 q 548 546 568 546 q 514 560 528 546 q 500 594 500 574 m 595 594 q 609 628 595 614 q 643 642 623 642 q 677 628 663 642 q 691 594 691 614 q 677 560 691 574 q 643 546 663 546 q 609 560 623 546 q 595 594 595 574 m 547 687 q 561 721 547 707 q 595 734 575 734 q 629 721 614 734 q 643 687 643 707 q 629 653 643 667 q 595 639 614 639 q 561 653 575 639 q 547 687 547 667 z "},"ﺶ":{"ha":1058,"x_min":162,"x_max":1072,"o":"m 642 0 q 648 -107 646 -50 q 648 -216 649 -163 q 645 -311 647 -269 q 642 -376 643 -353 q 632 -415 637 -399 q 618 -439 627 -430 q 600 -454 610 -449 q 574 -461 589 -458 q 529 -463 555 -463 q 477 -464 504 -464 q 424 -463 450 -463 q 377 -461 397 -462 q 323 -457 353 -460 q 264 -450 293 -454 q 210 -440 235 -446 q 167 -429 184 -435 q 163 -423 162 -428 q 169 -415 164 -418 q 200 -391 184 -406 q 233 -358 217 -376 q 262 -321 249 -340 q 281 -288 275 -303 q 294 -281 285 -275 q 329 -298 309 -291 q 365 -309 349 -305 q 388 -312 372 -310 q 424 -314 405 -313 q 462 -316 444 -315 q 490 -317 480 -317 q 507 -302 507 -317 q 507 -267 507 -289 q 504 -218 506 -245 q 498 -161 502 -191 q 489 -102 494 -131 q 477 -46 484 -73 q 463 0 471 -20 q 424 47 451 26 q 366 84 397 68 q 302 112 334 100 q 248 131 271 123 q 250 149 237 136 q 299 198 279 174 q 332 241 319 221 q 353 277 345 260 q 367 304 361 293 q 376 311 370 310 q 387 308 381 311 q 434 290 406 301 q 494 260 463 278 q 554 217 525 242 q 604 159 584 192 q 603 192 604 173 q 599 232 602 211 q 593 273 596 253 q 586 310 590 294 q 588 322 585 316 q 594 330 591 328 q 623 350 607 337 q 655 378 640 362 q 684 413 671 394 q 705 454 697 433 q 713 469 708 468 q 723 456 718 470 q 738 400 731 433 q 748 331 744 367 q 755 259 753 295 q 760 193 758 223 q 763 171 760 180 q 771 159 766 163 q 780 155 776 155 q 786 159 785 155 q 779 302 786 237 q 755 429 772 367 q 755 439 753 434 q 765 450 758 445 q 796 476 779 460 q 829 511 813 492 q 858 551 846 530 q 876 592 871 572 q 881 602 878 600 q 888 605 885 605 q 895 602 892 604 q 898 596 897 599 q 912 544 906 574 q 923 479 918 514 q 931 406 928 444 q 937 330 935 368 q 945 276 938 301 q 966 229 952 250 q 1003 192 981 208 q 1058 167 1026 176 q 1069 118 1067 144 q 1070 68 1072 92 q 1064 26 1068 45 q 1058 0 1061 8 l 642 0 m 549 559 q 563 593 549 579 q 597 607 577 607 q 630 593 616 607 q 644 559 644 579 q 630 526 644 540 q 597 511 616 511 q 563 526 577 511 q 549 559 549 540 m 644 559 q 658 593 644 579 q 692 607 672 607 q 726 593 711 607 q 740 559 740 579 q 726 526 740 540 q 692 511 711 511 q 658 526 672 511 q 644 559 644 540 m 596 652 q 610 686 596 672 q 644 700 624 700 q 677 686 663 700 q 692 652 692 672 q 677 618 692 633 q 644 604 663 604 q 610 618 624 604 q 596 652 596 633 z "},"ﺷ":{"ha":485,"x_min":-65,"x_max":477,"o":"m -55 167 q -46 174 -48 164 q -45 199 -44 184 q -47 226 -45 213 q -50 241 -50 239 q -49 249 -50 245 q -41 255 -48 252 q -13 274 -28 264 q 18 296 3 284 q 47 322 33 309 q 71 352 61 336 q 83 362 77 361 q 92 354 89 363 q 99 316 95 341 q 106 262 103 291 q 112 205 110 233 q 115 159 115 177 q 127 155 119 155 q 134 159 134 156 q 133 189 134 170 q 130 230 132 208 q 125 272 128 251 q 119 310 123 294 q 120 322 117 316 q 127 330 123 328 q 157 350 140 337 q 189 378 173 362 q 218 413 205 394 q 238 454 231 433 q 247 469 241 468 q 256 456 252 470 q 273 389 266 429 q 286 308 281 350 q 295 226 292 266 q 298 159 298 186 q 310 155 303 156 q 319 159 316 155 q 312 302 319 237 q 288 429 305 367 q 288 439 286 434 q 298 450 290 445 q 329 476 312 460 q 363 511 347 492 q 392 551 379 530 q 409 592 404 572 q 415 602 411 600 q 422 605 418 605 q 428 602 425 604 q 431 596 431 599 q 446 541 439 573 q 457 470 452 508 q 466 391 463 432 q 472 308 469 349 q 475 229 474 267 q 477 159 476 191 l 477 77 q 473 35 477 50 q 459 12 469 20 q 433 3 450 5 q 393 0 417 1 l -55 0 q -61 28 -59 12 q -64 63 -63 45 q -65 99 -65 81 q -63 132 -64 117 q -60 156 -62 146 q -55 167 -58 165 m 71 584 q 85 617 71 604 q 119 631 99 631 q 152 617 138 631 q 166 584 166 604 q 152 550 166 564 q 119 536 138 536 q 85 550 99 536 q 71 584 71 564 m 166 584 q 180 617 166 604 q 214 631 194 631 q 248 617 233 631 q 262 584 262 604 q 248 550 262 564 q 214 536 233 536 q 180 550 194 536 q 166 584 166 564 m 118 677 q 132 710 118 696 q 165 724 146 724 q 199 710 185 724 q 214 677 214 696 q 199 643 214 657 q 165 629 185 629 q 132 643 146 629 q 118 677 118 657 z "},"ﺸ":{"ha":570,"x_min":-74,"x_max":583,"o":"m -60 165 q -53 187 -53 163 q -71 266 -53 210 q -70 274 -71 271 q -62 280 -69 277 q -34 308 -50 289 q -2 350 -18 328 q 25 393 13 372 q 43 427 37 414 q 55 436 47 436 q 66 427 62 437 q 76 402 70 419 q 89 364 82 385 q 101 321 95 343 q 111 278 108 298 l 112 278 q 141 303 125 287 q 174 341 158 320 q 204 385 191 362 q 223 427 217 407 q 235 438 227 437 q 248 429 243 438 q 258 403 252 420 q 270 365 264 386 q 282 321 277 344 q 291 278 288 298 q 318 305 304 287 q 345 346 332 323 q 369 392 358 368 q 386 437 380 416 q 398 446 389 446 q 410 437 406 446 q 428 387 421 414 q 440 333 434 360 q 454 281 446 307 q 477 233 463 255 q 513 194 491 211 q 570 167 535 176 q 581 118 579 144 q 582 68 583 92 q 576 26 580 45 q 570 0 572 8 l -66 0 q -73 43 -72 18 q -72 93 -74 68 q -67 138 -71 117 q -60 165 -64 158 m 130 556 q 144 590 130 576 q 178 604 159 604 q 212 590 198 604 q 226 556 226 576 q 212 522 226 536 q 178 508 198 508 q 144 522 159 508 q 130 556 130 536 m 226 556 q 240 590 226 576 q 273 604 254 604 q 307 590 293 604 q 321 556 321 576 q 307 522 321 536 q 273 508 293 508 q 240 522 254 508 q 226 556 226 536 m 178 649 q 192 683 178 669 q 225 696 205 696 q 259 683 245 696 q 273 649 273 669 q 259 615 273 629 q 225 601 245 601 q 192 615 205 601 q 178 649 178 629 z "},"ص":{"ha":1138,"x_min":138,"x_max":1122,"o":"m 354 -332 q 299 -328 329 -330 q 241 -321 270 -325 q 186 -312 212 -317 q 143 -300 160 -307 q 139 -294 138 -299 q 145 -286 140 -290 q 177 -262 160 -277 q 210 -229 194 -246 q 238 -192 225 -211 q 258 -159 251 -174 q 263 -152 260 -154 q 271 -153 266 -149 q 305 -169 285 -162 q 342 -179 326 -176 q 365 -182 349 -180 q 401 -185 382 -184 q 438 -186 420 -186 q 467 -187 456 -187 q 483 -173 483 -187 q 483 -132 484 -159 q 480 -70 482 -104 q 474 5 478 -35 q 466 81 471 44 q 454 151 461 119 q 439 202 448 182 q 409 248 427 228 q 370 283 391 268 q 326 310 349 299 q 281 330 303 321 q 283 348 270 335 q 332 396 312 373 q 365 439 351 419 q 386 475 378 459 q 399 503 394 491 q 408 509 403 509 q 421 507 414 510 q 453 491 435 500 q 490 469 471 482 q 526 436 508 455 q 560 393 545 418 q 566 402 562 398 q 572 410 569 407 q 577 415 575 414 q 581 415 580 416 q 589 400 583 406 q 604 393 595 395 q 621 391 612 391 q 640 391 630 391 l 944 391 q 959 391 949 391 q 978 389 968 391 q 998 382 988 387 q 1014 368 1008 377 q 1045 316 1030 346 q 1071 255 1059 286 q 1092 197 1082 224 q 1107 151 1101 170 q 1120 82 1122 107 q 1098 43 1118 57 q 1039 23 1078 29 q 939 12 1000 17 q 843 7 884 9 q 767 3 802 5 q 699 1 732 1 q 625 0 665 0 q 624 -79 625 -41 q 622 -150 623 -117 q 620 -208 621 -183 q 618 -246 619 -233 q 609 -286 614 -271 q 595 -311 603 -301 q 575 -325 587 -320 q 550 -332 564 -329 q 506 -334 531 -333 q 453 -334 480 -334 q 400 -333 426 -334 q 354 -332 374 -332 m 621 191 l 621 159 q 699 159 659 159 q 774 159 738 159 q 843 160 811 159 q 899 163 876 161 q 902 168 904 163 q 899 177 901 174 l 892 189 q 887 193 890 193 q 880 193 883 193 l 621 191 z "},"ﺺ":{"ha":1167,"x_min":130,"x_max":1181,"o":"m 616 0 q 615 -79 616 -41 q 613 -150 614 -117 q 611 -208 612 -183 q 610 -246 610 -233 q 600 -286 606 -271 q 587 -311 595 -301 q 567 -325 578 -320 q 542 -332 556 -329 q 497 -334 523 -333 q 445 -334 472 -334 q 392 -333 418 -334 q 345 -332 366 -332 q 291 -328 320 -330 q 232 -321 261 -325 q 177 -312 203 -317 q 135 -300 152 -307 q 131 -294 130 -299 q 137 -286 132 -290 q 169 -262 152 -277 q 201 -229 185 -246 q 229 -192 216 -211 q 250 -159 242 -174 q 254 -152 251 -154 q 262 -153 257 -149 q 297 -169 277 -162 q 333 -179 317 -176 q 356 -182 340 -180 q 392 -185 373 -184 q 430 -186 412 -186 q 458 -187 448 -187 q 475 -173 475 -187 q 475 -132 475 -159 q 472 -70 474 -104 q 466 5 470 -35 q 457 81 463 44 q 446 151 452 119 q 431 202 439 182 q 401 248 419 228 q 362 283 383 268 q 317 310 340 299 q 272 330 294 321 q 274 348 261 335 q 323 392 303 373 q 356 425 343 410 q 378 450 370 439 q 391 473 386 462 q 400 479 395 479 q 412 477 406 480 q 445 467 427 471 q 481 454 463 462 q 518 432 500 446 q 552 393 536 418 q 557 402 554 398 q 564 410 561 407 q 569 415 567 414 q 572 415 572 416 q 581 400 575 406 q 595 393 587 395 q 612 391 603 391 q 631 391 622 391 l 932 391 q 947 391 938 391 q 966 389 956 391 q 986 382 977 387 q 1002 368 996 377 q 1024 330 1015 350 q 1042 288 1033 309 q 1062 248 1052 267 q 1087 212 1073 228 q 1123 184 1103 195 q 1167 167 1143 174 q 1179 118 1177 144 q 1180 68 1181 92 q 1174 26 1178 45 q 1167 0 1170 8 l 616 0 m 612 191 l 612 159 q 645 159 627 159 q 691 159 663 159 q 765 159 720 159 q 878 161 809 160 q 881 167 882 161 q 878 176 879 172 l 871 188 q 866 192 870 191 q 859 192 863 192 l 612 191 z "},"ﺻ":{"ha":669,"x_min":-71,"x_max":661,"o":"m -45 198 q -50 271 -45 237 q -67 340 -56 305 q -63 356 -71 351 q 7 429 -21 391 q 50 505 35 468 q 59 517 54 517 q 68 511 64 518 q 84 461 77 494 q 98 383 90 429 q 102 396 99 390 q 110 408 106 403 q 116 414 113 412 q 120 415 119 416 q 129 400 123 406 q 143 393 135 395 q 160 391 151 391 q 179 391 170 391 l 483 391 q 498 391 488 391 q 517 389 507 391 q 537 382 528 387 q 553 368 547 377 q 584 316 570 346 q 610 256 598 286 q 632 199 623 226 q 647 153 641 172 q 658 83 661 109 q 634 44 655 58 q 575 24 614 30 q 481 14 537 19 q 291 4 384 7 q 106 0 197 1 l -45 0 l -45 198 m 116 191 l 116 159 q 199 159 154 159 q 287 159 243 159 q 368 160 330 159 q 428 163 405 161 q 431 168 433 163 q 428 177 429 174 l 422 189 q 417 193 420 193 q 410 193 413 193 l 116 191 z "},"ﺼ":{"ha":714,"x_min":-72,"x_max":728,"o":"m -47 0 l -46 199 q -52 272 -46 238 q -68 340 -57 305 q -64 356 -72 351 q 6 429 -22 391 q 49 505 34 468 q 59 517 54 517 q 67 511 64 518 q 83 461 77 494 q 96 383 90 429 q 101 396 98 390 q 108 408 104 403 q 115 414 112 412 q 119 415 118 416 q 127 400 121 406 q 142 393 134 395 q 159 391 150 391 q 178 391 168 391 l 482 391 q 497 391 488 391 q 516 389 506 391 q 536 382 526 387 q 552 368 546 377 q 577 320 567 345 q 599 269 587 294 q 627 222 611 244 q 672 184 644 200 q 692 174 682 178 q 714 167 703 170 q 726 118 724 144 q 726 68 728 92 q 721 26 724 45 q 714 0 717 8 l -47 0 m 115 190 l 115 157 q 197 157 153 157 q 286 158 242 157 q 366 159 329 158 q 427 161 404 160 q 430 167 432 161 q 427 176 429 172 l 421 188 q 416 192 420 191 q 409 192 412 192 l 115 190 z "},"ض":{"ha":1138,"x_min":138,"x_max":1122,"o":"m 354 -332 q 299 -328 329 -330 q 241 -321 270 -325 q 186 -312 212 -317 q 143 -300 160 -307 q 139 -294 138 -299 q 145 -286 140 -290 q 177 -262 160 -277 q 210 -229 194 -246 q 238 -192 225 -211 q 258 -159 251 -174 q 263 -152 260 -154 q 271 -153 266 -149 q 305 -169 285 -162 q 342 -179 326 -176 q 365 -182 349 -180 q 401 -185 382 -184 q 438 -186 420 -186 q 467 -187 456 -187 q 483 -173 483 -187 q 483 -132 484 -159 q 480 -70 482 -104 q 474 5 478 -35 q 466 81 471 44 q 454 151 461 119 q 439 202 448 182 q 409 248 427 228 q 370 283 391 268 q 326 310 349 299 q 281 330 303 321 q 283 348 270 335 q 332 396 312 373 q 365 439 351 419 q 386 475 378 459 q 399 503 394 491 q 408 509 403 509 q 421 507 414 510 q 453 491 435 500 q 490 469 471 482 q 526 436 508 455 q 560 393 545 418 q 566 402 562 398 q 572 410 569 407 q 577 415 575 414 q 581 415 580 416 q 589 400 583 406 q 604 393 595 395 q 621 391 612 391 q 640 391 630 391 l 944 391 q 959 391 949 391 q 978 389 968 391 q 998 382 988 387 q 1014 368 1008 377 q 1045 316 1030 346 q 1071 255 1059 286 q 1092 197 1082 224 q 1107 151 1101 170 q 1120 82 1122 107 q 1098 43 1118 57 q 1039 23 1078 29 q 939 12 1000 17 q 843 7 884 9 q 767 3 802 5 q 699 1 732 1 q 625 0 665 0 q 624 -79 625 -41 q 622 -150 623 -117 q 620 -208 621 -183 q 618 -246 619 -233 q 609 -286 614 -271 q 595 -311 603 -301 q 575 -325 587 -320 q 550 -332 564 -329 q 506 -334 531 -333 q 453 -334 480 -334 q 400 -333 426 -334 q 354 -332 374 -332 m 621 191 l 621 159 q 699 159 659 159 q 774 159 738 159 q 843 160 811 159 q 899 163 876 161 q 902 168 904 163 q 899 177 901 174 l 892 189 q 887 193 890 193 q 880 193 883 193 l 621 191 m 707 522 q 722 555 707 541 q 755 569 736 569 q 789 555 775 569 q 803 522 803 541 q 789 488 803 502 q 755 473 775 473 q 722 488 736 473 q 707 522 707 502 z "},"ﺾ":{"ha":1167,"x_min":130,"x_max":1181,"o":"m 616 0 q 615 -79 616 -41 q 613 -150 614 -117 q 611 -208 612 -183 q 610 -246 610 -233 q 600 -286 606 -271 q 587 -311 595 -301 q 567 -325 578 -320 q 542 -332 556 -329 q 497 -334 523 -333 q 445 -334 472 -334 q 392 -333 418 -334 q 345 -332 366 -332 q 291 -328 320 -330 q 232 -321 261 -325 q 177 -312 203 -317 q 135 -300 152 -307 q 131 -294 130 -299 q 137 -286 132 -290 q 169 -262 152 -277 q 201 -229 185 -246 q 229 -192 216 -211 q 250 -159 242 -174 q 254 -152 251 -154 q 262 -153 257 -149 q 297 -169 277 -162 q 333 -179 317 -176 q 356 -182 340 -180 q 392 -185 373 -184 q 430 -186 412 -186 q 458 -187 448 -187 q 475 -173 475 -187 q 475 -132 475 -159 q 472 -70 474 -104 q 466 5 470 -35 q 457 81 463 44 q 446 151 452 119 q 431 202 439 182 q 401 248 419 228 q 362 283 383 268 q 317 310 340 299 q 272 330 294 321 q 274 348 261 335 q 323 392 303 373 q 356 425 343 410 q 378 450 370 439 q 391 473 386 462 q 400 479 395 479 q 412 477 406 480 q 445 467 427 471 q 481 454 463 462 q 518 432 500 446 q 552 393 536 418 q 557 402 554 398 q 564 410 561 407 q 569 415 567 414 q 572 415 572 416 q 581 400 575 406 q 595 393 587 395 q 612 391 603 391 q 631 391 622 391 l 932 391 q 947 391 938 391 q 966 389 956 391 q 986 382 977 387 q 1002 368 996 377 q 1024 330 1015 350 q 1042 288 1033 309 q 1062 248 1052 267 q 1087 212 1073 228 q 1123 184 1103 195 q 1167 167 1143 174 q 1179 118 1177 144 q 1180 68 1181 92 q 1174 26 1178 45 q 1167 0 1170 8 l 616 0 m 612 191 l 612 159 q 645 159 627 159 q 691 159 663 159 q 765 159 720 159 q 878 161 809 160 q 881 167 882 161 q 878 176 879 172 l 871 188 q 866 192 870 191 q 859 192 863 192 l 612 191 m 688 532 q 703 566 688 552 q 736 580 717 580 q 770 566 756 580 q 784 532 784 552 q 770 498 784 513 q 736 484 756 484 q 703 498 717 484 q 688 532 688 513 z "},"ﺿ":{"ha":669,"x_min":-71,"x_max":661,"o":"m -45 198 q -50 271 -45 237 q -67 340 -56 305 q -63 356 -71 351 q 7 429 -21 391 q 50 505 35 468 q 59 517 54 517 q 68 511 64 518 q 84 461 77 494 q 98 383 90 429 q 102 396 99 390 q 110 408 106 403 q 116 414 113 412 q 120 415 119 416 q 129 400 123 406 q 143 393 135 395 q 160 391 151 391 q 179 391 170 391 l 483 391 q 498 391 488 391 q 517 389 507 391 q 537 382 528 387 q 553 368 547 377 q 584 316 570 346 q 610 256 598 286 q 632 199 623 226 q 647 153 641 172 q 658 83 661 109 q 634 44 655 58 q 575 24 614 30 q 481 14 537 19 q 291 4 384 7 q 106 0 197 1 l -45 0 l -45 198 m 116 191 l 116 159 q 199 159 154 159 q 287 159 243 159 q 368 160 330 159 q 428 163 405 161 q 431 168 433 163 q 428 177 429 174 l 422 189 q 417 193 420 193 q 410 193 413 193 l 116 191 m 233 542 q 248 575 233 562 q 281 589 262 589 q 315 575 301 589 q 329 542 329 562 q 315 508 329 522 q 281 494 301 494 q 248 508 262 494 q 233 542 233 522 z "},"ﻀ":{"ha":714,"x_min":-72,"x_max":728,"o":"m -47 0 l -46 199 q -52 272 -46 238 q -68 340 -57 305 q -64 356 -72 351 q 6 429 -22 391 q 49 505 34 468 q 59 517 54 517 q 67 511 64 518 q 83 461 77 494 q 96 383 90 429 q 101 396 98 390 q 108 408 104 403 q 115 414 112 412 q 119 415 118 416 q 127 400 121 406 q 142 393 134 395 q 159 391 150 391 q 178 391 168 391 l 482 391 q 497 391 488 391 q 516 389 506 391 q 536 382 526 387 q 552 368 546 377 q 577 320 567 345 q 599 269 587 294 q 627 222 611 244 q 672 184 644 200 q 692 174 682 178 q 714 167 703 170 q 726 118 724 144 q 726 68 728 92 q 721 26 724 45 q 714 0 717 8 l -47 0 m 115 190 l 115 157 q 197 157 153 157 q 286 158 242 157 q 366 159 329 158 q 427 161 404 160 q 430 167 432 161 q 427 176 429 172 l 421 188 q 416 192 420 191 q 409 192 412 192 l 115 190 m 248 544 q 262 577 248 564 q 296 591 276 591 q 329 577 315 591 q 343 544 343 564 q 329 510 343 524 q 296 496 315 496 q 262 510 276 496 q 248 544 248 524 z "},"ط":{"ha":1301,"x_min":174,"x_max":1296,"o":"m 407 191 q 438 180 419 186 q 482 169 458 174 q 534 161 506 164 q 592 159 562 158 q 594 326 592 240 q 595 495 597 412 q 587 656 594 578 q 559 798 579 733 q 559 813 555 809 q 567 821 562 817 q 607 856 589 836 q 638 898 625 876 q 662 941 652 919 q 677 981 671 962 q 689 991 682 995 q 700 977 696 987 q 727 870 716 939 q 742 696 737 802 q 742 630 742 666 q 743 554 743 593 q 743 473 743 514 q 742 393 743 432 q 746 400 743 395 q 752 408 749 404 q 759 414 755 412 q 763 415 762 416 q 772 400 766 406 q 786 393 778 395 q 803 391 794 391 q 821 391 812 391 l 1117 391 q 1132 391 1122 391 q 1152 389 1141 391 q 1172 382 1162 387 q 1188 368 1182 377 q 1219 320 1204 346 q 1245 270 1234 295 q 1266 222 1257 245 q 1282 181 1276 199 q 1294 106 1296 136 q 1273 57 1293 76 q 1213 27 1253 37 q 1113 12 1174 17 q 842 2 977 5 q 575 0 707 0 q 349 9 444 0 q 191 31 254 18 q 179 34 184 31 q 174 40 175 37 q 177 48 174 44 q 191 56 181 52 q 256 81 227 66 q 309 112 286 96 q 351 147 332 129 q 384 185 369 165 q 394 194 389 193 q 407 191 399 195 m 740 159 q 820 159 779 159 q 899 159 861 159 q 970 160 937 159 q 1027 163 1003 161 q 1034 169 1034 164 q 1034 177 1035 174 l 1029 187 q 1023 193 1028 192 q 1015 193 1019 193 l 740 191 q 741 173 741 182 q 740 159 740 165 z "},"ﻂ":{"ha":1362,"x_min":177,"x_max":1377,"o":"m 595 159 q 598 321 597 237 q 597 488 600 405 q 586 651 594 572 q 563 798 578 730 q 563 813 559 809 q 571 821 566 817 q 610 856 593 836 q 642 898 628 876 q 665 941 655 919 q 681 981 675 962 q 687 990 684 988 q 694 991 690 992 q 700 986 697 989 q 705 977 703 982 q 731 870 720 939 q 746 696 741 802 q 746 630 746 666 q 747 554 747 593 q 747 473 747 514 q 746 393 747 432 q 750 400 747 395 q 756 408 753 404 q 762 414 759 412 q 766 415 765 416 q 776 400 770 406 q 790 393 782 395 q 807 391 798 391 q 825 391 816 391 l 1122 391 q 1136 391 1127 391 q 1156 389 1145 391 q 1176 382 1166 387 q 1192 368 1185 377 q 1231 304 1213 338 q 1262 241 1249 271 q 1303 194 1278 211 q 1362 167 1328 176 q 1374 118 1372 144 q 1375 68 1377 92 q 1369 26 1373 45 q 1362 0 1365 8 l 578 0 q 352 9 447 0 q 194 31 258 18 q 183 34 187 31 q 178 40 178 37 q 181 48 177 44 q 194 56 184 52 q 260 81 231 66 q 312 112 289 96 q 354 147 336 129 q 387 185 372 165 q 397 194 392 193 q 410 191 402 195 q 442 180 422 186 q 485 169 461 174 q 537 161 509 164 q 595 159 566 158 m 744 185 q 824 185 783 185 q 903 185 865 185 q 974 187 941 186 q 1032 189 1008 188 q 1039 195 1038 191 q 1038 203 1040 200 l 1034 214 q 1027 219 1033 218 q 1019 220 1022 220 l 744 218 q 745 200 745 208 q 744 185 744 191 z "},"ﻃ":{"ha":663,"x_min":-77,"x_max":663,"o":"m 110 696 q 110 630 110 666 q 111 554 111 593 q 111 473 111 514 q 110 393 111 432 q 114 400 111 395 q 120 408 117 404 q 126 414 123 412 q 130 415 129 416 q 140 400 134 406 q 154 393 146 395 q 171 391 161 391 q 189 391 180 391 l 485 391 q 500 391 490 391 q 519 389 509 391 q 539 382 530 387 q 555 368 549 377 q 586 320 572 346 q 612 270 600 295 q 634 222 625 245 q 649 181 643 199 q 661 106 663 136 q 640 57 659 76 q 581 27 620 37 q 480 12 541 17 q 278 3 376 6 q 78 0 179 1 l -42 0 l -41 167 q -38 330 -40 245 q -37 499 -36 416 q -46 660 -39 583 q -73 798 -54 736 q -73 813 -77 809 q -65 821 -70 817 q -26 856 -43 836 q 5 898 -8 876 q 29 941 19 919 q 45 981 39 962 q 57 991 50 995 q 68 977 64 987 q 94 870 83 939 q 110 696 105 802 m 108 184 q 187 184 146 184 q 266 184 228 184 q 338 185 304 184 q 395 188 371 186 q 402 194 401 189 q 401 202 403 199 l 397 212 q 391 218 396 217 q 382 218 386 218 l 108 216 q 109 198 109 207 q 108 184 108 190 z "},"ﻄ":{"ha":735,"x_min":-68,"x_max":749,"o":"m -32 165 q -29 326 -30 243 q -31 492 -28 410 q -41 653 -33 575 q -64 798 -50 731 q -64 813 -68 809 q -56 821 -61 817 q -17 856 -35 836 q 14 898 1 876 q 38 941 28 919 q 54 981 47 962 q 60 990 56 988 q 66 991 63 992 q 73 986 70 989 q 77 977 76 982 q 103 870 93 939 q 119 696 114 802 q 119 630 119 666 q 119 554 119 593 q 119 473 119 514 q 119 393 119 432 q 123 400 120 395 q 129 408 125 404 q 135 414 132 412 q 139 415 138 416 q 149 400 142 406 q 162 393 155 395 q 179 391 170 391 q 198 391 189 391 l 494 391 q 509 391 500 391 q 528 389 518 391 q 548 382 538 387 q 564 368 558 377 q 603 304 585 338 q 635 241 621 271 q 675 194 650 211 q 735 167 701 176 q 747 118 745 144 q 748 68 749 92 q 742 26 746 45 q 735 0 738 8 l -32 0 l -32 165 m 117 185 q 196 185 155 185 q 275 185 237 185 q 347 187 313 186 q 405 189 380 188 q 412 195 411 191 q 411 203 412 200 l 407 214 q 400 219 406 218 q 391 220 395 220 l 117 218 q 117 200 118 208 q 117 185 117 191 z "},"ظ":{"ha":1301,"x_min":174,"x_max":1296,"o":"m 407 191 q 438 180 419 186 q 482 169 458 174 q 534 161 506 164 q 592 159 562 158 q 594 326 592 240 q 595 495 597 412 q 587 656 594 578 q 559 798 579 733 q 559 813 555 809 q 567 821 562 817 q 607 856 589 836 q 638 898 625 876 q 662 941 652 919 q 677 981 671 962 q 689 991 682 995 q 700 977 696 987 q 727 870 716 939 q 742 696 737 802 q 742 630 742 666 q 743 554 743 593 q 743 473 743 514 q 742 393 743 432 q 746 400 743 395 q 752 408 749 404 q 759 414 755 412 q 763 415 762 416 q 772 400 766 406 q 786 393 778 395 q 803 391 794 391 q 821 391 812 391 l 1117 391 q 1132 391 1122 391 q 1152 389 1141 391 q 1172 382 1162 387 q 1188 368 1182 377 q 1219 320 1204 346 q 1245 270 1234 295 q 1266 222 1257 245 q 1282 181 1276 199 q 1294 106 1296 136 q 1273 57 1293 76 q 1213 27 1253 37 q 1113 12 1174 17 q 842 2 977 5 q 575 0 707 0 q 349 9 444 0 q 191 31 254 18 q 179 34 184 31 q 174 40 175 37 q 177 48 174 44 q 191 56 181 52 q 256 81 227 66 q 309 112 286 96 q 351 147 332 129 q 384 185 369 165 q 394 194 389 193 q 407 191 399 195 m 740 159 q 820 159 779 159 q 899 159 861 159 q 970 160 937 159 q 1027 163 1003 161 q 1034 169 1034 164 q 1034 177 1035 174 l 1029 187 q 1023 193 1028 192 q 1015 193 1019 193 l 740 191 q 741 173 741 182 q 740 159 740 165 m 918 536 q 932 570 918 556 q 966 584 947 584 q 1000 570 986 584 q 1014 536 1014 556 q 1000 503 1014 517 q 966 488 986 488 q 932 503 947 488 q 918 536 918 517 z "},"ﻆ":{"ha":1362,"x_min":177,"x_max":1377,"o":"m 595 159 q 598 321 597 237 q 597 488 600 405 q 586 651 594 572 q 563 798 578 730 q 563 813 559 809 q 571 821 566 817 q 610 856 593 836 q 642 898 628 876 q 665 941 655 919 q 681 981 675 962 q 687 990 684 988 q 694 991 690 992 q 700 986 697 989 q 705 977 703 982 q 731 870 720 939 q 746 696 741 802 q 746 630 746 666 q 747 554 747 593 q 747 473 747 514 q 746 393 747 432 q 750 400 747 395 q 756 408 753 404 q 762 414 759 412 q 766 415 765 416 q 776 400 770 406 q 790 393 782 395 q 807 391 798 391 q 825 391 816 391 l 1122 391 q 1136 391 1127 391 q 1156 389 1145 391 q 1176 382 1166 387 q 1192 368 1185 377 q 1231 304 1213 338 q 1262 241 1249 271 q 1303 194 1278 211 q 1362 167 1328 176 q 1374 118 1372 144 q 1375 68 1377 92 q 1369 26 1373 45 q 1362 0 1365 8 l 578 0 q 352 9 447 0 q 194 31 258 18 q 183 34 187 31 q 178 40 178 37 q 181 48 177 44 q 194 56 184 52 q 260 81 231 66 q 312 112 289 96 q 354 147 336 129 q 387 185 372 165 q 397 194 392 193 q 410 191 402 195 q 442 180 422 186 q 485 169 461 174 q 537 161 509 164 q 595 159 566 158 m 744 185 q 824 185 783 185 q 903 185 865 185 q 974 187 941 186 q 1032 189 1008 188 q 1039 195 1038 191 q 1038 203 1040 200 l 1034 214 q 1027 219 1033 218 q 1019 220 1022 220 l 744 218 q 745 200 745 208 q 744 185 744 191 m 892 518 q 906 552 892 538 q 940 566 920 566 q 974 552 960 566 q 987 518 987 538 q 974 484 987 498 q 940 470 960 470 q 906 484 920 470 q 892 518 892 498 z "},"ﻇ":{"ha":663,"x_min":-77,"x_max":663,"o":"m 110 696 q 110 630 110 666 q 111 554 111 593 q 111 473 111 514 q 110 393 111 432 q 114 400 111 395 q 120 408 117 404 q 126 414 123 412 q 130 415 129 416 q 140 400 134 406 q 154 393 146 395 q 171 391 161 391 q 189 391 180 391 l 485 391 q 500 391 490 391 q 519 389 509 391 q 539 382 530 387 q 555 368 549 377 q 586 320 572 346 q 612 270 600 295 q 634 222 625 245 q 649 181 643 199 q 661 106 663 136 q 640 57 659 76 q 581 27 620 37 q 480 12 541 17 q 278 3 376 6 q 78 0 179 1 l -42 0 l -41 167 q -38 330 -40 245 q -37 499 -36 416 q -46 660 -39 583 q -73 798 -54 736 q -73 813 -77 809 q -65 821 -70 817 q -26 856 -43 836 q 5 898 -8 876 q 29 941 19 919 q 45 981 39 962 q 57 991 50 995 q 68 977 64 987 q 94 870 83 939 q 110 696 105 802 m 108 184 q 187 184 146 184 q 266 184 228 184 q 338 185 304 184 q 395 188 371 186 q 402 194 401 189 q 401 202 403 199 l 397 212 q 391 218 396 217 q 382 218 386 218 l 108 216 q 109 198 109 207 q 108 184 108 190 m 262 534 q 277 567 262 553 q 311 581 291 581 q 344 567 330 581 q 358 534 358 553 q 344 500 358 514 q 311 486 330 486 q 277 500 291 486 q 262 534 262 514 z "},"ﻈ":{"ha":735,"x_min":-68,"x_max":749,"o":"m -32 165 q -29 326 -30 243 q -31 492 -28 410 q -41 653 -33 575 q -64 798 -50 731 q -64 813 -68 809 q -56 821 -61 817 q -17 856 -35 836 q 14 898 1 876 q 38 941 28 919 q 54 981 47 962 q 60 990 56 988 q 66 991 63 992 q 73 986 70 989 q 77 977 76 982 q 103 870 93 939 q 119 696 114 802 q 119 630 119 666 q 119 554 119 593 q 119 473 119 514 q 119 393 119 432 q 123 400 120 395 q 129 408 125 404 q 135 414 132 412 q 139 415 138 416 q 149 400 142 406 q 162 393 155 395 q 179 391 170 391 q 198 391 189 391 l 494 391 q 509 391 500 391 q 528 389 518 391 q 548 382 538 387 q 564 368 558 377 q 603 304 585 338 q 635 241 621 271 q 675 194 650 211 q 735 167 701 176 q 747 118 745 144 q 748 68 749 92 q 742 26 746 45 q 735 0 738 8 l -32 0 l -32 165 m 117 185 q 196 185 155 185 q 275 185 237 185 q 347 187 313 186 q 405 189 380 188 q 412 195 411 191 q 411 203 412 200 l 407 214 q 400 219 406 218 q 391 220 395 220 l 117 218 q 117 200 118 208 q 117 185 117 191 m 262 534 q 277 567 262 553 q 311 581 291 581 q 344 567 330 581 q 358 534 358 553 q 344 500 358 514 q 311 486 330 486 q 277 500 291 486 q 262 534 262 514 z "},"ع":{"ha":1358,"x_min":211,"x_max":1357,"o":"m 215 -199 q 240 -113 218 -154 q 298 -40 262 -73 q 382 17 334 -7 q 483 53 429 41 q 431 79 462 61 q 368 123 399 98 q 309 178 336 148 q 267 239 281 208 q 255 303 252 271 q 287 364 258 335 q 334 408 304 382 q 400 464 363 434 q 479 526 437 494 q 564 587 521 558 q 577 583 573 589 q 570 566 581 577 q 490 503 526 532 q 436 450 454 473 q 419 413 422 432 q 420 375 416 394 q 434 339 424 356 q 456 307 444 321 q 554 241 493 269 q 691 195 615 214 q 851 165 766 176 q 1021 150 936 155 q 1186 144 1106 144 q 1331 145 1265 143 q 1351 142 1345 146 q 1350 125 1357 137 q 1327 105 1345 117 q 1284 80 1310 94 q 1230 52 1259 66 q 1173 26 1200 37 q 1115 16 1146 19 q 1045 11 1083 12 q 964 11 1008 10 q 869 12 920 11 q 766 4 818 9 q 665 -13 713 -2 q 573 -40 616 -24 q 498 -78 530 -56 q 445 -132 465 -101 q 420 -201 424 -162 q 453 -308 415 -259 q 582 -390 491 -356 q 819 -439 672 -423 q 1179 -446 966 -454 q 1193 -449 1198 -444 q 1175 -466 1189 -454 q 1012 -499 1096 -485 q 844 -520 928 -513 q 681 -526 761 -527 q 529 -513 600 -525 q 398 -477 458 -501 q 296 -415 338 -454 q 233 -323 254 -377 q 215 -199 211 -270 z "},"ﻊ":{"ha":688,"x_min":154,"x_max":1055,"o":"m 487 0 q 462 -66 477 -34 q 432 -132 447 -98 q 405 -200 417 -165 q 389 -276 393 -235 q 396 -374 385 -330 q 437 -454 408 -418 q 517 -516 467 -490 q 642 -559 568 -542 q 815 -584 715 -576 q 1045 -591 916 -592 q 1054 -593 1053 -590 q 1051 -600 1055 -595 q 1040 -608 1047 -604 q 1024 -616 1032 -613 q 778 -664 895 -649 q 562 -675 660 -680 q 387 -644 463 -670 q 264 -568 311 -618 q 204 -442 218 -517 q 218 -262 191 -366 q 232 -214 222 -241 q 255 -155 242 -186 q 281 -91 267 -124 q 307 -24 295 -57 q 328 38 319 8 q 340 94 336 68 q 329 112 339 100 q 303 141 319 125 q 268 176 288 157 q 229 212 248 194 q 192 244 210 229 q 161 269 174 259 q 156 279 154 275 q 162 291 158 283 q 188 333 175 311 q 213 375 201 355 q 232 411 224 395 q 245 435 241 427 q 252 445 248 442 q 264 441 256 448 q 293 416 277 432 q 326 382 309 400 q 359 345 343 363 q 387 313 374 327 q 387 328 387 317 q 386 351 387 338 q 384 375 385 363 q 382 393 382 387 q 393 414 382 407 q 419 432 402 420 q 456 460 437 445 q 494 493 475 475 q 524 526 513 510 q 534 534 528 534 q 545 526 541 534 q 549 460 548 495 q 552 389 549 425 q 561 320 555 354 q 583 256 568 286 q 623 204 597 227 q 688 167 648 180 q 700 118 698 144 q 700 68 702 92 q 695 26 699 45 q 688 0 691 8 l 487 0 z "},"ﻋ":{"ha":1126,"x_min":-55,"x_max":1113,"o":"m 261 596 q 270 598 265 599 q 277 595 274 598 q 280 588 279 593 q 275 578 280 583 q 194 510 231 543 q 140 452 157 478 q 124 419 127 437 q 125 382 121 401 q 139 343 129 363 q 163 308 149 324 q 262 242 198 271 q 408 192 326 213 q 581 159 489 172 q 764 143 673 147 q 939 144 855 140 q 1086 161 1022 148 q 1106 160 1099 165 q 1107 139 1113 154 q 1087 112 1101 128 q 1051 79 1074 96 q 997 44 1028 62 q 928 14 966 27 q 881 6 909 9 q 820 0 852 2 q 751 -3 787 -2 q 682 -3 716 -3 q 618 -2 648 -3 q 566 0 588 -1 q 457 -2 507 -1 q 362 -3 407 -3 q 275 -2 317 -3 q 190 -1 233 -2 q 100 0 146 -1 q 0 0 54 0 q -8 36 -5 16 q -12 78 -12 56 q -10 123 -13 100 q 0 167 -7 146 q -32 213 -18 189 q -51 264 -46 238 q -47 318 -55 291 q -12 371 -39 345 q 35 416 5 389 q 100 473 64 442 q 178 535 136 503 q 261 596 219 567 z "},"ﻌ":{"ha":405,"x_min":-100,"x_max":418,"o":"m 0 0 q -7 26 -4 10 q -11 60 -9 42 q -12 97 -12 79 q -10 131 -12 116 q -6 156 -9 146 q -1 167 -4 165 l 8 167 q -11 196 3 178 q -40 235 -24 215 q -71 273 -56 255 q -94 299 -85 291 q -99 309 -99 304 q -96 319 -100 313 q -73 347 -87 330 q -44 383 -59 364 q -16 419 -30 401 q 5 448 -3 437 q 13 455 9 453 q 21 451 17 456 q 64 396 40 425 q 119 328 88 368 q 121 353 120 338 q 124 382 122 368 q 129 407 125 396 q 137 422 132 418 q 157 433 142 425 q 190 454 171 441 q 232 483 210 466 q 275 519 254 499 q 291 528 286 530 q 299 519 296 526 q 294 476 297 502 q 289 421 292 450 q 286 360 287 391 q 287 301 285 330 q 322 216 290 252 q 405 167 353 180 q 416 118 414 144 q 417 68 418 92 q 411 26 415 45 q 405 0 408 8 l 0 0 z "},"غ":{"ha":1358,"x_min":211,"x_max":1357,"o":"m 215 -199 q 240 -113 218 -154 q 298 -40 262 -73 q 382 17 334 -7 q 483 53 429 41 q 431 79 462 61 q 368 123 399 98 q 309 178 336 148 q 267 239 281 208 q 255 303 252 271 q 287 364 258 335 q 334 408 304 382 q 400 464 363 434 q 479 526 437 494 q 564 587 521 558 q 577 583 573 589 q 570 566 581 577 q 490 503 526 532 q 436 450 454 473 q 419 413 422 432 q 420 375 416 394 q 434 339 424 356 q 456 307 444 321 q 554 241 493 269 q 691 195 615 214 q 851 165 766 176 q 1021 150 936 155 q 1186 144 1106 144 q 1331 145 1265 143 q 1351 142 1345 146 q 1350 125 1357 137 q 1327 105 1345 117 q 1284 80 1310 94 q 1230 52 1259 66 q 1173 26 1200 37 q 1115 16 1146 19 q 1045 11 1083 12 q 964 11 1008 10 q 869 12 920 11 q 766 4 818 9 q 665 -13 713 -2 q 573 -40 616 -24 q 498 -78 530 -56 q 445 -132 465 -101 q 420 -201 424 -162 q 453 -308 415 -259 q 582 -390 491 -356 q 819 -439 672 -423 q 1179 -446 966 -454 q 1193 -449 1198 -444 q 1175 -466 1189 -454 q 1012 -499 1096 -485 q 844 -520 928 -513 q 681 -526 761 -527 q 529 -513 600 -525 q 398 -477 458 -501 q 296 -415 338 -454 q 233 -323 254 -377 q 215 -199 211 -270 m 391 640 q 406 673 391 659 q 439 687 420 687 q 473 673 459 687 q 487 640 487 659 q 473 606 487 620 q 439 591 459 591 q 406 606 420 591 q 391 640 391 620 z "},"ﻎ":{"ha":688,"x_min":154,"x_max":1055,"o":"m 363 583 q 377 617 363 603 q 411 631 391 631 q 445 617 431 631 q 458 583 458 603 q 445 549 458 564 q 411 535 431 535 q 377 549 391 535 q 363 583 363 564 m 487 0 q 462 -66 477 -34 q 432 -132 447 -98 q 405 -200 417 -165 q 389 -276 393 -235 q 396 -374 385 -330 q 437 -454 408 -418 q 517 -516 467 -490 q 642 -559 568 -542 q 815 -584 715 -576 q 1045 -591 916 -592 q 1054 -593 1053 -590 q 1051 -600 1055 -595 q 1040 -608 1047 -604 q 1024 -616 1032 -613 q 778 -664 895 -649 q 562 -675 660 -680 q 387 -644 463 -670 q 264 -568 311 -618 q 204 -442 218 -517 q 218 -262 191 -366 q 232 -214 222 -241 q 255 -155 242 -186 q 281 -91 267 -124 q 307 -24 295 -57 q 328 38 319 8 q 340 94 336 68 q 329 112 339 100 q 303 141 319 125 q 268 176 288 157 q 229 212 248 194 q 192 244 210 229 q 161 269 174 259 q 156 279 154 275 q 162 291 158 283 q 188 333 175 311 q 213 375 201 355 q 232 411 224 395 q 245 435 241 427 q 252 445 248 442 q 264 441 256 448 q 293 416 277 432 q 326 382 309 400 q 359 345 343 363 q 387 313 374 327 q 387 328 387 317 q 386 351 387 338 q 384 375 385 363 q 382 393 382 387 q 393 414 382 407 q 419 432 402 420 q 456 460 437 445 q 494 493 475 475 q 524 526 513 510 q 534 534 528 534 q 545 526 541 534 q 549 460 548 495 q 552 389 549 425 q 561 320 555 354 q 583 256 568 286 q 623 204 597 227 q 688 167 648 180 q 700 118 698 144 q 700 68 702 92 q 695 26 699 45 q 688 0 691 8 l 487 0 z "},"ﻏ":{"ha":1126,"x_min":-55,"x_max":1113,"o":"m 261 596 q 270 598 265 599 q 277 595 274 598 q 280 588 279 593 q 275 578 280 583 q 194 510 231 543 q 140 452 157 478 q 124 419 127 437 q 125 382 121 401 q 139 343 129 363 q 163 308 149 324 q 262 242 198 271 q 408 192 326 213 q 581 159 489 172 q 764 143 673 147 q 939 144 855 140 q 1086 161 1022 148 q 1106 160 1099 165 q 1107 139 1113 154 q 1087 112 1101 128 q 1051 79 1074 96 q 997 44 1028 62 q 928 14 966 27 q 881 6 909 9 q 820 0 852 2 q 751 -3 787 -2 q 682 -3 716 -3 q 618 -2 648 -3 q 566 0 588 -1 q 457 -2 507 -1 q 362 -3 407 -3 q 275 -2 317 -3 q 190 -1 233 -2 q 100 0 146 -1 q 0 0 54 0 q -8 36 -5 16 q -12 78 -12 56 q -10 123 -13 100 q 0 167 -7 146 q -32 213 -18 189 q -51 264 -46 238 q -47 318 -55 291 q -12 371 -39 345 q 35 416 5 389 q 100 473 64 442 q 178 535 136 503 q 261 596 219 567 m 102 682 q 117 715 102 701 q 151 729 131 729 q 184 715 170 729 q 198 682 198 701 q 184 648 198 662 q 151 633 170 633 q 117 648 131 633 q 102 682 102 662 z "},"ﻐ":{"ha":405,"x_min":-100,"x_max":418,"o":"m 0 0 q -7 26 -4 10 q -11 60 -9 42 q -12 97 -12 79 q -10 131 -12 116 q -6 156 -9 146 q -1 167 -4 165 l 8 167 q -11 196 3 178 q -40 235 -24 215 q -71 273 -56 255 q -94 299 -85 291 q -99 309 -99 304 q -96 319 -100 313 q -73 347 -87 330 q -44 383 -59 364 q -16 419 -30 401 q 5 448 -3 437 q 13 455 9 453 q 21 451 17 456 q 64 396 40 425 q 119 328 88 368 q 121 353 120 338 q 124 382 122 368 q 129 407 125 396 q 137 422 132 418 q 157 433 142 425 q 190 454 171 441 q 232 483 210 466 q 275 519 254 499 q 291 528 286 530 q 299 519 296 526 q 294 476 297 502 q 289 421 292 450 q 286 360 287 391 q 287 301 285 330 q 322 216 290 252 q 405 167 353 180 q 416 118 414 144 q 417 68 418 92 q 411 26 415 45 q 405 0 408 8 l 0 0 m 91 559 q 105 592 91 578 q 139 606 119 606 q 173 592 159 606 q 186 559 186 578 q 173 525 186 539 q 139 511 159 511 q 105 525 119 511 q 91 559 91 539 z "},"ف":{"ha":1721,"x_min":195,"x_max":1674,"o":"m 599 181 q 679 171 635 175 q 771 164 723 166 q 870 160 820 161 q 966 159 920 159 l 1457 159 q 1461 163 1460 159 q 1459 172 1461 167 q 1453 183 1457 178 q 1443 189 1449 188 q 1405 184 1429 188 q 1353 179 1381 181 q 1297 177 1325 177 q 1245 181 1268 176 q 1170 212 1198 189 q 1129 267 1142 235 q 1119 338 1117 300 q 1135 416 1121 377 q 1172 492 1148 456 q 1227 557 1196 529 q 1298 603 1259 586 q 1378 621 1336 621 q 1470 597 1429 618 q 1545 544 1512 576 q 1601 468 1577 511 q 1642 381 1626 426 q 1666 292 1657 336 q 1674 208 1674 247 q 1661 140 1674 174 q 1622 79 1648 107 q 1559 31 1596 51 q 1472 4 1521 11 q 1352 0 1416 -1 q 1217 0 1287 0 l 966 0 q 766 3 868 0 q 565 10 663 5 q 376 21 467 14 q 212 35 286 27 q 201 39 205 35 q 196 46 197 42 q 199 56 195 51 q 212 64 202 60 q 280 92 248 75 q 339 128 312 109 q 388 169 366 148 q 428 210 410 190 q 443 216 434 216 q 460 212 452 216 q 523 196 488 203 q 599 181 557 189 m 1374 379 q 1363 376 1368 379 q 1356 367 1358 372 q 1356 356 1354 362 q 1364 344 1358 350 q 1373 342 1367 342 q 1387 342 1380 342 q 1399 344 1394 342 q 1404 348 1404 346 q 1403 356 1404 351 q 1399 367 1402 361 q 1390 375 1396 372 q 1374 379 1383 379 m 1303 715 q 1318 749 1303 735 q 1352 763 1332 763 q 1385 749 1371 763 q 1399 715 1399 735 q 1385 682 1399 696 q 1352 667 1371 667 q 1318 682 1332 667 q 1303 715 1303 696 z "},"ﻒ":{"ha":1794,"x_min":211,"x_max":1808,"o":"m 1015 0 q 808 3 914 0 q 598 10 701 5 q 400 21 495 14 q 228 35 305 27 q 217 39 222 35 q 212 46 213 42 q 215 56 211 51 q 228 64 218 60 q 296 92 264 75 q 355 128 328 109 q 404 169 382 148 q 444 210 427 190 q 459 216 450 216 q 476 212 467 216 q 539 196 505 203 q 615 181 573 189 q 708 170 656 174 q 815 163 760 165 q 928 160 871 161 q 1036 159 985 159 l 1211 159 q 1160 210 1181 178 q 1131 279 1139 241 q 1125 357 1122 317 q 1147 433 1129 397 q 1194 502 1166 471 q 1254 554 1221 532 q 1323 588 1286 576 q 1396 600 1359 600 q 1511 576 1463 600 q 1592 513 1560 553 q 1644 420 1625 473 q 1671 309 1662 367 q 1709 220 1680 258 q 1794 167 1738 182 q 1806 118 1804 144 q 1806 68 1808 92 q 1801 26 1805 45 q 1794 0 1797 8 l 1015 0 m 1469 356 q 1458 351 1462 356 q 1452 339 1453 346 q 1451 326 1450 332 q 1459 316 1453 319 q 1472 312 1464 313 q 1487 313 1480 312 q 1500 316 1495 314 q 1506 322 1506 319 q 1503 331 1506 326 q 1496 342 1501 337 q 1485 352 1492 348 q 1469 356 1478 356 m 1322 735 q 1337 769 1322 755 q 1371 783 1351 783 q 1404 769 1390 783 q 1418 735 1418 755 q 1404 701 1418 715 q 1371 687 1390 687 q 1337 701 1351 687 q 1322 735 1322 715 z "},"ﻓ":{"ha":476,"x_min":-93,"x_max":464,"o":"m 0 0 q -7 43 -3 22 q -11 85 -10 64 q -10 127 -12 106 q 0 167 -7 147 q 67 157 33 159 q 135 158 101 155 q 199 168 168 161 q 256 185 231 175 q 262 199 264 189 q 252 218 260 209 q 195 196 229 205 q 122 185 161 187 q 45 188 83 182 q -24 211 7 194 q -74 258 -54 228 q -93 334 -93 288 q -84 404 -93 368 q -58 475 -75 440 q -18 541 -41 510 q 33 595 5 572 q 95 632 62 618 q 163 646 127 646 q 256 621 214 643 q 332 565 298 600 q 390 488 365 531 q 431 398 414 444 q 456 307 448 352 q 464 224 464 262 q 448 142 464 176 q 406 83 433 107 q 342 43 379 58 q 263 18 306 27 q 175 5 221 9 q 83 0 129 1 l 0 0 m 153 380 q 142 377 146 380 q 135 368 137 373 q 135 357 133 363 q 144 347 137 351 q 155 344 148 345 q 169 345 161 344 q 181 347 176 345 q 186 351 186 349 q 183 358 186 353 q 177 369 181 363 q 167 377 173 374 q 153 380 161 380 m 104 762 q 118 795 104 781 q 152 809 132 809 q 185 795 172 809 q 199 762 199 781 q 185 728 199 742 q 152 713 172 713 q 118 728 132 713 q 104 762 104 742 z "},"ﻔ":{"ha":590,"x_min":-83,"x_max":604,"o":"m 0 0 q -6 42 -3 21 q -10 84 -9 63 q -9 126 -11 106 q 0 167 -7 147 q 3 166 1 167 q 8 167 4 165 q -44 216 -23 186 q -74 283 -65 247 q -79 358 -83 319 q -57 433 -75 397 q -11 502 -38 471 q 50 554 17 532 q 118 588 82 576 q 191 600 155 600 q 307 576 258 600 q 387 513 355 553 q 437 420 419 473 q 465 309 456 367 q 476 264 467 286 q 501 222 486 241 q 539 188 517 203 q 590 167 561 174 q 602 118 600 144 q 602 68 604 92 q 596 26 600 45 q 590 0 593 8 l 0 0 m 264 356 q 253 351 258 356 q 247 339 249 346 q 247 326 245 332 q 254 316 248 319 q 268 312 260 313 q 283 313 275 312 q 296 316 290 314 q 301 322 301 319 q 299 331 301 326 q 292 342 296 337 q 280 352 288 348 q 264 356 273 356 m 128 692 q 142 726 128 712 q 176 740 157 740 q 210 726 196 740 q 224 692 224 712 q 210 659 224 673 q 176 644 196 644 q 142 659 157 644 q 128 692 128 673 z "},"ق":{"ha":880,"x_min":111,"x_max":880,"o":"m 845 -127 q 857 -155 851 -140 q 866 -184 862 -170 q 872 -211 869 -198 q 874 -233 874 -224 q 863 -297 880 -277 q 809 -321 845 -316 q 754 -325 791 -323 q 671 -326 718 -326 q 573 -325 625 -326 q 477 -319 522 -323 q 430 -315 459 -317 q 369 -309 401 -313 q 307 -300 336 -305 q 258 -288 277 -295 q 252 -279 248 -283 q 262 -273 255 -274 q 325 -251 298 -264 q 371 -223 351 -237 q 403 -194 390 -208 q 426 -169 416 -180 q 437 -161 433 -163 q 449 -165 441 -160 q 485 -179 463 -172 q 532 -189 507 -186 q 564 -193 543 -191 q 608 -196 585 -195 q 653 -198 631 -197 q 686 -199 674 -199 q 690 -194 690 -199 q 687 -184 690 -190 q 681 -174 685 -179 q 672 -169 677 -170 q 605 -166 643 -168 q 529 -157 567 -163 q 459 -140 492 -151 q 408 -109 427 -128 q 402 -83 400 -98 q 412 -55 405 -68 q 429 -31 419 -41 q 444 -16 438 -20 q 468 -9 456 -9 q 491 -12 479 -9 q 512 -16 502 -14 q 532 -16 523 -18 q 542 -3 538 -12 q 546 14 545 5 q 547 33 547 24 q 544 50 546 43 q 479 42 516 45 q 401 40 442 40 q 318 43 361 40 q 239 52 276 45 q 164 82 192 60 q 123 137 136 105 q 113 207 111 169 q 129 284 115 245 q 167 359 142 323 q 223 423 191 395 q 293 468 255 451 q 374 485 332 485 q 479 454 433 479 q 559 388 525 428 q 614 296 593 347 q 647 190 636 245 q 658 79 658 134 q 648 -26 658 23 q 679 -30 660 -28 q 717 -35 697 -33 q 754 -41 736 -38 q 781 -46 771 -44 q 800 -56 791 -47 q 817 -76 809 -64 q 832 -101 825 -87 q 845 -127 840 -115 m 378 250 q 367 246 372 250 q 361 235 363 241 q 362 222 360 229 q 370 208 363 214 q 379 207 372 208 q 394 206 387 206 q 406 207 401 206 q 412 210 412 208 q 410 220 412 213 q 404 233 408 227 q 394 245 400 240 q 378 250 387 250 m 231 590 q 245 624 231 610 q 279 637 260 637 q 313 624 299 637 q 327 590 327 610 q 313 556 327 570 q 279 542 299 542 q 245 556 260 542 q 231 590 231 570 m 327 590 q 341 624 327 610 q 374 637 355 637 q 408 624 394 637 q 422 590 422 610 q 408 556 422 570 q 374 542 394 542 q 341 556 355 542 q 327 590 327 570 z "},"ﻖ":{"ha":1131,"x_min":507,"x_max":1276,"o":"m 1048 0 q 1040 -25 1046 -13 q 1026 -46 1034 -37 q 1009 -63 1018 -56 q 995 -71 1001 -69 q 1018 -74 1003 -73 q 1051 -77 1033 -75 q 1088 -81 1069 -79 q 1126 -84 1108 -83 q 1157 -88 1143 -86 q 1177 -92 1171 -90 q 1196 -101 1187 -93 q 1213 -122 1205 -110 q 1229 -149 1221 -134 q 1241 -175 1236 -163 q 1253 -202 1247 -188 q 1262 -231 1258 -217 q 1268 -259 1265 -245 q 1270 -281 1270 -272 q 1259 -344 1276 -325 q 1205 -368 1241 -363 q 1151 -373 1187 -371 q 1067 -374 1114 -374 q 969 -372 1021 -374 q 873 -366 918 -370 q 826 -362 855 -365 q 765 -356 797 -360 q 703 -348 732 -353 q 654 -336 673 -342 q 648 -327 644 -331 q 658 -321 651 -322 q 721 -298 694 -312 q 767 -271 747 -285 q 799 -242 786 -256 q 822 -217 812 -228 q 833 -210 829 -211 q 845 -213 838 -208 q 881 -227 859 -220 q 928 -237 903 -234 q 960 -241 939 -239 q 1004 -243 981 -242 q 1049 -245 1027 -245 q 1082 -246 1070 -246 q 1086 -242 1086 -246 q 1083 -232 1086 -237 q 1077 -222 1081 -227 q 1068 -217 1073 -218 q 1001 -214 1039 -216 q 926 -204 963 -211 q 857 -186 888 -198 q 808 -157 825 -175 q 801 -132 800 -146 q 808 -106 802 -119 q 823 -83 814 -93 q 837 -69 831 -73 q 858 -58 850 -60 q 871 -57 865 -56 q 887 -60 878 -58 q 912 -63 896 -63 q 940 -54 930 -62 q 953 -37 949 -47 q 956 -17 956 -27 q 953 0 955 -7 q 881 0 918 0 q 803 -1 843 -1 q 721 1 763 -1 q 635 8 678 3 q 560 40 588 16 q 519 97 532 64 q 509 171 507 131 q 525 253 511 212 q 563 332 538 294 q 619 401 587 371 q 689 449 651 431 q 770 467 728 467 q 866 447 825 467 q 939 395 908 427 q 992 323 970 363 q 1029 241 1015 282 q 1069 195 1042 212 q 1131 167 1097 178 q 1149 155 1143 167 q 1157 124 1156 142 q 1158 84 1159 105 q 1152 44 1156 62 q 1143 13 1148 25 q 1131 0 1137 0 l 1048 0 m 774 202 q 763 198 768 202 q 758 188 759 194 q 758 174 756 181 q 766 161 760 167 q 775 159 768 160 q 790 159 783 159 q 802 160 797 159 q 808 163 808 161 q 806 172 808 165 q 800 185 804 179 q 790 197 796 192 q 774 202 783 202 m 681 574 q 695 607 681 593 q 729 621 709 621 q 763 607 749 621 q 777 574 777 593 q 763 540 777 554 q 729 526 749 526 q 695 540 709 526 q 681 574 681 554 m 777 574 q 790 607 777 593 q 824 621 804 621 q 858 607 844 621 q 872 574 872 593 q 858 540 872 554 q 824 526 844 526 q 790 540 804 526 q 777 574 777 554 z "},"ﻗ":{"ha":476,"x_min":-93,"x_max":464,"o":"m 0 0 q -7 43 -3 22 q -11 85 -10 64 q -10 127 -12 106 q 0 167 -7 147 q 67 157 33 159 q 135 158 101 155 q 199 168 168 161 q 256 185 231 175 q 262 199 264 189 q 252 218 260 209 q 195 196 229 205 q 122 185 161 187 q 45 188 83 182 q -24 211 7 194 q -74 258 -54 228 q -93 334 -93 288 q -84 404 -93 368 q -58 475 -75 440 q -18 541 -41 510 q 33 595 5 572 q 95 632 62 618 q 163 646 127 646 q 256 621 214 643 q 332 565 298 600 q 390 488 365 531 q 431 398 414 444 q 456 307 448 352 q 464 224 464 262 q 448 142 464 176 q 406 83 433 107 q 342 43 379 58 q 263 18 306 27 q 175 5 221 9 q 83 0 129 1 l 0 0 m 153 380 q 142 377 146 380 q 135 368 137 373 q 135 357 133 363 q 144 347 137 351 q 155 344 148 345 q 169 345 161 344 q 181 347 176 345 q 186 351 186 349 q 183 358 186 353 q 177 369 181 363 q 167 377 173 374 q 153 380 161 380 m 65 739 q 79 772 65 758 q 113 786 94 786 q 147 772 133 786 q 161 739 161 758 q 147 705 161 719 q 113 690 133 690 q 79 705 94 690 q 65 739 65 719 m 161 739 q 175 772 161 758 q 208 786 189 786 q 242 772 228 786 q 256 739 256 758 q 242 705 256 719 q 208 690 228 690 q 175 705 189 690 q 161 739 161 719 z "},"ﻘ":{"ha":590,"x_min":-83,"x_max":604,"o":"m 0 0 q -6 42 -3 21 q -10 84 -9 63 q -9 126 -11 106 q 0 167 -7 147 q 3 166 1 167 q 8 167 4 165 q -44 216 -23 186 q -74 283 -65 247 q -79 358 -83 319 q -57 433 -75 397 q -11 502 -38 471 q 50 554 17 532 q 118 588 82 576 q 191 600 155 600 q 307 576 258 600 q 387 513 355 553 q 437 420 419 473 q 465 309 456 367 q 476 264 467 286 q 501 222 486 241 q 539 188 517 203 q 590 167 561 174 q 602 118 600 144 q 602 68 604 92 q 596 26 600 45 q 590 0 593 8 l 0 0 m 264 356 q 253 351 258 356 q 247 339 249 346 q 247 326 245 332 q 254 316 248 319 q 268 312 260 313 q 283 313 275 312 q 296 316 290 314 q 301 322 301 319 q 299 331 301 326 q 292 342 296 337 q 280 352 288 348 q 264 356 273 356 m 66 709 q 81 743 66 729 q 115 757 95 757 q 148 743 134 757 q 162 709 162 729 q 148 675 162 690 q 115 661 134 661 q 81 675 95 661 q 66 709 66 690 m 162 709 q 176 743 162 729 q 210 757 190 757 q 243 743 229 757 q 258 709 258 729 q 243 675 258 690 q 210 661 229 661 q 176 675 190 661 q 162 709 162 690 z "}}}
